<svg width="335" height="335" xmlns="http://www.w3.org/2000/svg" xmlns:xlink="http://www.w3.org/1999/xlink" overflow="hidden"><defs><clipPath id="clip0"><rect x="30" y="365" width="335" height="335"/></clipPath></defs><g clip-path="url(#clip0)" transform="translate(-30 -365)"><path d="M265.24 433.5C277.69 433.5 287.782 443.692 287.782 456.265 287.782 459.408 287.152 462.403 286.011 465.126L285.557 465.805 315.65 465.805C324.404 465.805 331.5 472.971 331.5 481.811L331.5 584.189C331.5 593.029 324.404 600.195 315.65 600.195L287.088 600.195 287.542 600.874C288.682 603.598 289.313 606.592 289.313 609.735 289.313 622.308 279.221 632.5 266.771 632.5 254.321 632.5 244.228 622.308 244.228 609.735 244.228 606.592 244.859 603.598 246 600.874L246.453 600.195 214.35 600.195C205.596 600.195 198.5 593.029 198.5 584.189L198.5 553.255 199.559 553.976C202.256 555.128 205.221 555.765 208.333 555.765 220.783 555.765 230.876 545.573 230.876 533 230.876 520.427 220.783 510.235 208.333 510.235 205.221 510.235 202.256 510.872 199.559 512.024L198.5 512.745 198.5 481.811C198.5 472.971 205.596 465.805 214.35 465.805L244.922 465.805 244.469 465.126C243.328 462.403 242.698 459.408 242.698 456.265 242.698 443.692 252.79 433.5 265.24 433.5Z" stroke="#FFFFFF" stroke-width="3" stroke-miterlimit="8" fill="#9EC4E6" fill-rule="evenodd"/><path d="M80.406 465.5 114.224 465.5 112.543 468.001C111.398 470.717 110.765 473.702 110.765 476.836 110.765 489.373 120.894 499.535 133.388 499.535 145.882 499.535 156.011 489.373 156.011 476.836 156.011 473.702 155.378 470.717 154.233 468.001L152.552 465.5 182.067 465.5C190.852 465.5 197.973 472.645 197.973 481.46L197.973 512.624 199.072 511.881C201.778 510.732 204.754 510.097 207.877 510.097 220.372 510.097 230.5 520.259 230.5 532.796 230.5 545.332 220.372 555.495 207.877 555.495 204.754 555.495 201.778 554.859 199.072 553.711L197.973 552.968 197.973 583.54C197.973 592.355 190.852 599.5 182.067 599.5L153.322 599.5 154.233 598.145C155.378 595.43 156.011 592.444 156.011 589.31 156.011 576.773 145.882 566.611 133.388 566.611 120.894 566.611 110.765 576.773 110.765 589.31 110.765 592.444 111.398 595.43 112.543 598.145L113.454 599.5 80.406 599.5C71.6214 599.5 64.5001 592.355 64.5001 583.54L64.5001 481.46C64.5001 472.645 71.6214 465.5 80.406 465.5Z" stroke="#FFFFFF" stroke-width="3" stroke-miterlimit="8" fill="#2E72B0" fill-rule="evenodd"/></g></svg>