<svg width="335" height="336" xmlns="http://www.w3.org/2000/svg" xmlns:xlink="http://www.w3.org/1999/xlink" overflow="hidden"><defs><clipPath id="clip0"><rect x="21" y="16" width="335" height="336"/></clipPath></defs><g clip-path="url(#clip0)" transform="translate(-21 -16)"><path d="M193.528 132.416C189.398 132.041 185.132 132.153 180.787 132.809 159.124 136.15 141.27 154.049 137.938 175.766 132.7 210.848 162.219 240.441 196.975 235.191 218.876 231.849 236.492 213.95 239.825 192.233 244.616 161.537 222.432 135.042 193.528 132.416ZM176.148 70 202.09 70C207.564 70 212.086 74.2882 212.086 80.9593L212.086 87.392C212.086 91.9186 214.704 96.2068 218.988 97.6363 222.319 98.8275 225.413 100.019 228.508 101.448 232.791 103.592 237.789 102.64 241.359 99.0659L246.357 94.0627C250.165 90.2507 256.591 90.2507 260.399 94.0627L278.724 112.408C282.77 116.458 282.77 122.652 278.01 127.417L273.489 131.944C270.157 135.279 269.205 140.044 271.347 144.094 272.774 147.191 273.965 150.288 275.155 153.624 276.821 158.15 281.105 161.01 285.865 161.01L293.004 161.01C298.478 161.01 303 165.536 303 171.016L303 196.984C303 202.464 298.478 206.99 293.004 206.99L285.865 206.99C281.105 206.99 276.821 209.85 275.155 214.376 273.965 217.473 272.774 220.57 271.347 223.43 269.443 227.718 270.395 232.959 273.727 236.295L278.724 241.298C282.77 245.348 282.77 251.542 278.724 255.592L260.399 273.937C256.591 277.749 250.165 277.749 245.643 273.223L240.883 268.458C237.789 265.36 232.791 264.408 228.745 266.313 225.651 267.743 222.558 269.172 219.464 270.125 214.942 271.793 212.086 276.081 212.086 280.846L212.086 287.994C212.086 293.712 207.564 298 202.09 298L176.148 298C170.436 298 166.153 293.712 166.153 287.041L166.153 280.608C166.153 276.081 163.296 271.793 159.012 270.364 155.681 269.172 152.587 267.981 149.731 266.552 145.209 264.408 140.211 265.36 136.879 268.696L131.643 273.937C127.835 277.749 121.409 277.749 117.601 273.937L99.2756 255.592C95.4677 251.542 95.2299 245.348 99.9895 240.583L104.512 236.056C107.844 232.721 108.796 227.956 106.654 223.668 105.226 220.809 104.036 217.712 102.846 214.376 101.18 209.85 96.8958 206.99 92.1358 206.99L84.996 206.99C79.5221 206.99 75 202.464 75 196.984L75 171.016C75 165.536 79.5221 161.01 84.996 161.01L92.1358 161.01C96.8958 161.01 101.18 158.15 102.846 153.624 104.036 150.527 105.226 147.43 106.654 144.57 108.557 140.282 107.605 135.041 104.273 131.705L99.2756 126.702C95.4677 122.652 95.4677 116.458 99.2756 112.408L117.601 94.0627C121.409 90.2507 127.835 90.2507 132.357 94.7773L137.117 99.5425C140.211 102.64 145.209 103.592 149.255 101.687 152.349 100.257 155.443 98.8275 158.536 97.8746 163.059 96.2068 166.153 91.9186 166.153 87.1537L166.153 80.0064C166.153 74.2882 170.436 70 176.148 70Z" fill="#9EC4E6" fill-rule="evenodd"/><path d="M123 184C123 146.997 152.997 117 190 117 227.003 117 257 146.997 257 184 257 221.003 227.003 251 190 251 152.997 251 123 221.003 123 184Z" fill="#FFFFFF" fill-rule="evenodd"/><path d="M152.07 173.666C155.412 170.323 160.831 170.323 164.173 173.666L191.513 201.005C194.855 204.347 194.855 209.766 191.513 213.108L191.513 213.108C188.171 216.45 182.752 216.45 179.41 213.108L152.07 185.768C148.728 182.426 148.728 177.008 152.07 173.665Z" fill="#2E72B0" fill-rule="evenodd"/><path d="M230.322 162.196C233.664 165.538 233.664 170.957 230.322 174.299L191.513 213.108C188.171 216.45 182.752 216.45 179.41 213.108L179.41 213.108C176.068 209.766 176.068 204.347 179.41 201.005L218.219 162.196C221.561 158.854 226.979 158.854 230.322 162.196Z" fill="#2E72B0" fill-rule="evenodd"/></g></svg>