<svg width="335" height="336" xmlns="http://www.w3.org/2000/svg" xmlns:xlink="http://www.w3.org/1999/xlink" overflow="hidden"><defs><clipPath id="clip0"><rect x="838" y="362" width="335" height="336"/></clipPath><clipPath id="clip1"><rect x="892" y="468" width="238" height="187"/></clipPath><clipPath id="clip2"><rect x="892" y="468" width="238" height="187"/></clipPath><clipPath id="clip3"><rect x="892" y="468" width="238" height="238"/></clipPath></defs><g clip-path="url(#clip0)" transform="translate(-838 -362)"><g clip-path="url(#clip1)"><g clip-path="url(#clip2)"><g clip-path="url(#clip3)"><path d="M91.455 95.437 150.777 95.437C154.873 95.437 158.192 98.7568 158.192 102.852 158.192 106.948 154.873 110.268 150.777 110.268L106.286 110.268C104.92 110.268 103.814 111.374 103.814 112.739 103.814 114.104 104.92 115.211 106.286 115.211L150.777 115.211C157.603 115.211 163.136 109.678 163.136 102.852 163.136 96.0267 157.603 90.4935 150.777 90.4935L91.455 90.4935C86.9969 90.5293 82.6244 91.7217 78.765 93.9539L8.81428 127.57C7.55868 128.105 6.9751 129.558 7.5108 130.813 8.04653 132.069 9.49869 132.652 10.7543 132.117 10.8234 132.087 10.8912 132.055 10.9573 132.019L81.0736 98.324C84.2204 96.4662 87.801 95.4703 91.455 95.437Z" stroke="#9EC4E6" stroke-width="4.44919" fill="#9EC4E6" transform="matrix(1.003 0 -0 1 892 468)"/><path d="M217.515 70.4648C215.24 70.4154 213.002 71.0462 211.088 72.2766L168.821 96.4998C167.636 97.1783 167.225 98.6888 167.904 99.8738 168.582 101.059 170.093 101.469 171.278 100.791L213.706 76.4761C214.838 75.7435 216.166 75.3713 217.515 75.4083 221.61 75.4083 224.93 78.7281 224.93 82.8236 224.831 85.0158 223.897 87.0871 222.32 88.6124L154.542 138.171C153.244 139.148 151.667 139.68 150.043 139.689L103.814 139.689C78.5326 139.689 57.9825 147.42 42.7416 162.676 41.7596 163.625 41.7324 165.189 42.6808 166.171 43.6292 167.153 45.1941 167.18 46.1759 166.232 46.1966 166.212 46.2169 166.192 46.2367 166.171 60.5185 151.884 79.8921 144.642 103.814 144.642L150.036 144.642C152.698 144.632 155.288 143.772 157.429 142.188L225.424 92.4882 225.713 92.241C228.305 89.7855 229.811 86.398 229.898 82.8285 229.891 75.9954 224.348 70.4606 217.515 70.4648Z" stroke="#9EC4E6" stroke-width="4.44919" fill="#9EC4E6" transform="matrix(1.003 0 -0 1 892 468)"/></g></g></g><path d="M1008 517C1008 500.431 1021.21 487 1037.5 487 1053.79 487 1067 500.431 1067 517 1067 533.569 1053.79 547 1037.5 547 1021.21 547 1008 533.569 1008 517Z" fill="#2E72B0" fill-rule="evenodd"/><path d="M1020 517.5C1020 515.015 1022.01 513 1024.5 513L1050.5 513C1052.99 513 1055 515.015 1055 517.5L1055 517.5C1055 519.985 1052.99 522 1050.5 522L1024.5 522C1022.01 522 1020 519.985 1020 517.5Z" fill="#FFFFFF" fill-rule="evenodd"/><path d="M1037.5 535C1035.01 535 1033 532.985 1033 530.5L1033 504.5C1033 502.015 1035.01 500 1037.5 500L1037.5 500C1039.99 500 1042 502.015 1042 504.5L1042 530.5C1042 532.985 1039.99 535 1037.5 535Z" fill="#FFFFFF" fill-rule="evenodd"/><path d="M965 461C965 447.745 975.745 437 989 437 1002.25 437 1013 447.745 1013 461 1013 474.255 1002.25 485 989 485 975.745 485 965 474.255 965 461Z" fill="#2E72B0" fill-rule="evenodd"/><path d="M976 461C976 458.791 977.791 457 980 457L1000 457C1002.21 457 1004 458.791 1004 461L1004 461C1004 463.209 1002.21 465 1000 465L980 465C977.791 465 976 463.209 976 461Z" fill="#FFFFFF" fill-rule="evenodd"/><path d="M989.5 475C987.567 475 986 473.433 986 471.5L986 450.5C986 448.567 987.567 447 989.5 447L989.5 447C991.433 447 993 448.567 993 450.5L993 471.5C993 473.433 991.433 475 989.5 475Z" fill="#FFFFFF" fill-rule="evenodd"/><path d="M1029 427C1029 417.611 1036.83 410 1046.5 410 1056.17 410 1064 417.611 1064 427 1064 436.389 1056.17 444 1046.5 444 1036.83 444 1029 436.389 1029 427Z" fill="#2E72B0" fill-rule="evenodd"/><path d="M1037 427.5C1037 426.119 1038.12 425 1039.5 425L1054.5 425C1055.88 425 1057 426.119 1057 427.5L1057 427.5C1057 428.881 1055.88 430 1054.5 430L1039.5 430C1038.12 430 1037 428.881 1037 427.5Z" fill="#FFFFFF" fill-rule="evenodd"/><path d="M1046.5 438C1045.12 438 1044 436.881 1044 435.5L1044 420.5C1044 419.119 1045.12 418 1046.5 418L1046.5 418C1047.88 418 1049 419.119 1049 420.5L1049 435.5C1049 436.881 1047.88 438 1046.5 438Z" fill="#FFFFFF" fill-rule="evenodd"/></g></svg>