<svg width="335" height="336" xmlns="http://www.w3.org/2000/svg" xmlns:xlink="http://www.w3.org/1999/xlink" overflow="hidden"><defs><clipPath id="clip0"><rect x="412" y="359" width="335" height="336"/></clipPath></defs><g clip-path="url(#clip0)" transform="translate(-412 -359)"><path d="M566 527C566 519.82 571.82 514 579 514 586.18 514 592 519.82 592 527 592 534.18 586.18 540 579 540 571.82 540 566 534.18 566 527Z" fill="#2E72B0" fill-rule="evenodd"/><path d="M552 527C552 512.088 564.088 500 579 500 593.912 500 606 512.088 606 527 606 541.912 593.912 554 579 554 564.088 554 552 541.912 552 527Z" stroke="#2E72B0" stroke-width="8" stroke-miterlimit="8" fill="none" fill-rule="evenodd"/><path d="M0 0 44.6328 0.000104987" stroke="#9EC4E6" stroke-width="13.3333" stroke-linecap="round" stroke-linejoin="round" stroke-miterlimit="10" fill="none" fill-rule="evenodd" transform="matrix(-1 -8.74228e-08 -8.74228e-08 1 692.133 526.5)"/><path d="M657 542 631 527 657 512Z" stroke="#9EC4E6" stroke-width="8" stroke-linecap="round" stroke-linejoin="round" stroke-miterlimit="10" fill="#9EC4E6" fill-rule="evenodd"/><path d="M0 0 44.6328 0.000104987" stroke="#9EC4E6" stroke-width="13.3333" stroke-linecap="round" stroke-linejoin="round" stroke-miterlimit="10" fill="none" fill-rule="evenodd" transform="matrix(-4.37114e-08 1 1 4.37114e-08 578.5 416.5)"/><path d="M594 450 579 477 564 450Z" stroke="#9EC4E6" stroke-width="8" stroke-linecap="round" stroke-linejoin="round" stroke-miterlimit="10" fill="#9EC4E6" fill-rule="evenodd"/><path d="M0 0 44.6328 0.000104987" stroke="#9EC4E6" stroke-width="13.3333" stroke-linecap="round" stroke-linejoin="round" stroke-miterlimit="10" fill="none" fill-rule="evenodd" transform="matrix(1 -0 -0 -1 466.5 527.5)"/><path d="M501 511 527 526 501 541Z" stroke="#9EC4E6" stroke-width="8" stroke-linecap="round" stroke-linejoin="round" stroke-miterlimit="10" fill="#9EC4E6" fill-rule="evenodd"/><path d="M0 0 44.6328 0.000104987" stroke="#9EC4E6" stroke-width="13.3333" stroke-linecap="round" stroke-linejoin="round" stroke-miterlimit="10" fill="none" fill-rule="evenodd" transform="matrix(-4.37114e-08 -1 -1 4.37114e-08 579.5 638.133)"/><path d="M564 603 579 577 594 603Z" stroke="#9EC4E6" stroke-width="8" stroke-linecap="round" stroke-linejoin="round" stroke-miterlimit="10" fill="#9EC4E6" fill-rule="evenodd"/><path d="M484.353 431.397 531.474 478.518" stroke="#9EC4E6" stroke-width="13.3333" stroke-linecap="round" stroke-linejoin="round" stroke-miterlimit="10" fill="none" fill-rule="evenodd"/><path d="M535.201 460.574 543.055 489.688 513.941 481.834Z" stroke="#9EC4E6" stroke-width="8" stroke-linecap="round" stroke-linejoin="round" stroke-miterlimit="10" fill="#9EC4E6" fill-rule="evenodd"/><path d="M673.026 430.986 625.905 478.107" stroke="#9EC4E6" stroke-width="13.3333" stroke-linecap="round" stroke-linejoin="round" stroke-miterlimit="10" fill="none" fill-rule="evenodd"/><path d="M643.849 481.834 614.736 489.688 622.589 460.574Z" stroke="#9EC4E6" stroke-width="8" stroke-linecap="round" stroke-linejoin="round" stroke-miterlimit="10" fill="#9EC4E6" fill-rule="evenodd"/><path d="M670.954 620.193 623.833 573.072" stroke="#9EC4E6" stroke-width="13.3333" stroke-linecap="round" stroke-linejoin="round" stroke-miterlimit="10" fill="none" fill-rule="evenodd"/><path d="M620.106 591.016 612.253 561.902 641.366 569.756Z" stroke="#9EC4E6" stroke-width="8" stroke-linecap="round" stroke-linejoin="round" stroke-miterlimit="10" fill="#9EC4E6" fill-rule="evenodd"/><path d="M484.426 620.326 531.547 573.205" stroke="#9EC4E6" stroke-width="13.3333" stroke-linecap="round" stroke-linejoin="round" stroke-miterlimit="10" fill="none" fill-rule="evenodd"/><path d="M513.603 569.478 542.717 561.624 534.864 590.738Z" stroke="#9EC4E6" stroke-width="8" stroke-linecap="round" stroke-linejoin="round" stroke-miterlimit="10" fill="#9EC4E6" fill-rule="evenodd"/></g></svg>