<svg width="335" height="335" xmlns="http://www.w3.org/2000/svg" xmlns:xlink="http://www.w3.org/1999/xlink" overflow="hidden"><defs><clipPath id="clip0"><rect x="800" y="42" width="335" height="335"/></clipPath></defs><g clip-path="url(#clip0)" transform="translate(-800 -42)"><path d="M916 217C916 164.533 958.533 122 1011 122 1063.47 122 1106 164.533 1106 217 1106 269.467 1063.47 312 1011 312 958.533 312 916 269.467 916 217Z" stroke="#9EC4E6" stroke-width="8" stroke-miterlimit="8" fill="#FFFFFF" fill-rule="evenodd"/><path d="M1011.5 100.5 1011.5 118.74" stroke="#9EC4E6" stroke-width="13.3333" stroke-linecap="round" stroke-linejoin="round" stroke-miterlimit="10" fill="none" fill-rule="evenodd"/><path d="M0 0 30.6907 0.000104987" stroke="#9EC4E6" stroke-width="13.3333" stroke-linecap="round" stroke-linejoin="round" stroke-miterlimit="10" fill="none" fill-rule="evenodd" transform="matrix(-1 -8.74228e-08 -8.74228e-08 1 1027.19 99.5001)"/><path d="M890.504 217 823 217" stroke="#2E72B0" stroke-width="8" stroke-linecap="round" stroke-linejoin="round" stroke-miterlimit="10" fill="none" fill-rule="evenodd"/><path d="M896.343 178 842 178" stroke="#9EC4E6" stroke-width="8" stroke-linecap="round" stroke-linejoin="round" stroke-miterlimit="10" fill="none" fill-rule="evenodd"/><path d="M896.343 258 842 258" stroke="#9EC4E6" stroke-width="8" stroke-linecap="round" stroke-linejoin="round" stroke-miterlimit="10" fill="none" fill-rule="evenodd"/><path d="M916.498 297 871 297" stroke="#9EC4E6" stroke-width="8" stroke-linecap="round" stroke-linejoin="round" stroke-miterlimit="10" fill="none" fill-rule="evenodd"/><path d="M916.498 138 871 138" stroke="#9EC4E6" stroke-width="8" stroke-linecap="round" stroke-linejoin="round" stroke-miterlimit="10" fill="none" fill-rule="evenodd"/><path d="M1011.76 121C1029.57 121.049 1047.01 126.077 1062.11 135.516L1011.5 216.5Z" fill="#9EC4E6" fill-rule="evenodd"/><path d="M0 0 36.7069 63.0494" stroke="#2E72B0" stroke-width="8" stroke-linecap="round" stroke-linejoin="round" stroke-miterlimit="10" fill="none" fill-rule="evenodd" transform="matrix(-1 -8.74228e-08 -8.74228e-08 1 1050.71 151)"/><path d="M1000 218.5C1000 212.149 1004.92 207 1011 207 1017.08 207 1022 212.149 1022 218.5 1022 224.851 1017.08 230 1011 230 1004.92 230 1000 224.851 1000 218.5Z" fill="#2E72B0" fill-rule="evenodd"/></g></svg>