<svg width="335" height="335" xmlns="http://www.w3.org/2000/svg" xmlns:xlink="http://www.w3.org/1999/xlink" overflow="hidden"><defs><clipPath id="clip0"><rect x="385" y="16" width="335" height="335"/></clipPath></defs><g clip-path="url(#clip0)" transform="translate(-385 -16)"><path d="M492.04 85 607.96 85C611.539 85 614.441 87.9183 614.441 91.5182L614.441 186.162 652 186.162 550 297 448 186.162 485.559 186.162 485.559 91.5182C485.559 87.9183 488.461 85 492.04 85Z" stroke="#9EC4E6" stroke-width="8" stroke-linecap="round" stroke-linejoin="round" stroke-miterlimit="10" fill="#FFFFFF" fill-rule="evenodd"/><text fill="#2E72B0" font-family="Calibri,Calibri_MSFontService,sans-serif" font-weight="700" font-size="117" transform="translate(519.865 214)">$</text><path d="M593.554 216.166C595.857 213.723 599.704 213.61 602.147 215.913L624.347 236.84C626.79 239.143 626.904 242.99 624.601 245.433L607.922 263.126C605.619 265.569 601.772 265.682 599.329 263.379L577.129 242.452C574.686 240.149 574.573 236.302 576.875 233.859Z" fill="#FFFFFF" fill-rule="evenodd"/><path d="M0 0 16.7503 18.1364" stroke="#9EC4E6" stroke-width="8" stroke-linecap="round" stroke-linejoin="round" stroke-miterlimit="10" fill="none" fill-rule="evenodd" transform="matrix(-1 -8.74228e-08 -8.74228e-08 1 589.75 254)"/><path d="M0 0 16.7503 18.1364" stroke="#9EC4E6" stroke-width="8" stroke-linecap="round" stroke-linejoin="round" stroke-miterlimit="10" fill="none" fill-rule="evenodd" transform="matrix(-1 -8.74228e-08 -8.74228e-08 1 630.75 210)"/></g></svg>