<svg width="335" height="336" xmlns="http://www.w3.org/2000/svg" xmlns:xlink="http://www.w3.org/1999/xlink" overflow="hidden"><defs><clipPath id="clip0"><rect x="786" y="16" width="335" height="336"/></clipPath><clipPath id="clip1"><rect x="819" y="46" width="269" height="269"/></clipPath><clipPath id="clip2"><rect x="819" y="46" width="269" height="269"/></clipPath><clipPath id="clip3"><rect x="819" y="46" width="269" height="269"/></clipPath><clipPath id="clip4"><rect x="847" y="108" width="213" height="213"/></clipPath><clipPath id="clip5"><rect x="847" y="108" width="213" height="213"/></clipPath><clipPath id="clip6"><rect x="847" y="108" width="213" height="213"/></clipPath></defs><g clip-path="url(#clip0)" transform="translate(-786 -16)"><g clip-path="url(#clip1)"><g clip-path="url(#clip2)"><g clip-path="url(#clip3)"><path d="M953.5 214.125C935.006 214.125 919.875 198.994 919.875 180.5 919.875 162.006 935.006 146.875 953.5 146.875 971.994 146.875 987.125 162.006 987.125 180.5 987.125 198.994 971.994 214.125 953.5 214.125ZM1029.16 159.484C1027.47 153.32 1024.95 147.435 1021.87 142.111L1028.88 121.096 1012.9 105.124 991.889 112.129C986.284 109.047 980.4 106.525 974.235 104.844L964.708 85.2292 942.292 85.2292 932.484 104.844C926.32 106.525 920.435 109.047 915.111 112.129L894.096 105.124 878.124 121.096 885.129 142.111C882.047 147.716 879.525 153.6 877.844 159.765L858.229 169.292 858.229 191.708 877.844 201.516C879.525 207.68 882.047 213.565 885.129 218.889L878.124 239.904 894.096 255.876 915.111 248.871C920.716 251.953 926.6 254.475 932.765 256.156L942.572 275.771 964.989 275.771 974.796 256.156C980.96 254.475 986.845 251.953 992.169 248.871L1013.18 255.876 1029.16 239.904 1022.15 218.889C1025.23 213.284 1027.76 207.4 1029.44 201.235L1049.05 191.428 1049.05 169.011 1029.16 159.484Z" fill="#9EC4E6"/></g></g></g><path d="M887 180.5C887 144.325 916.549 115 953 115 989.451 115 1019 144.325 1019 180.5 1019 216.675 989.451 246 953 246 916.549 246 887 216.675 887 180.5Z" fill="#FFFFFF" fill-rule="evenodd"/><path d="M851 281 953 187 1055 281Z" fill="#FFFFFF" fill-rule="evenodd"/><g clip-path="url(#clip4)"><g clip-path="url(#clip5)"><g clip-path="url(#clip6)"><path d="M982.501 238.516C984.853 233.723 990.4 222.984 995.481 217.438 999.604 212.792 1002.86 207.449 1005.11 201.658 1007.46 195.518 1008.77 189.027 1008.97 182.455L1008.97 180.553C1008.97 149.919 984.135 125.084 953.5 125.084 922.865 125.084 898.031 149.919 898.031 180.553L898.031 182.461C898.233 189.032 899.538 195.522 901.892 201.66 904.138 207.451 907.399 212.794 911.521 217.44 916.602 222.965 922.149 233.73 924.501 238.518 925.217 239.96 926.688 240.872 928.297 240.872L978.705 240.872C980.315 240.871 981.786 239.958 982.501 238.516ZM978.572 236.432 928.428 236.432C925.566 230.61 920.052 220.147 914.847 214.487 911.076 210.243 908.094 205.359 906.041 200.065 903.87 194.412 902.662 188.436 902.469 182.384L902.469 180.629C902.448 152.445 925.278 129.58 953.462 129.56 981.646 129.539 1004.51 152.369 1004.53 180.553L1004.53 182.392C1004.34 188.437 1003.14 194.407 1000.97 200.054 998.929 205.333 995.961 210.206 992.206 214.442 986.928 220.202 981.419 230.655 978.572 236.432Z" stroke="#2E72B0" stroke-width="4.23881" fill="#2E72B0"/><path d="M978.257 254.307 929.444 254.307C928.219 254.307 927.226 255.3 927.226 256.525 927.226 257.751 928.219 258.744 929.444 258.744L978.257 258.744C979.482 258.744 980.476 257.751 980.476 256.525 980.476 255.3 979.482 254.307 978.257 254.307Z" stroke="#2E72B0" stroke-width="4.23881" fill="#2E72B0"/><path d="M980.476 274.562C980.476 273.336 979.482 272.343 978.257 272.343L929.444 272.343C928.219 272.343 927.226 273.336 927.226 274.562 927.226 275.787 928.219 276.78 929.444 276.78L978.257 276.78C979.482 276.78 980.476 275.787 980.476 274.562Z" stroke="#2E72B0" stroke-width="4.23881" fill="#2E72B0"/><path d="M966.369 292.334C966.467 291.112 965.556 290.043 964.335 289.945 964.273 289.94 964.212 289.937 964.15 289.938L942.952 289.938C941.727 289.934 940.73 290.924 940.726 292.149 940.726 292.211 940.728 292.274 940.733 292.336 941.292 299.414 947.484 304.698 954.561 304.139 960.862 303.641 965.866 298.637 966.364 292.336ZM953.567 299.738C950.109 299.708 947.013 297.588 945.734 294.375L961.401 294.375C960.127 297.592 957.029 299.713 953.569 299.738Z" stroke="#2E72B0" stroke-width="4.23881" fill="#2E72B0"/></g></g></g><path d="M946 297C946 293.686 949.134 291 953 291 956.866 291 960 293.686 960 297 960 300.314 956.866 303 953 303 949.134 303 946 300.314 946 297Z" fill="#2E72B0" fill-rule="evenodd"/></g></svg>