<svg width="335" height="336" xmlns="http://www.w3.org/2000/svg" xmlns:xlink="http://www.w3.org/1999/xlink" overflow="hidden"><defs><clipPath id="clip0"><rect x="35" y="16" width="335" height="336"/></clipPath></defs><g clip-path="url(#clip0)" transform="translate(-35 -16)"><path d="M119.374 71 229.626 71C236.46 71 242 76.54 242 83.374L242 296 107 296 107 83.374C107 76.54 112.54 71 119.374 71Z" stroke="#9EC4E6" stroke-width="8" stroke-miterlimit="8" fill="#9EC4E6" fill-rule="evenodd"/><path d="M122 92.0001C122 89.7909 123.791 88 126 88L142 88C144.209 88 146 89.7909 146 92.0001L146 108C146 110.209 144.209 112 142 112L126 112C123.791 112 122 110.209 122 108Z" fill="#FFFFFF" fill-rule="evenodd"/><path d="M163 92.0001C163 89.7909 164.791 88 167 88L183 88C185.209 88 187 89.7909 187 92.0001L187 108C187 110.209 185.209 112 183 112L167 112C164.791 112 163 110.209 163 108Z" fill="#FFFFFF" fill-rule="evenodd"/><path d="M122 134C122 131.791 123.791 130 126 130L142 130C144.209 130 146 131.791 146 134L146 150C146 152.209 144.209 154 142 154L126 154C123.791 154 122 152.209 122 150Z" fill="#FFFFFF" fill-rule="evenodd"/><path d="M163 134C163 131.791 164.791 130 167 130L183 130C185.209 130 187 131.791 187 134L187 150C187 152.209 185.209 154 183 154L167 154C164.791 154 163 152.209 163 150Z" fill="#FFFFFF" fill-rule="evenodd"/><path d="M203 92.0001C203 89.7909 204.791 88 207 88L223 88C225.209 88 227 89.7909 227 92.0001L227 108C227 110.209 225.209 112 223 112L207 112C204.791 112 203 110.209 203 108Z" fill="#FFFFFF" fill-rule="evenodd"/><path d="M203 134C203 131.791 204.791 130 207 130L223 130C225.209 130 227 131.791 227 134L227 150C227 152.209 225.209 154 223 154L207 154C204.791 154 203 152.209 203 150Z" fill="#FFFFFF" fill-rule="evenodd"/><path d="M122 177C122 174.791 123.791 173 126 173L142 173C144.209 173 146 174.791 146 177L146 193C146 195.209 144.209 197 142 197L126 197C123.791 197 122 195.209 122 193Z" fill="#FFFFFF" fill-rule="evenodd"/><path d="M163 177C163 174.791 164.791 173 167 173L183 173C185.209 173 187 174.791 187 177L187 193C187 195.209 185.209 197 183 197L167 197C164.791 197 163 195.209 163 193Z" fill="#FFFFFF" fill-rule="evenodd"/><path d="M210.437 139 281.563 139C290.641 139 298 146.359 298 155.437L298 296 194 296 194 155.437C194 146.359 201.359 139 210.437 139Z" stroke="#2E72B0" stroke-width="8" stroke-miterlimit="8" fill="#FFFFFF" fill-rule="evenodd"/><path d="M214 168C214 165.791 215.791 164 218 164L234 164C236.209 164 238 165.791 238 168L238 184C238 186.209 236.209 188 234 188L218 188C215.791 188 214 186.209 214 184Z" fill="#2E72B0" fill-rule="evenodd"/><path d="M255 168C255 165.791 256.791 164 259 164L275 164C277.209 164 279 165.791 279 168L279 184C279 186.209 277.209 188 275 188L259 188C256.791 188 255 186.209 255 184Z" fill="#2E72B0" fill-rule="evenodd"/><path d="M214 210C214 207.791 215.791 206 218 206L234 206C236.209 206 238 207.791 238 210L238 226C238 228.209 236.209 230 234 230L218 230C215.791 230 214 228.209 214 226Z" fill="#2E72B0" fill-rule="evenodd"/><path d="M255 210C255 207.791 256.791 206 259 206L275 206C277.209 206 279 207.791 279 210L279 226C279 228.209 277.209 230 275 230L259 230C256.791 230 255 228.209 255 226Z" fill="#2E72B0" fill-rule="evenodd"/><path d="M234 264C234 261.791 235.791 260 238 260L254 260C256.209 260 258 261.791 258 264L258 292C258 294.209 256.209 296 254 296L238 296C235.791 296 234 294.209 234 292Z" fill="#2E72B0" fill-rule="evenodd"/><path d="M163 264C163 261.791 164.791 260 167 260L183 260C185.209 260 187 261.791 187 264L187 292C187 294.209 185.209 296 183 296L167 296C164.791 296 163 294.209 163 292Z" fill="#FFFFFF" fill-rule="evenodd"/><path d="M97 296 308.02 296" stroke="#2E72B0" stroke-width="8" stroke-linecap="round" stroke-miterlimit="8" fill="none" fill-rule="evenodd"/></g></svg>