<svg width="335" height="336" xmlns="http://www.w3.org/2000/svg" xmlns:xlink="http://www.w3.org/1999/xlink" overflow="hidden"><defs><clipPath id="clip0"><rect x="410" y="16" width="335" height="336"/></clipPath></defs><g clip-path="url(#clip0)" transform="translate(-410 -16)"><path d="M463.049 214.604C473.925 195.766 506.434 194.175 535.661 211.049 564.888 227.923 579.764 256.873 568.888 275.71 558.013 294.547 525.503 296.139 496.277 279.265 467.05 262.391 452.174 233.441 463.049 214.604Z" stroke="#2E72B0" stroke-width="8" stroke-miterlimit="8" fill="#FFFFFF" fill-rule="evenodd"/><path d="M550.857 259.07C530.661 262.649 503.968 250.142 491.236 231.137 489.211 228.114 487.618 225.029 486.498 221.962" stroke="#2E72B0" stroke-width="8" stroke-linecap="round" stroke-miterlimit="8" fill="none" fill-rule="evenodd"/><path d="M578.88 207.288C573.25 186.278 595.112 162.165 627.711 153.43 660.309 144.696 691.298 154.647 696.928 175.657 702.558 196.667 680.695 220.78 648.097 229.515 615.499 238.25 584.51 228.298 578.88 207.288Z" stroke="#2E72B0" stroke-width="8" stroke-miterlimit="8" fill="#FFFFFF" fill-rule="evenodd"/><path d="M672.412 176.641C660.662 193.452 632.944 203.484 610.502 199.048 606.932 198.342 603.624 197.287 600.664 195.91" stroke="#2E72B0" stroke-width="8" stroke-linecap="round" stroke-miterlimit="8" fill="none" fill-rule="evenodd"/><path d="M461.476 116.557C463.086 94.8656 491.674 79.3056 525.33 81.803 558.985 84.3004 584.964 103.91 583.354 125.601 581.744 147.293 553.156 162.853 519.501 160.356 485.845 157.858 459.867 138.249 461.476 116.557Z" stroke="#2E72B0" stroke-width="8" stroke-miterlimit="8" fill="#9EC4E6" fill-rule="evenodd"/><path d="M559.883 118.45C543.249 130.449 513.773 130.785 494.047 119.2 490.91 117.357 488.134 115.271 485.793 112.995L524.167 97.4735Z" fill="#9EC4E6" fill-rule="evenodd"/><path d="M559.883 118.45C543.249 130.449 513.773 130.785 494.047 119.2 490.91 117.357 488.134 115.271 485.793 112.995" stroke="#2E72B0" stroke-width="8" stroke-linecap="round" stroke-miterlimit="8" fill="none" fill-rule="evenodd"/></g></svg>