<svg width="202" height="202" xmlns="http://www.w3.org/2000/svg" xmlns:xlink="http://www.w3.org/1999/xlink" overflow="hidden"><defs><clipPath id="clip0"><rect x="621" y="367" width="202" height="202"/></clipPath></defs><g clip-path="url(#clip0)" transform="translate(-621 -367)"><path d="M626 468C626 414.981 668.981 372 722 372 775.019 372 818 414.981 818 468 818 521.019 775.019 564 722 564 668.981 564 626 521.019 626 468Z" stroke="#9EC4E6" stroke-width="8" stroke-miterlimit="8" fill="#FFFFFF" fill-rule="evenodd"/><path d="M768.771 456.733C775.822 482.288 760.822 508.72 735.267 515.771 709.712 522.822 683.28 507.822 676.229 482.267 669.178 456.712 684.178 430.28 709.733 423.229 717.473 421.094 725.625 420.934 733.443 422.764" stroke="#2E72B0" stroke-width="8.66667" stroke-linecap="round" stroke-miterlimit="8" fill="none" fill-rule="evenodd"/><path d="M752.5 456C750.015 456 748 453.985 748 451.5L748 425.5C748 423.015 750.015 421 752.5 421L752.5 421C754.985 421 757 423.015 757 425.5L757 451.5C757 453.985 754.985 456 752.5 456Z" fill="#2E72B0" fill-rule="evenodd"/><path d="M735 438.5C735 436.015 737.015 434 739.5 434L765.5 434C767.985 434 770 436.015 770 438.5L770 438.5C770 440.985 767.985 443 765.5 443L739.5 443C737.015 443 735 440.985 735 438.5Z" fill="#2E72B0" fill-rule="evenodd"/><path d="M687 470C687 467.791 688.791 466 691 466L722 466C724.209 466 726 467.791 726 470L726 470C726 472.209 724.209 474 722 474L691 474C688.791 474 687 472.209 687 470Z" fill="#9EC4E6" fill-rule="evenodd"/><path d="M721.5 439C723.985 439 726 441.015 726 443.5L726 469.5C726 471.985 723.985 474 721.5 474L721.5 474C719.015 474 717 471.985 717 469.5L717 443.5C717 441.015 719.015 439 721.5 439Z" fill="#9EC4E6" fill-rule="evenodd"/></g></svg>