<svg width="201" height="202" xmlns="http://www.w3.org/2000/svg" xmlns:xlink="http://www.w3.org/1999/xlink" overflow="hidden"><defs><clipPath id="clip0"><rect x="358" y="367" width="201" height="202"/></clipPath></defs><g clip-path="url(#clip0)" transform="translate(-358 -367)"><path d="M363 468C363 414.981 405.981 372 459 372 512.019 372 555 414.981 555 468 555 521.019 512.019 564 459 564 405.981 564 363 521.019 363 468Z" stroke="#9EC4E6" stroke-width="8" stroke-miterlimit="8" fill="#FFFFFF" fill-rule="evenodd"/><path d="M431.5 534C429.015 534 427 531.985 427 529.5L427 408.5C427 406.015 429.015 404 431.5 404L431.5 404C433.985 404 436 406.015 436 408.5L436 529.5C436 531.985 433.985 534 431.5 534Z" fill="#9EC4E6" fill-rule="evenodd"/><path d="M448.166 424.199C446.482 425.883 443.75 425.883 442.066 424.199L428.847 410.98C427.162 409.295 427.162 406.564 428.847 404.879L428.847 404.879C430.532 403.195 433.263 403.195 434.948 404.879L448.166 418.098C449.851 419.783 449.851 422.514 448.166 424.199Z" fill="#9EC4E6" fill-rule="evenodd"/><path d="M415.35 424.199C413.666 422.514 413.665 419.783 415.35 418.098L428.569 404.879C430.253 403.195 432.985 403.195 434.669 404.879L434.669 404.879C436.354 406.564 436.354 409.295 434.669 410.98L421.451 424.198C419.766 425.883 417.035 425.883 415.35 424.198Z" fill="#9EC4E6" fill-rule="evenodd"/><path d="M431.5 534C429.015 534 427 531.985 427 529.5L427 503.5C427 501.015 429.015 499 431.5 499L431.5 499C433.985 499 436 501.015 436 503.5L436 529.5C436 531.985 433.985 534 431.5 534Z" fill="#2E72B0" fill-rule="evenodd"/><path d="M432.5 502.5C432.5 490.474 444.431 479.898 461.762 476.56" stroke="#2E72B0" stroke-width="8.66667" stroke-linecap="round" stroke-miterlimit="8" fill="none" fill-rule="evenodd"/><path d="M491.5 450C491.5 462.199 479.665 472.939 462.43 476.382" stroke="#2E72B0" stroke-width="8.66667" stroke-linecap="round" stroke-miterlimit="8" fill="none" fill-rule="evenodd"/><path d="M491.5 453C489.015 453 487 450.985 487 448.5L487 408.5C487 406.015 489.015 404 491.5 404L491.5 404C493.985 404 496 406.015 496 408.5L496 448.5C496 450.985 493.985 453 491.5 453Z" fill="#2E72B0" fill-rule="evenodd"/><path d="M507.88 424.798C506.196 426.483 503.464 426.483 501.78 424.798L488.561 411.58C486.876 409.895 486.876 407.164 488.561 405.479L488.561 405.479C490.246 403.795 492.977 403.795 494.662 405.479L507.88 418.698C509.565 420.383 509.565 423.114 507.88 424.799Z" fill="#2E72B0" fill-rule="evenodd"/><path d="M475.064 424.798C473.38 423.114 473.38 420.383 475.064 418.698L488.283 405.479C489.967 403.795 492.699 403.795 494.383 405.479L494.383 405.479C496.068 407.164 496.068 409.895 494.383 411.58L481.165 424.798C479.48 426.483 476.749 426.483 475.064 424.798Z" fill="#2E72B0" fill-rule="evenodd"/></g></svg>