<svg width="202" height="202" xmlns="http://www.w3.org/2000/svg" xmlns:xlink="http://www.w3.org/1999/xlink" overflow="hidden"><defs><clipPath id="clip0"><rect x="861" y="367" width="202" height="202"/></clipPath></defs><g clip-path="url(#clip0)" transform="translate(-861 -367)"><path d="M866 468C866 414.981 908.981 372 962 372 1015.02 372 1058 414.981 1058 468 1058 521.019 1015.02 564 962 564 908.981 564 866 521.019 866 468Z" stroke="#9EC4E6" stroke-width="8" stroke-miterlimit="8" fill="#FFFFFF" fill-rule="evenodd"/><path d="M1035.71 441.414C1036.77 442.744 1036.55 444.68 1035.22 445.739L956.19 508.694C954.86 509.753 952.923 509.534 951.864 508.204L944.193 498.574C943.133 497.244 943.353 495.307 944.682 494.248L1023.71 431.294C1025.04 430.235 1026.98 430.454 1028.04 431.784Z" fill="#DAE9F6" fill-rule="evenodd"/><path d="M928 506C928 497.716 935.387 491 944.5 491 953.613 491 961 497.716 961 506 961 514.284 953.613 521 944.5 521 935.387 521 928 514.284 928 506Z" fill="#DAE9F6" fill-rule="evenodd"/><path d="M895.54 453.505C896.719 452.281 898.668 452.244 899.893 453.423L942.997 494.931C944.222 496.11 944.258 498.059 943.079 499.284L934.539 508.152C933.36 509.377 931.411 509.414 930.186 508.234L887.082 466.727C885.857 465.548 885.821 463.599 887 462.374Z" fill="#DAE9F6" fill-rule="evenodd"/><path d="M954.221 518.078C952.486 516.801 952.115 514.359 953.391 512.624 954.668 510.889 957.11 510.518 958.845 511.795 960.58 513.071 960.951 515.513 959.674 517.248 958.398 518.983 955.956 519.354 954.221 518.078Z" fill="#2E72B0" fill-rule="evenodd"/><path d="M0 0 0.348871 2.83045" stroke="#9EC4E6" stroke-width="1.33333" stroke-linecap="round" stroke-miterlimit="8" fill="#2E72B0" fill-rule="evenodd" transform="matrix(-1 0 0 1 959.849 507.5)"/><path d="M962.491 504.779C960.809 506.125 958.354 505.852 957.009 504.169 955.664 502.487 955.937 500.032 957.619 498.687 959.301 497.342 961.756 497.615 963.101 499.297 964.447 500.979 964.174 503.434 962.491 504.779Z" fill="#2E72B0" fill-rule="evenodd"/><path d="M954.287 494.52C952.604 495.866 950.15 495.592 948.804 493.91 947.459 492.228 947.732 489.773 949.414 488.428 951.097 487.083 953.551 487.356 954.897 489.038 956.242 490.72 955.969 493.175 954.287 494.52Z" fill="#2E72B0" fill-rule="evenodd"/><path d="M972.491 496.829C970.809 498.175 968.355 497.902 967.009 496.219 965.664 494.537 965.937 492.083 967.619 490.737 969.302 489.392 971.756 489.665 973.101 491.347 974.447 493.029 974.174 495.484 972.491 496.829Z" fill="#2E72B0" fill-rule="evenodd"/><path d="M964.368 486.672C962.685 488.017 960.231 487.744 958.885 486.062 957.54 484.379 957.813 481.925 959.495 480.579 961.178 479.234 963.632 479.507 964.978 481.189 966.323 482.872 966.05 485.326 964.368 486.672Z" fill="#2E72B0" fill-rule="evenodd"/><path d="M982.843 488.551C981.16 489.896 978.706 489.623 977.36 487.941 976.015 486.259 976.288 483.804 977.97 482.459 979.653 481.113 982.107 481.386 983.453 483.069 984.798 484.751 984.525 487.206 982.843 488.551Z" fill="#2E72B0" fill-rule="evenodd"/><path d="M974.719 478.393C973.037 479.739 970.582 479.465 969.237 477.783 967.891 476.101 968.164 473.646 969.847 472.301 971.529 470.956 973.983 471.229 975.329 472.911 976.674 474.593 976.401 477.048 974.719 478.393Z" fill="#2E72B0" fill-rule="evenodd"/><path d="M963.863 498.901 966.057 497.147" stroke="#9EC4E6" stroke-width="1.33333" stroke-linecap="round" stroke-miterlimit="8" fill="#2E72B0" fill-rule="evenodd"/><path d="M955.871 488.906 958.064 487.152" stroke="#9EC4E6" stroke-width="1.33333" stroke-linecap="round" stroke-miterlimit="8" fill="#2E72B0" fill-rule="evenodd"/><path d="M974.139 490.683 976.332 488.929" stroke="#9EC4E6" stroke-width="1.33333" stroke-linecap="round" stroke-miterlimit="8" fill="#2E72B0" fill-rule="evenodd"/><path d="M966.146 480.689 968.339 478.935" stroke="#9EC4E6" stroke-width="1.33333" stroke-linecap="round" stroke-miterlimit="8" fill="#2E72B0" fill-rule="evenodd"/><path d="M975.068 479.828 976.822 482.021" stroke="#9EC4E6" stroke-width="1.33333" stroke-linecap="round" stroke-miterlimit="8" fill="#2E72B0" fill-rule="evenodd"/><path d="M964.512 488.104 966.266 490.298" stroke="#9EC4E6" stroke-width="1.33333" stroke-linecap="round" stroke-miterlimit="8" fill="#2E72B0" fill-rule="evenodd"/><path d="M954.661 495.983 956.415 498.176" stroke="#9EC4E6" stroke-width="1.33333" stroke-linecap="round" stroke-miterlimit="8" fill="#2E72B0" fill-rule="evenodd"/><path d="M993.222 480.25C991.54 481.596 989.085 481.322 987.74 479.64 986.394 477.958 986.667 475.503 988.35 474.158 990.032 472.813 992.486 473.086 993.832 474.768 995.177 476.45 994.904 478.905 993.222 480.25Z" fill="#2E72B0" fill-rule="evenodd"/><path d="M985.098 470.092C983.416 471.438 980.961 471.165 979.616 469.482 978.271 467.8 978.544 465.346 980.226 464 981.908 462.655 984.363 462.928 985.708 464.61 987.054 466.292 986.781 468.747 985.098 470.092Z" fill="#2E72B0" fill-rule="evenodd"/><path d="M1003.57 471.972C1001.89 473.317 999.436 473.044 998.091 471.362 996.746 469.679 997.019 467.225 998.701 465.88 1000.38 464.534 1002.84 464.807 1004.18 466.49 1005.53 468.172 1005.26 470.626 1003.57 471.972Z" fill="#2E72B0" fill-rule="evenodd"/><path d="M995.449 461.814C993.767 463.159 991.313 462.886 989.967 461.204 988.622 459.522 988.895 457.067 990.577 455.722 992.26 454.376 994.714 454.649 996.059 456.332 997.405 458.014 997.132 460.469 995.449 461.814Z" fill="#2E72B0" fill-rule="evenodd"/><path d="M984.462 482.427 986.655 480.673" stroke="#9EC4E6" stroke-width="1.33333" stroke-linecap="round" stroke-miterlimit="8" fill="#2E72B0" fill-rule="evenodd"/><path d="M976.47 472.433 978.663 470.679" stroke="#9EC4E6" stroke-width="1.33333" stroke-linecap="round" stroke-miterlimit="8" fill="#2E72B0" fill-rule="evenodd"/><path d="M994.87 474.104 997.063 472.35" stroke="#9EC4E6" stroke-width="1.33333" stroke-linecap="round" stroke-miterlimit="8" fill="#2E72B0" fill-rule="evenodd"/><path d="M986.877 464.109 989.07 462.355" stroke="#9EC4E6" stroke-width="1.33333" stroke-linecap="round" stroke-miterlimit="8" fill="#2E72B0" fill-rule="evenodd"/><path d="M995.799 463.249 997.553 465.442" stroke="#9EC4E6" stroke-width="1.33333" stroke-linecap="round" stroke-miterlimit="8" fill="#2E72B0" fill-rule="evenodd"/><path d="M985.243 471.525 986.997 473.718" stroke="#9EC4E6" stroke-width="1.33333" stroke-linecap="round" stroke-miterlimit="8" fill="#2E72B0" fill-rule="evenodd"/><path d="M1013.8 463.791C1012.12 465.137 1009.67 464.863 1008.32 463.181 1006.97 461.499 1007.25 459.044 1008.93 457.699 1010.61 456.354 1013.07 456.627 1014.41 458.309 1015.76 459.991 1015.48 462.446 1013.8 463.791Z" fill="#2E72B0" fill-rule="evenodd"/><path d="M1005.68 453.633C1004 454.979 1001.54 454.706 1000.2 453.023 998.851 451.341 999.124 448.887 1000.81 447.541 1002.49 446.196 1004.94 446.469 1006.29 448.151 1007.63 449.833 1007.36 452.288 1005.68 453.633Z" fill="#2E72B0" fill-rule="evenodd"/><path d="M1024.15 455.513C1022.47 456.858 1020.02 456.585 1018.67 454.903 1017.33 453.22 1017.6 450.766 1019.28 449.421 1020.96 448.075 1023.42 448.348 1024.76 450.031 1026.11 451.713 1025.84 454.167 1024.15 455.513Z" fill="#2E72B0" fill-rule="evenodd"/><path d="M1016.03 445.355C1014.35 446.7 1011.89 446.427 1010.55 444.745 1009.2 443.063 1009.48 440.608 1011.16 439.263 1012.84 437.917 1015.29 438.19 1016.64 439.873 1017.99 441.555 1017.71 444.009 1016.03 445.355Z" fill="#2E72B0" fill-rule="evenodd"/><path d="M1005.04 465.968 1007.24 464.214" stroke="#9EC4E6" stroke-width="1.33333" stroke-linecap="round" stroke-miterlimit="8" fill="#2E72B0" fill-rule="evenodd"/><path d="M997.535 455.586 999.728 453.832" stroke="#9EC4E6" stroke-width="1.33333" stroke-linecap="round" stroke-miterlimit="8" fill="#2E72B0" fill-rule="evenodd"/><path d="M1015.41 457.678 1017.6 455.924" stroke="#9EC4E6" stroke-width="1.33333" stroke-linecap="round" stroke-miterlimit="8" fill="#2E72B0" fill-rule="evenodd"/><path d="M1007.42 447.684 1009.61 445.93" stroke="#9EC4E6" stroke-width="1.33333" stroke-linecap="round" stroke-miterlimit="8" fill="#2E72B0" fill-rule="evenodd"/><path d="M1016.86 446.402 1018.62 448.595" stroke="#9EC4E6" stroke-width="1.33333" stroke-linecap="round" stroke-miterlimit="8" fill="#2E72B0" fill-rule="evenodd"/><path d="M1005.82 455.066 1007.58 457.259" stroke="#9EC4E6" stroke-width="1.33333" stroke-linecap="round" stroke-miterlimit="8" fill="#2E72B0" fill-rule="evenodd"/><path d="M928.61 497.42C930.712 497.889 932.036 499.974 931.566 502.077 931.097 504.179 929.012 505.503 926.909 505.033 924.807 504.563 923.484 502.478 923.953 500.376 924.423 498.274 926.508 496.95 928.61 497.42Z" fill="#2E72B0" fill-rule="evenodd"/><path d="M928.793 479.217C930.366 480.688 930.45 483.156 928.978 484.73 927.507 486.303 925.039 486.386 923.466 484.915 921.892 483.444 921.809 480.976 923.28 479.402 924.751 477.829 927.219 477.746 928.793 479.217Z" fill="#2E72B0" fill-rule="evenodd"/><path d="M919.91 488.718C921.484 490.189 921.567 492.658 920.096 494.231 918.625 495.805 916.157 495.888 914.583 494.417 913.009 492.946 912.926 490.477 914.397 488.904 915.869 487.33 918.337 487.247 919.91 488.718Z" fill="#2E72B0" fill-rule="evenodd"/><path d="M932.156 487.523 930.104 485.605" stroke="#9EC4E6" stroke-width="1.33333" stroke-linecap="round" stroke-miterlimit="8" fill="#2E72B0" fill-rule="evenodd"/><path d="M923.416 496.871 921.365 494.954" stroke="#9EC4E6" stroke-width="1.33333" stroke-linecap="round" stroke-miterlimit="8" fill="#2E72B0" fill-rule="evenodd"/><path d="M921.28 488.166 923.198 486.115" stroke="#9EC4E6" stroke-width="1.33333" stroke-linecap="round" stroke-miterlimit="8" fill="#2E72B0" fill-rule="evenodd"/><path d="M919.084 470.141C920.658 471.612 920.741 474.08 919.27 475.654 917.799 477.227 915.331 477.31 913.757 475.839 912.184 474.368 912.1 471.9 913.572 470.326 915.043 468.753 917.511 468.67 919.084 470.141Z" fill="#2E72B0" fill-rule="evenodd"/><path d="M910.202 479.642C911.776 481.113 911.859 483.581 910.387 485.155 908.916 486.729 906.448 486.812 904.875 485.341 903.301 483.869 903.218 481.401 904.689 479.828 906.16 478.254 908.628 478.171 910.202 479.642Z" fill="#2E72B0" fill-rule="evenodd"/><path d="M909.402 461.089C910.976 462.56 911.059 465.028 909.588 466.602 908.117 468.175 905.648 468.259 904.075 466.787 902.501 465.316 902.418 462.848 903.889 461.275 905.36 459.701 907.829 459.618 909.402 461.089Z" fill="#2E72B0" fill-rule="evenodd"/><path d="M900.52 470.59C902.093 472.061 902.176 474.53 900.705 476.103 899.234 477.677 896.766 477.76 895.192 476.289 893.619 474.818 893.536 472.349 895.007 470.776 896.478 469.202 898.946 469.119 900.52 470.59Z" fill="#2E72B0" fill-rule="evenodd"/><path d="M922.499 478.496 920.448 476.578" stroke="#9EC4E6" stroke-width="1.33333" stroke-linecap="round" stroke-miterlimit="8" fill="#2E72B0" fill-rule="evenodd"/><path d="M913.76 487.844 911.708 485.926" stroke="#9EC4E6" stroke-width="1.33333" stroke-linecap="round" stroke-miterlimit="8" fill="#2E72B0" fill-rule="evenodd"/><path d="M912.765 469.395 910.713 467.477" stroke="#9EC4E6" stroke-width="1.33333" stroke-linecap="round" stroke-miterlimit="8" fill="#2E72B0" fill-rule="evenodd"/><path d="M904.025 478.743 901.974 476.826" stroke="#9EC4E6" stroke-width="1.33333" stroke-linecap="round" stroke-miterlimit="8" fill="#2E72B0" fill-rule="evenodd"/><path d="M901.889 470.038 903.807 467.987" stroke="#9EC4E6" stroke-width="1.33333" stroke-linecap="round" stroke-miterlimit="8" fill="#2E72B0" fill-rule="evenodd"/><path d="M911.599 479.293 913.517 477.241" stroke="#9EC4E6" stroke-width="1.33333" stroke-linecap="round" stroke-miterlimit="8" fill="#2E72B0" fill-rule="evenodd"/><path d="M899.834 452.144C901.408 453.615 901.491 456.083 900.02 457.657 898.549 459.231 896.08 459.314 894.507 457.843 892.933 456.371 892.85 453.903 894.321 452.33 895.792 450.756 898.261 450.673 899.834 452.144Z" fill="#2E72B0" fill-rule="evenodd"/><path d="M890.951 461.645C892.525 463.117 892.608 465.585 891.137 467.158 889.666 468.732 887.198 468.815 885.624 467.344 884.051 465.873 883.967 463.405 885.439 461.831 886.91 460.257 889.378 460.174 890.951 461.645Z" fill="#2E72B0" fill-rule="evenodd"/><path d="M903.249 460.499 901.197 458.581" stroke="#9EC4E6" stroke-width="1.33333" stroke-linecap="round" stroke-miterlimit="8" fill="#2E72B0" fill-rule="evenodd"/><path d="M894.056 469.423 892.004 467.505" stroke="#9EC4E6" stroke-width="1.33333" stroke-linecap="round" stroke-miterlimit="8" fill="#2E72B0" fill-rule="evenodd"/><path d="M892.349 461.296 894.266 459.245" stroke="#9EC4E6" stroke-width="1.33333" stroke-linecap="round" stroke-miterlimit="8" fill="#2E72B0" fill-rule="evenodd"/><path d="M941.509 523.531C939.775 522.254 939.403 519.813 940.68 518.078 941.957 516.343 944.398 515.971 946.133 517.248 947.868 518.525 948.24 520.966 946.963 522.701 945.686 524.436 943.244 524.808 941.509 523.531Z" fill="#2E72B0" fill-rule="evenodd"/><path d="M930.286 518.078C928.551 516.801 928.179 514.359 929.456 512.624 930.733 510.889 933.174 510.518 934.909 511.795 936.644 513.071 937.016 515.513 935.739 517.248 934.462 518.983 932.021 519.354 930.286 518.078Z" fill="#2E72B0" fill-rule="evenodd"/><path d="M934.26 494.732C932.525 493.456 932.153 491.014 933.43 489.279 934.707 487.544 937.148 487.173 938.883 488.449 940.618 489.726 940.99 492.168 939.713 493.903 938.436 495.638 935.995 496.009 934.26 494.732Z" fill="#2E72B0" fill-rule="evenodd"/><path d="M1020.28 428.327C1021.96 426.981 1024.42 427.255 1025.76 428.937 1027.11 430.619 1026.84 433.074 1025.15 434.419 1023.47 435.764 1021.02 435.491 1019.67 433.809 1018.33 432.127 1018.6 429.672 1020.28 428.327Z" fill="#2E72B0" fill-rule="evenodd"/><path d="M1032.57 443.543C1034.25 442.198 1036.71 442.471 1038.05 444.153 1039.4 445.836 1039.13 448.29 1037.44 449.636 1035.76 450.981 1033.31 450.708 1031.96 449.026 1030.62 447.343 1030.89 444.889 1032.57 443.543Z" fill="#2E72B0" fill-rule="evenodd"/><path d="M1031.15 432.138C1032.83 430.792 1035.28 431.066 1036.63 432.748 1037.97 434.43 1037.7 436.885 1036.02 438.23 1034.34 439.576 1031.88 439.302 1030.54 437.62 1029.19 435.938 1029.46 433.483 1031.15 432.138Z" fill="#2E72B0" fill-rule="evenodd"/><path d="M1019.79 435.335 1017.65 437.874" stroke="#9EC4E6" stroke-width="1.33333" stroke-linecap="round" stroke-miterlimit="8" fill="#2E72B0" fill-rule="evenodd"/><path d="M0 0 0.644304 3.25932" stroke="#9EC4E6" stroke-width="1.33333" stroke-linecap="round" stroke-miterlimit="8" fill="#2E72B0" fill-rule="evenodd" transform="matrix(-0.624575 -0.780965 -0.780965 0.624575 1030.51 448.736)"/><path d="M947.598 491.5 942.5 491.5" stroke="#9EC4E6" stroke-width="1.33333" stroke-linecap="round" stroke-miterlimit="8" fill="#2E72B0" fill-rule="evenodd"/><path d="M0 0 2.57596 0.882835" stroke="#9EC4E6" stroke-width="1.33333" stroke-linecap="round" stroke-miterlimit="8" fill="#2E72B0" fill-rule="evenodd" transform="matrix(-1 0 0 1 952.076 518.5)"/><path d="M929.5 506.5 930.491 509.767" stroke="#9EC4E6" stroke-width="1.33333" stroke-linecap="round" stroke-miterlimit="8" fill="#2E72B0" fill-rule="evenodd"/><path d="M938.881 518.594 936.508 517.671" stroke="#9EC4E6" stroke-width="1.33333" stroke-linecap="round" stroke-miterlimit="8" fill="#2E72B0" fill-rule="evenodd"/><path d="M930.615 496.904 932.533 494.852" stroke="#9EC4E6" stroke-width="1.33333" stroke-linecap="round" stroke-miterlimit="8" fill="#2E72B0" fill-rule="evenodd"/></g></svg>