<svg width="201" height="202" xmlns="http://www.w3.org/2000/svg" xmlns:xlink="http://www.w3.org/1999/xlink" overflow="hidden"><defs><clipPath id="clip0"><rect x="82" y="367" width="201" height="202"/></clipPath></defs><g clip-path="url(#clip0)" transform="translate(-82 -367)"><path d="M87 468C87 414.981 129.981 372 183 372 236.019 372 279 414.981 279 468 279 521.019 236.019 564 183 564 129.981 564 87 521.019 87 468Z" stroke="#9EC4E6" stroke-width="8" stroke-miterlimit="8" fill="#FFFFFF" fill-rule="evenodd"/><path d="M159.196 485.448C157.511 483.763 157.511 481.032 159.196 479.347L172.892 465.651C174.577 463.966 177.308 463.966 178.993 465.651L178.993 465.651C180.677 467.335 180.677 470.067 178.993 471.751L165.296 485.448C163.612 487.132 160.88 487.132 159.196 485.448Z" fill="#9EC4E6" fill-rule="evenodd"/><path d="M134.549 455.013C136.234 453.328 138.965 453.328 140.65 455.013L164.984 479.347C166.668 481.032 166.668 483.763 164.984 485.448L164.984 485.448C163.299 487.132 160.568 487.132 158.883 485.448L134.549 461.113C132.864 459.429 132.864 456.698 134.549 455.013Z" fill="#9EC4E6" fill-rule="evenodd"/><path d="M120.55 474.81C118.865 473.125 118.865 470.394 120.55 468.709L134.246 455.013C135.931 453.328 138.662 453.328 140.347 455.013L140.347 455.013C142.031 456.697 142.031 459.429 140.347 461.113L126.65 474.81C124.966 476.494 122.234 476.494 120.55 474.81Z" fill="#9EC4E6" fill-rule="evenodd"/><path d="M172 468.5C172 466.015 174.015 464 176.5 464L240.5 464C242.985 464 245 466.015 245 468.5L245 468.5C245 470.985 242.985 473 240.5 473L176.5 473C174.015 473 172 470.985 172 468.5Z" fill="#2E72B0" fill-rule="evenodd"/><path d="M212.945 441.047C214.629 439.362 217.36 439.362 219.045 441.047L243.379 465.381C245.064 467.066 245.064 469.797 243.379 471.482L243.379 471.482C241.695 473.167 238.963 473.167 237.279 471.482L212.945 447.148C211.26 445.463 211.26 442.732 212.945 441.047Z" fill="#2E72B0" fill-rule="evenodd"/><path d="M212.945 496.286C211.26 494.601 211.26 491.87 212.945 490.185L237.279 465.851C238.964 464.166 241.695 464.166 243.379 465.851L243.379 465.851C245.064 467.535 245.064 470.267 243.379 471.951L219.045 496.286C217.361 497.97 214.629 497.97 212.945 496.286Z" fill="#2E72B0" fill-rule="evenodd"/></g></svg>