<svg width="495" height="477" xmlns="http://www.w3.org/2000/svg" xmlns:xlink="http://www.w3.org/1999/xlink" overflow="hidden"><defs><clipPath id="clip0"><rect x="419" y="57" width="495" height="477"/></clipPath><linearGradient x1="666" y1="517" x2="666" y2="58" gradientUnits="userSpaceOnUse" spreadMethod="reflect" id="fill1"><stop offset="0" stop-color="#F6F8FC" stop-opacity="0.368627"/><stop offset="0.73" stop-color="#FFFFFF" stop-opacity="0"/><stop offset="1" stop-color="#FFFFFF" stop-opacity="0"/></linearGradient></defs><g clip-path="url(#clip0)" transform="translate(-419 -57)"><path d="M626.497 283.755C628.768 281.484 632.45 281.484 634.721 283.755L651.17 300.204C653.441 302.475 653.441 306.158 651.17 308.429L490.186 469.412C487.915 471.684 484.233 471.684 481.962 469.412L465.513 452.964C463.242 450.692 463.242 447.01 465.513 444.739Z" fill="#FFDFC5" fill-rule="evenodd"/><path d="M463.679 311.568C461.408 309.297 461.408 305.614 463.679 303.343L480.128 286.894C482.399 284.623 486.081 284.623 488.352 286.894L649.336 447.878C651.607 450.149 651.607 453.831 649.336 456.103L632.887 472.551C630.616 474.823 626.934 474.823 624.662 472.551Z" fill="#FFDFC5" fill-rule="evenodd"/><path d="M443.833 395C440.612 395 438 392.388 438 389.167L438 365.833C438 362.612 440.612 360 443.833 360L671.167 360C674.388 360 677 362.612 677 365.833L677 389.167C677 392.388 674.388 395 671.167 395Z" fill="#FFDFC5" fill-rule="evenodd"/><path d="M540 264.833C540 261.612 542.612 259 545.833 259L569.167 259C572.388 259 575 261.612 575 264.833L575 491.167C575 494.388 572.388 497 569.167 497L545.833 497C542.612 497 540 494.388 540 491.167Z" fill="#FFDFC5" fill-rule="evenodd"/><path d="M470 379C470 330.399 509.399 291 558 291 606.601 291 646 330.399 646 379 646 427.601 606.601 467 558 467 509.399 467 470 427.601 470 379Z" fill="#FFDFC5" fill-rule="evenodd"/><path d="M531 498.5C531 492.701 535.701 488 541.5 488 547.299 488 552 492.701 552 498.5 552 504.299 547.299 509 541.5 509 535.701 509 531 504.299 531 498.5Z" fill="#FF9F4F" fill-rule="evenodd"/><path d="M566 498.5C566 492.701 570.701 488 576.5 488 582.299 488 587 492.701 587 498.5 587 504.299 582.299 509 576.5 509 570.701 509 566 504.299 566 498.5Z" fill="#FF9F4F" fill-rule="evenodd"/><path d="M541.5 477.5 541.5 484.99" stroke="#FF9F4F" stroke-width="1.33333" stroke-linecap="round" stroke-miterlimit="8" fill="#FF9F4F" fill-rule="evenodd"/><path d="M575.5 477.5 575.5 484.99" stroke="#FF9F4F" stroke-width="1.33333" stroke-linecap="round" stroke-miterlimit="8" fill="#FF9F4F" fill-rule="evenodd"/><path d="M562.99 497.5 555.5 497.5" stroke="#FF9F4F" stroke-width="1.33333" stroke-linecap="round" stroke-miterlimit="8" fill="#FF9F4F" fill-rule="evenodd"/><path d="M531 462.5C531 456.701 535.701 452 541.5 452 547.299 452 552 456.701 552 462.5 552 468.299 547.299 473 541.5 473 535.701 473 531 468.299 531 462.5Z" fill="#FF9F4F" fill-rule="evenodd"/><path d="M566 462.5C566 456.701 570.477 452 576 452 581.523 452 586 456.701 586 462.5 586 468.299 581.523 473 576 473 570.477 473 566 468.299 566 462.5Z" fill="#FF9F4F" fill-rule="evenodd"/><path d="M597.249 460.547C593.186 456.485 593.186 449.898 597.249 445.836 601.311 441.774 607.897 441.774 611.959 445.836 616.021 449.898 616.021 456.485 611.959 460.547 607.897 464.609 601.311 464.609 597.249 460.547Z" fill="#FF9F4F" fill-rule="evenodd"/><path d="M621.645 436.002C617.583 431.939 617.583 425.353 621.645 421.291 625.708 417.229 632.294 417.229 636.356 421.291 640.418 425.353 640.418 431.939 636.356 436.002 632.294 440.064 625.708 440.064 621.645 436.002Z" fill="#FF9F4F" fill-rule="evenodd"/><path d="M644 407C638.477 407 634 402.299 634 396.5 634 390.701 638.477 386 644 386 649.523 386 654 390.701 654 396.5 654 402.299 649.523 407 644 407Z" fill="#FF9F4F" fill-rule="evenodd"/><path d="M643.5 372C637.701 372 633 367.299 633 361.5 633 355.701 637.701 351 643.5 351 649.299 351 654 355.701 654 361.5 654 367.299 649.299 372 643.5 372Z" fill="#FF9F4F" fill-rule="evenodd"/><path d="M638.543 334.85C634.48 338.912 627.894 338.912 623.832 334.85 619.77 330.787 619.77 324.201 623.832 320.139 627.894 316.077 634.48 316.077 638.543 320.139 642.605 324.201 642.605 330.787 638.543 334.85Z" fill="#FF9F4F" fill-rule="evenodd"/><path d="M613.997 310.453C609.935 314.515 603.349 314.515 599.287 310.453 595.225 306.39 595.225 299.804 599.287 295.742 603.349 291.68 609.935 291.68 613.997 295.742 618.06 299.804 618.06 306.39 613.997 310.453Z" fill="#FF9F4F" fill-rule="evenodd"/><path d="M585 294C585 299.523 580.299 304 574.5 304 568.701 304 564 299.523 564 294 564 288.477 568.701 284 574.5 284 580.299 284 585 288.477 585 294Z" fill="#FF9F4F" fill-rule="evenodd"/><path d="M551 294C551 299.523 546.299 304 540.5 304 534.701 304 530 299.523 530 294 530 288.477 534.701 284 540.5 284 546.299 284 551 288.477 551 294Z" fill="#FF9F4F" fill-rule="evenodd"/><path d="M516.954 299.398C521.016 303.461 521.016 310.047 516.954 314.109 512.892 318.171 506.306 318.171 502.243 314.109 498.181 310.047 498.181 303.461 502.243 299.398 506.306 295.336 512.892 295.336 516.954 299.398Z" fill="#FF9F4F" fill-rule="evenodd"/><path d="M492.557 323.943C496.619 328.006 496.619 334.592 492.557 338.654 488.495 342.716 481.909 342.716 477.847 338.654 473.784 334.592 473.784 328.006 477.847 323.943 481.909 319.881 488.495 319.881 492.557 323.943Z" fill="#FF9F4F" fill-rule="evenodd"/><path d="M472.5 350C478.299 350 483 354.701 483 360.5 483 366.299 478.299 371 472.5 371 466.701 371 462 366.299 462 360.5 462 354.701 466.701 350 472.5 350Z" fill="#FF9F4F" fill-rule="evenodd"/><path d="M472.5 384C478.299 384 483 388.701 483 394.5 483 400.299 478.299 405 472.5 405 466.701 405 462 400.299 462 394.5 462 388.701 466.701 384 472.5 384Z" fill="#FF9F4F" fill-rule="evenodd"/><path d="M477.811 418.212C481.873 414.15 488.459 414.15 492.521 418.212 496.584 422.274 496.584 428.861 492.521 432.923 488.459 436.985 481.873 436.985 477.811 432.923 473.749 428.861 473.749 422.274 477.811 418.212Z" fill="#FF9F4F" fill-rule="evenodd"/><path d="M502.356 442.609C506.418 438.547 513.004 438.547 517.066 442.609 521.129 446.671 521.129 453.257 517.066 457.32 513.004 461.382 506.418 461.382 502.356 457.32 498.294 453.257 498.294 446.671 502.356 442.609Z" fill="#FF9F4F" fill-rule="evenodd"/><path d="M623.776 484.865C619.714 480.803 619.714 474.217 623.776 470.155 627.838 466.093 634.424 466.093 638.486 470.155 642.549 474.217 642.549 480.803 638.486 484.865 634.424 488.928 627.838 488.928 623.776 484.865Z" fill="#FF9F4F" fill-rule="evenodd"/><path d="M648.304 460.338C644.241 456.275 644.241 449.689 648.304 445.627 652.366 441.565 658.952 441.565 663.014 445.627 667.076 449.689 667.076 456.275 663.014 460.338 658.952 464.4 652.366 464.4 648.304 460.338Z" fill="#FF9F4F" fill-rule="evenodd"/><path d="M615.558 462.425 620.854 467.721" stroke="#FF9F4F" stroke-width="1.33333" stroke-linecap="round" stroke-miterlimit="8" fill="#FF9F4F" fill-rule="evenodd"/><path d="M639.691 438.292 644.987 443.588" stroke="#FF9F4F" stroke-width="1.33333" stroke-linecap="round" stroke-miterlimit="8" fill="#FF9F4F" fill-rule="evenodd"/><path d="M644.604 461.687 639.308 466.983" stroke="#FF9F4F" stroke-width="1.33333" stroke-linecap="round" stroke-miterlimit="8" fill="#FF9F4F" fill-rule="evenodd"/><path d="M679 406C673.477 406 669 401.299 669 395.5 669 389.701 673.477 385 679 385 684.523 385 689 389.701 689 395.5 689 401.299 684.523 406 679 406Z" fill="#FF9F4F" fill-rule="evenodd"/><path d="M679 371C673.477 371 669 366.299 669 360.5 669 354.701 673.477 350 679 350 684.523 350 689 354.701 689 360.5 689 366.299 684.523 371 679 371Z" fill="#FF9F4F" fill-rule="evenodd"/><path d="M657.5 396.5 664.99 396.5" stroke="#FF9F4F" stroke-width="1.33333" stroke-linecap="round" stroke-miterlimit="8" fill="#FF9F4F" fill-rule="evenodd"/><path d="M657.5 362.5 664.99 362.5" stroke="#FF9F4F" stroke-width="1.33333" stroke-linecap="round" stroke-miterlimit="8" fill="#FF9F4F" fill-rule="evenodd"/><path d="M677.5 375.5 677.5 382.99" stroke="#FF9F4F" stroke-width="1.33333" stroke-linecap="round" stroke-miterlimit="8" fill="#FF9F4F" fill-rule="evenodd"/><path d="M662.844 309.744C658.782 313.806 652.196 313.806 648.133 309.744 644.071 305.681 644.071 299.095 648.133 295.033 652.196 290.971 658.782 290.971 662.844 295.033 666.906 299.095 666.906 305.681 662.844 309.744Z" fill="#FF9F4F" fill-rule="evenodd"/><path d="M638.316 285.216C634.254 289.278 627.668 289.278 623.606 285.216 619.544 281.153 619.544 274.567 623.606 270.505 627.668 266.443 634.254 266.443 638.316 270.505 642.378 274.567 642.378 281.153 638.316 285.216Z" fill="#FF9F4F" fill-rule="evenodd"/><path d="M640.403 317.961 645.699 312.665" stroke="#FF9F4F" stroke-width="1.33333" stroke-linecap="round" stroke-miterlimit="8" fill="#FF9F4F" fill-rule="evenodd"/><path d="M616.271 293.829 621.567 288.533" stroke="#FF9F4F" stroke-width="1.33333" stroke-linecap="round" stroke-miterlimit="8" fill="#FF9F4F" fill-rule="evenodd"/><path d="M639.665 288.916 644.961 294.212" stroke="#FF9F4F" stroke-width="1.33333" stroke-linecap="round" stroke-miterlimit="8" fill="#FF9F4F" fill-rule="evenodd"/><path d="M585 257.5C585 263.299 580.299 268 574.5 268 568.701 268 564 263.299 564 257.5 564 251.701 568.701 247 574.5 247 580.299 247 585 251.701 585 257.5Z" fill="#FF9F4F" fill-rule="evenodd"/><path d="M550 257.5C550 263.299 545.299 268 539.5 268 533.701 268 529 263.299 529 257.5 529 251.701 533.701 247 539.5 247 545.299 247 550 251.701 550 257.5Z" fill="#FF9F4F" fill-rule="evenodd"/><path d="M575.5 279.99 575.5 272.5" stroke="#FF9F4F" stroke-width="1.33333" stroke-linecap="round" stroke-miterlimit="8" fill="#FF9F4F" fill-rule="evenodd"/><path d="M541.5 279.99 541.5 272.5" stroke="#FF9F4F" stroke-width="1.33333" stroke-linecap="round" stroke-miterlimit="8" fill="#FF9F4F" fill-rule="evenodd"/><path d="M554.5 259.5 561.99 259.5" stroke="#FF9F4F" stroke-width="1.33333" stroke-linecap="round" stroke-miterlimit="8" fill="#FF9F4F" fill-rule="evenodd"/><path d="M489.871 274.798C493.933 278.86 493.933 285.446 489.871 289.508 485.809 293.57 479.222 293.57 475.16 289.508 471.098 285.446 471.098 278.86 475.16 274.798 479.222 270.736 485.809 270.736 489.871 274.798Z" fill="#FF9F4F" fill-rule="evenodd"/><path d="M465.343 299.326C469.405 303.388 469.405 309.974 465.343 314.036 461.281 318.098 454.695 318.098 450.632 314.036 446.57 309.974 446.57 303.388 450.632 299.326 454.695 295.263 461.281 295.263 465.343 299.326Z" fill="#FF9F4F" fill-rule="evenodd"/><path d="M498.088 297.238 492.792 291.943" stroke="#FF9F4F" stroke-width="1.33333" stroke-linecap="round" stroke-miterlimit="8" fill="#FF9F4F" fill-rule="evenodd"/><path d="M473.956 321.371 468.66 316.075" stroke="#FF9F4F" stroke-width="1.33333" stroke-linecap="round" stroke-miterlimit="8" fill="#FF9F4F" fill-rule="evenodd"/><path d="M469.043 297.977 474.339 292.681" stroke="#FF9F4F" stroke-width="1.33333" stroke-linecap="round" stroke-miterlimit="8" fill="#FF9F4F" fill-rule="evenodd"/><path d="M436.5 350C442.299 350 447 354.701 447 360.5 447 366.299 442.299 371 436.5 371 430.701 371 426 366.299 426 360.5 426 354.701 430.701 350 436.5 350Z" fill="#FF9F4F" fill-rule="evenodd"/><path d="M436.5 385C442.299 385 447 389.701 447 395.5 447 401.299 442.299 406 436.5 406 430.701 406 426 401.299 426 395.5 426 389.701 430.701 385 436.5 385Z" fill="#FF9F4F" fill-rule="evenodd"/><path d="M458.99 360.5 451.5 360.5" stroke="#FF9F4F" stroke-width="1.33333" stroke-linecap="round" stroke-miterlimit="8" fill="#FF9F4F" fill-rule="evenodd"/><path d="M458.99 395.5 451.5 395.5" stroke="#FF9F4F" stroke-width="1.33333" stroke-linecap="round" stroke-miterlimit="8" fill="#FF9F4F" fill-rule="evenodd"/><path d="M438.5 381.99 438.5 374.5" stroke="#FF9F4F" stroke-width="1.33333" stroke-linecap="round" stroke-miterlimit="8" fill="#FF9F4F" fill-rule="evenodd"/><path d="M452.954 443.036C457.016 438.974 463.602 438.974 467.664 443.036 471.726 447.099 471.726 453.685 467.664 457.747 463.602 461.809 457.016 461.809 452.954 457.747 448.892 453.685 448.892 447.099 452.954 443.036Z" fill="#FF9F4F" fill-rule="evenodd"/><path d="M477.482 467.564C481.544 463.502 488.13 463.502 492.192 467.564 496.254 471.627 496.254 478.213 492.192 482.275 488.13 486.337 481.544 486.337 477.482 482.275 473.419 478.213 473.419 471.627 477.482 467.564Z" fill="#FF9F4F" fill-rule="evenodd"/><path d="M475.394 434.819 470.099 440.115" stroke="#FF9F4F" stroke-width="1.33333" stroke-linecap="round" stroke-miterlimit="8" fill="#FF9F4F" fill-rule="evenodd"/><path d="M499.527 458.951 494.231 464.247" stroke="#FF9F4F" stroke-width="1.33333" stroke-linecap="round" stroke-miterlimit="8" fill="#FF9F4F" fill-rule="evenodd"/><path d="M476.133 463.864 470.837 458.568" stroke="#FF9F4F" stroke-width="1.33333" stroke-linecap="round" stroke-miterlimit="8" fill="#FF9F4F" fill-rule="evenodd"/><path d="M519.5 378.5C519.5 357.513 536.513 340.5 557.5 340.5 578.487 340.5 595.5 357.513 595.5 378.5 595.5 399.487 578.487 416.5 557.5 416.5 536.513 416.5 519.5 399.487 519.5 378.5Z" stroke="#FF9F4F" stroke-width="1.33333" stroke-miterlimit="8" fill="#FFFFFF" fill-rule="evenodd"/><path d="M818.992 194.066C820.289 191.514 823.408 190.496 825.96 191.792L844.443 201.179C846.995 202.475 848.013 205.595 846.717 208.147L754.842 389.034C753.546 391.586 750.427 392.604 747.875 391.308L729.392 381.921C726.84 380.625 725.822 377.505 727.118 374.953Z" fill="#FFDFC5" fill-rule="evenodd"/><path d="M688.747 262.641C686.195 261.345 685.177 258.226 686.474 255.674L695.861 237.191C697.157 234.639 700.277 233.621 702.829 234.917L883.716 326.792C886.268 328.088 887.286 331.207 885.99 333.759L876.602 352.242C875.306 354.794 872.187 355.812 869.635 354.516Z" fill="#FFDFC5" fill-rule="evenodd"/><path d="M695.188 339.036C692.466 339.924 689.541 338.438 688.653 335.717L682.222 316.01C681.334 313.289 682.82 310.363 685.541 309.475L878.412 246.534C881.133 245.646 884.059 247.132 884.947 249.853L891.378 269.56C892.266 272.281 890.78 275.206 888.059 276.094Z" fill="#FFDFC5" fill-rule="evenodd"/><path d="M740.824 202.147C739.936 199.426 741.422 196.5 744.143 195.612L763.85 189.181C766.571 188.293 769.497 189.779 770.385 192.5L832.837 383.87C833.725 386.591 832.239 389.517 829.518 390.405L809.811 396.836C807.09 397.724 804.164 396.238 803.276 393.517Z" fill="#FFDFC5" fill-rule="evenodd"/><path d="M712.44 317.77C698.995 276.572 721.494 232.275 762.692 218.831 803.89 205.386 848.187 227.885 861.631 269.083 875.076 310.281 852.577 354.577 811.379 368.022 770.181 381.467 725.885 358.968 712.44 317.77Z" fill="#FFDFC5" fill-rule="evenodd"/><path d="M797.527 402.406C795.939 397.539 798.597 392.306 803.464 390.718 808.33 389.13 813.563 391.787 815.152 396.654 816.74 401.521 814.082 406.754 809.215 408.342 804.348 409.93 799.115 407.273 797.527 402.406Z" fill="#FF9F4F" fill-rule="evenodd"/><path d="M826.914 392.816C825.325 387.949 827.983 382.716 832.85 381.128 837.717 379.54 842.95 382.197 844.538 387.064 846.126 391.931 843.468 397.164 838.602 398.752 833.735 400.341 828.502 397.683 826.914 392.816Z" fill="#FF9F4F" fill-rule="evenodd"/><path d="M800.054 381.26 802.125 387.605" stroke="#FF9F4F" stroke-width="1.33333" stroke-linecap="round" stroke-miterlimit="8" fill="#FF9F4F" fill-rule="evenodd"/><path d="M828.967 371.824 831.037 378.169" stroke="#FF9F4F" stroke-width="1.33333" stroke-linecap="round" stroke-miterlimit="8" fill="#FF9F4F" fill-rule="evenodd"/><path d="M823.429 392.395 817.085 394.465" stroke="#FF9F4F" stroke-width="1.33333" stroke-linecap="round" stroke-miterlimit="8" fill="#FF9F4F" fill-rule="evenodd"/><path d="M787.577 371.915C785.989 367.049 788.647 361.816 793.513 360.227 798.38 358.639 803.613 361.297 805.201 366.164 806.79 371.031 804.132 376.264 799.265 377.852 794.398 379.44 789.165 376.782 787.577 371.915Z" fill="#FF9F4F" fill-rule="evenodd"/><path d="M816.866 362.259C815.278 357.392 817.936 352.159 822.803 350.571 827.669 348.983 832.902 351.64 834.491 356.507 836.079 361.374 833.421 366.607 828.554 368.195 823.687 369.783 818.454 367.126 816.866 362.259Z" fill="#FF9F4F" fill-rule="evenodd"/><path d="M843.091 351.925C838.527 349.606 836.706 344.027 839.024 339.462 841.343 334.898 846.922 333.077 851.487 335.395 856.051 337.714 857.872 343.293 855.554 347.858 853.235 352.422 847.656 354.243 843.091 351.925Z" fill="#FF9F4F" fill-rule="evenodd"/><path d="M856.974 324.386C852.409 322.067 850.589 316.488 852.907 311.923 855.225 307.359 860.805 305.538 865.369 307.857 869.934 310.175 871.755 315.754 869.436 320.319 867.118 324.883 861.538 326.704 856.974 324.386Z" fill="#FF9F4F" fill-rule="evenodd"/><path d="M867.776 293.322C862.909 294.91 857.676 292.252 856.088 287.385 854.5 282.518 857.158 277.286 862.025 275.697 866.891 274.109 872.124 276.767 873.713 281.634 875.301 286.501 872.643 291.733 867.776 293.322Z" fill="#FF9F4F" fill-rule="evenodd"/><path d="M858.12 264.032C853.253 265.621 848.02 262.963 846.432 258.096 844.843 253.229 847.501 247.996 852.368 246.408 857.235 244.82 862.468 247.478 864.056 252.344 865.644 257.211 862.986 262.444 858.12 264.032Z" fill="#FF9F4F" fill-rule="evenodd"/><path d="M843.323 234.021C841.005 238.586 835.425 240.407 830.861 238.088 826.297 235.77 824.476 230.19 826.794 225.626 829.112 221.061 834.692 219.241 839.256 221.559 843.821 223.877 845.642 229.457 843.323 234.021Z" fill="#FF9F4F" fill-rule="evenodd"/><path d="M815.784 220.139C813.466 224.703 807.887 226.524 803.322 224.206 798.758 221.887 796.937 216.308 799.255 211.743 801.574 207.179 807.153 205.358 811.718 207.676 816.282 209.995 818.103 215.574 815.784 220.139Z" fill="#FF9F4F" fill-rule="evenodd"/><path d="M786.901 214.102C788.489 218.969 785.831 224.202 780.965 225.79 776.098 227.378 770.865 224.72 769.277 219.853 767.688 214.987 770.346 209.754 775.213 208.165 780.08 206.577 785.313 209.235 786.901 214.102Z" fill="#FF9F4F" fill-rule="evenodd"/><path d="M757.612 223.758C759.2 228.625 756.542 233.858 751.675 235.446 746.808 237.035 741.576 234.377 739.987 229.51 738.399 224.643 741.057 219.41 745.924 217.822 750.791 216.234 756.023 218.892 757.612 223.758Z" fill="#FF9F4F" fill-rule="evenodd"/><path d="M730.516 237.603C735.08 239.921 736.901 245.501 734.583 250.065 732.265 254.63 726.685 256.451 722.121 254.132 717.556 251.814 715.735 246.234 718.054 241.67 720.372 237.106 725.951 235.285 730.516 237.603Z" fill="#FF9F4F" fill-rule="evenodd"/><path d="M716.633 265.142C721.198 267.46 723.019 273.04 720.7 277.604 718.382 282.169 712.803 283.99 708.238 281.671 703.674 279.353 701.853 273.773 704.171 269.209 706.489 264.645 712.069 262.824 716.633 265.142Z" fill="#FF9F4F" fill-rule="evenodd"/><path d="M706.702 292.695C711.569 291.107 716.802 293.765 718.39 298.632 719.978 303.499 717.32 308.732 712.453 310.32 707.587 311.908 702.354 309.25 700.766 304.383 699.177 299.517 701.835 294.284 706.702 292.695Z" fill="#FF9F4F" fill-rule="evenodd"/><path d="M716.359 321.985C721.225 320.396 726.458 323.054 728.047 327.921 729.635 332.788 726.977 338.021 722.11 339.609 717.243 341.197 712.01 338.54 710.422 333.673 708.834 328.806 711.492 323.573 716.359 321.985Z" fill="#FF9F4F" fill-rule="evenodd"/><path d="M730.203 349.081C732.521 344.516 738.101 342.695 742.665 345.014 747.23 347.332 749.051 352.911 746.732 357.476 744.414 362.04 738.834 363.861 734.27 361.543 729.706 359.225 727.885 353.645 730.203 349.081Z" fill="#FF9F4F" fill-rule="evenodd"/><path d="M757.742 362.963C760.06 358.399 765.64 356.578 770.204 358.896 774.769 361.214 776.59 366.794 774.271 371.358 771.953 375.923 766.373 377.744 761.809 375.425 757.244 373.107 755.424 367.528 757.742 362.963Z" fill="#FF9F4F" fill-rule="evenodd"/><path d="M872.288 365.193C867.724 362.874 865.903 357.295 868.221 352.73 870.539 348.166 876.119 346.345 880.683 348.663 885.248 350.982 887.069 356.561 884.75 361.126 882.432 365.69 876.852 367.511 872.288 365.193Z" fill="#FF9F4F" fill-rule="evenodd"/><path d="M886.286 337.632C881.721 335.314 879.901 329.734 882.219 325.17 884.537 320.606 890.117 318.785 894.681 321.103 899.246 323.421 901.067 329.001 898.748 333.565 896.43 338.13 890.85 339.951 886.286 337.632Z" fill="#FF9F4F" fill-rule="evenodd"/><path d="M859.122 348.454 865.073 351.476" stroke="#FF9F4F" stroke-width="1.33333" stroke-linecap="round" stroke-miterlimit="8" fill="#FF9F4F" fill-rule="evenodd"/><path d="M872.895 321.337 878.845 324.36" stroke="#FF9F4F" stroke-width="1.33333" stroke-linecap="round" stroke-miterlimit="8" fill="#FF9F4F" fill-rule="evenodd"/><path d="M883.524 339.798 880.502 345.749" stroke="#FF9F4F" stroke-width="1.33333" stroke-linecap="round" stroke-miterlimit="8" fill="#FF9F4F" fill-rule="evenodd"/><path d="M897.321 282.996C892.454 284.584 887.221 281.926 885.633 277.06 884.045 272.193 886.703 266.96 891.57 265.372 896.436 263.783 901.669 266.441 903.258 271.308 904.846 276.175 902.188 281.408 897.321 282.996Z" fill="#FF9F4F" fill-rule="evenodd"/><path d="M887.731 253.61C882.864 255.198 877.631 252.54 876.043 247.673 874.455 242.806 877.113 237.574 881.979 235.985 886.846 234.397 892.079 237.055 893.667 241.922 895.256 246.789 892.598 252.021 887.731 253.61Z" fill="#FF9F4F" fill-rule="evenodd"/><path d="M876.175 280.469 882.52 278.399" stroke="#FF9F4F" stroke-width="1.33333" stroke-linecap="round" stroke-miterlimit="8" fill="#FF9F4F" fill-rule="evenodd"/><path d="M866.74 251.557 873.084 249.486" stroke="#FF9F4F" stroke-width="1.33333" stroke-linecap="round" stroke-miterlimit="8" fill="#FF9F4F" fill-rule="evenodd"/><path d="M887.31 257.094 889.38 263.439" stroke="#FF9F4F" stroke-width="1.33333" stroke-linecap="round" stroke-miterlimit="8" fill="#FF9F4F" fill-rule="evenodd"/><path d="M856.97 206.034C854.651 210.598 849.072 212.419 844.507 210.1 839.943 207.782 838.122 202.203 840.44 197.638 842.759 193.074 848.338 191.253 852.903 193.571 857.467 195.89 859.288 201.469 856.97 206.034Z" fill="#FF9F4F" fill-rule="evenodd"/><path d="M829.409 192.035C827.091 196.6 821.512 198.42 816.947 196.102 812.383 193.784 810.562 188.204 812.88 183.64 815.198 179.075 820.778 177.255 825.343 179.573 829.907 181.891 831.728 187.471 829.409 192.035Z" fill="#FF9F4F" fill-rule="evenodd"/><path d="M840.231 219.199 843.253 213.249" stroke="#FF9F4F" stroke-width="1.33333" stroke-linecap="round" stroke-miterlimit="8" fill="#FF9F4F" fill-rule="evenodd"/><path d="M813.114 205.427 816.137 199.476" stroke="#FF9F4F" stroke-width="1.33333" stroke-linecap="round" stroke-miterlimit="8" fill="#FF9F4F" fill-rule="evenodd"/><path d="M831.575 194.797 837.526 197.819" stroke="#FF9F4F" stroke-width="1.33333" stroke-linecap="round" stroke-miterlimit="8" fill="#FF9F4F" fill-rule="evenodd"/><path d="M776.402 183.526C777.99 188.393 775.332 193.626 770.466 195.214 765.599 196.803 760.366 194.145 758.778 189.278 757.189 184.411 759.847 179.178 764.714 177.59 769.581 176.002 774.814 178.66 776.402 183.526Z" fill="#FF9F4F" fill-rule="evenodd"/><path d="M747.016 193.116C748.604 197.983 745.946 203.216 741.079 204.804 736.212 206.393 730.98 203.735 729.391 198.868 727.803 194.001 730.461 188.768 735.328 187.18 740.195 185.592 745.427 188.25 747.016 193.116Z" fill="#FF9F4F" fill-rule="evenodd"/><path d="M773.875 204.673 771.805 198.328" stroke="#FF9F4F" stroke-width="1.33333" stroke-linecap="round" stroke-miterlimit="8" fill="#FF9F4F" fill-rule="evenodd"/><path d="M744.963 214.108 742.892 207.763" stroke="#FF9F4F" stroke-width="1.33333" stroke-linecap="round" stroke-miterlimit="8" fill="#FF9F4F" fill-rule="evenodd"/><path d="M750.5 193.538 756.845 191.467" stroke="#FF9F4F" stroke-width="1.33333" stroke-linecap="round" stroke-miterlimit="8" fill="#FF9F4F" fill-rule="evenodd"/><path d="M700.771 224.25C705.335 226.568 707.156 232.148 704.837 236.712 702.519 241.276 696.94 243.097 692.375 240.779 687.811 238.461 685.99 232.881 688.308 228.317 690.627 223.752 696.206 221.931 700.771 224.25Z" fill="#FF9F4F" fill-rule="evenodd"/><path d="M686.772 251.81C691.337 254.128 693.158 259.708 690.839 264.272 688.521 268.837 682.941 270.658 678.377 268.339 673.813 266.021 671.992 260.441 674.31 255.877 676.628 251.313 682.208 249.492 686.772 251.81Z" fill="#FF9F4F" fill-rule="evenodd"/><path d="M713.936 240.989 707.986 237.967" stroke="#FF9F4F" stroke-width="1.33333" stroke-linecap="round" stroke-miterlimit="8" fill="#FF9F4F" fill-rule="evenodd"/><path d="M700.164 268.105 694.213 265.083" stroke="#FF9F4F" stroke-width="1.33333" stroke-linecap="round" stroke-miterlimit="8" fill="#FF9F4F" fill-rule="evenodd"/><path d="M689.534 249.644 692.556 243.694" stroke="#FF9F4F" stroke-width="1.33333" stroke-linecap="round" stroke-miterlimit="8" fill="#FF9F4F" fill-rule="evenodd"/><path d="M676.608 302.936C681.475 301.348 686.708 304.006 688.296 308.872 689.884 313.739 687.227 318.972 682.36 320.56 677.493 322.149 672.26 319.491 670.672 314.624 669.083 309.757 671.741 304.524 676.608 302.936Z" fill="#FF9F4F" fill-rule="evenodd"/><path d="M686.198 332.322C691.065 330.734 696.298 333.392 697.886 338.259 699.474 343.126 696.816 348.358 691.95 349.947 687.083 351.535 681.85 348.877 680.262 344.01 678.673 339.143 681.331 333.911 686.198 332.322Z" fill="#FF9F4F" fill-rule="evenodd"/><path d="M697.754 305.463 691.409 307.533" stroke="#FF9F4F" stroke-width="1.33333" stroke-linecap="round" stroke-miterlimit="8" fill="#FF9F4F" fill-rule="evenodd"/><path d="M707.19 334.376 700.845 336.446" stroke="#FF9F4F" stroke-width="1.33333" stroke-linecap="round" stroke-miterlimit="8" fill="#FF9F4F" fill-rule="evenodd"/><path d="M686.62 328.838 684.549 322.493" stroke="#FF9F4F" stroke-width="1.33333" stroke-linecap="round" stroke-miterlimit="8" fill="#FF9F4F" fill-rule="evenodd"/><path d="M716.008 376.983C718.326 372.419 723.906 370.598 728.47 372.916 733.035 375.235 734.855 380.814 732.537 385.379 730.219 389.943 724.639 391.764 720.075 389.445 715.51 387.127 713.69 381.548 716.008 376.983Z" fill="#FF9F4F" fill-rule="evenodd"/><path d="M743.568 390.981C745.887 386.417 751.466 384.596 756.031 386.914 760.595 389.233 762.416 394.812 760.098 399.377 757.779 403.941 752.2 405.762 747.635 403.444 743.071 401.125 741.25 395.546 743.568 390.981Z" fill="#FF9F4F" fill-rule="evenodd"/><path d="M732.747 363.817 729.725 369.768" stroke="#FF9F4F" stroke-width="1.33333" stroke-linecap="round" stroke-miterlimit="8" fill="#FF9F4F" fill-rule="evenodd"/><path d="M759.863 377.59 756.841 383.541" stroke="#FF9F4F" stroke-width="1.33333" stroke-linecap="round" stroke-miterlimit="8" fill="#FF9F4F" fill-rule="evenodd"/><path d="M741.403 388.22 735.452 385.197" stroke="#FF9F4F" stroke-width="1.33333" stroke-linecap="round" stroke-miterlimit="8" fill="#FF9F4F" fill-rule="evenodd"/><path d="M753.963 303.432C748.181 285.713 757.857 266.661 775.577 260.878 793.296 255.096 812.348 264.772 818.13 282.492 823.913 300.211 814.236 319.263 796.517 325.045 778.798 330.828 759.746 321.151 753.963 303.432Z" stroke="#FF9F4F" stroke-width="1.33333" stroke-miterlimit="8" fill="#FFFFFF" fill-rule="evenodd"/><path d="M663.411 72.49C663.722 70.4774 665.605 69.0977 667.618 69.4084L682.194 71.6583C684.206 71.969 685.586 73.8524 685.275 75.865L663.255 218.52C662.945 220.533 661.061 221.912 659.049 221.602L644.473 219.352C642.46 219.041 641.08 217.158 641.391 215.145Z" fill="#FFDFC5" fill-rule="evenodd"/><path d="M590.556 147.72C588.544 147.409 587.164 145.526 587.475 143.513L589.725 128.937C590.035 126.925 591.919 125.545 593.931 125.856L736.586 147.876C738.599 148.186 739.979 150.07 739.668 152.082L737.418 166.658C737.108 168.671 735.224 170.051 733.212 169.74Z" fill="#FFDFC5" fill-rule="evenodd"/><path d="M611.843 197.94C610.2 199.144 607.893 198.788 606.689 197.145L597.974 185.247C596.77 183.604 597.126 181.297 598.769 180.093L715.212 94.7916C716.855 93.5881 719.162 93.9443 720.366 95.5871L729.081 107.485C730.285 109.128 729.929 111.435 728.286 112.638Z" fill="#FFDFC5" fill-rule="evenodd"/><path d="M612.356 95.2789C611.152 93.6361 611.508 91.3288 613.151 90.1253L625.049 81.4095C626.692 80.206 628.999 80.5622 630.202 82.205L714.84 197.742C716.044 199.384 715.688 201.692 714.045 202.895L702.147 211.611C700.504 212.814 698.197 212.458 696.993 210.815Z" fill="#FFDFC5" fill-rule="evenodd"/><path d="M618.793 179.739C600.573 154.866 605.965 119.932 630.837 101.712 655.71 83.4909 690.644 88.8833 708.865 113.756 727.086 138.628 721.693 173.562 696.821 191.783 671.948 210.004 637.014 204.612 618.793 179.739Z" fill="#FFDFC5" fill-rule="evenodd"/><path d="M695.077 218.099C692.924 215.161 693.561 211.034 696.5 208.882 699.438 206.729 703.565 207.366 705.717 210.304 707.87 213.243 707.233 217.369 704.294 219.522 701.356 221.674 697.229 221.037 695.077 218.099Z" fill="#FF9F4F" fill-rule="evenodd"/><path d="M712.818 205.102C710.666 202.164 711.303 198.037 714.241 195.885 717.18 193.732 721.306 194.369 723.459 197.307 725.611 200.246 724.974 204.373 722.036 206.525 719.098 208.678 714.971 208.041 712.818 205.102Z" fill="#FF9F4F" fill-rule="evenodd"/><path d="M692.098 203.243 694.904 207.074" stroke="#FF9F4F" stroke-width="1.33333" stroke-linecap="round" stroke-miterlimit="8" fill="#FF9F4F" fill-rule="evenodd"/><path d="M709.554 190.456 712.36 194.286" stroke="#FF9F4F" stroke-width="1.33333" stroke-linecap="round" stroke-miterlimit="8" fill="#FF9F4F" fill-rule="evenodd"/><path d="M710.37 205.59 706.539 208.396" stroke="#FF9F4F" stroke-width="1.33333" stroke-linecap="round" stroke-miterlimit="8" fill="#FF9F4F" fill-rule="evenodd"/><path d="M681.592 199.691C679.439 196.753 680.076 192.626 683.015 190.473 685.953 188.321 690.08 188.958 692.232 191.896 694.385 194.835 693.748 198.961 690.809 201.114 687.871 203.266 683.744 202.629 681.592 199.691Z" fill="#FF9F4F" fill-rule="evenodd"/><path d="M699.253 186.671C697.1 183.733 697.737 179.606 700.676 177.453 703.614 175.301 707.741 175.938 709.893 178.876 712.046 181.814 711.409 185.941 708.47 188.094 705.532 190.246 701.405 189.609 699.253 186.671Z" fill="#FF9F4F" fill-rule="evenodd"/><path d="M714.692 173.871C711.093 173.316 708.625 169.947 709.181 166.348 709.736 162.748 713.105 160.28 716.704 160.836 720.304 161.391 722.772 164.76 722.216 168.36 721.661 171.959 718.292 174.427 714.692 173.871Z" fill="#FF9F4F" fill-rule="evenodd"/><path d="M717.974 152.176C714.374 151.621 711.906 148.252 712.462 144.653 713.018 141.053 716.386 138.585 719.986 139.141 723.586 139.696 726.053 143.065 725.498 146.665 724.942 150.264 721.573 152.732 717.974 152.176Z" fill="#FF9F4F" fill-rule="evenodd"/><path d="M718.392 128.781C715.453 130.933 711.327 130.296 709.174 127.358 707.022 124.42 707.659 120.293 710.597 118.14 713.535 115.988 717.662 116.625 719.815 119.563 721.967 122.502 721.33 126.628 718.392 128.781Z" fill="#FF9F4F" fill-rule="evenodd"/><path d="M705.371 111.12C702.433 113.272 698.306 112.635 696.154 109.697 694.001 106.759 694.638 102.632 697.577 100.479 700.515 98.3269 704.642 98.9639 706.794 101.902 708.947 104.84 708.31 108.967 705.371 111.12Z" fill="#FF9F4F" fill-rule="evenodd"/><path d="M688.716 94.1096C688.161 97.7093 684.792 100.177 681.193 99.6214 677.593 99.0658 675.125 95.6972 675.681 92.0975 676.236 88.4978 679.605 86.0301 683.205 86.5857 686.804 87.1414 689.272 90.51 688.716 94.1096Z" fill="#FF9F4F" fill-rule="evenodd"/><path d="M667.021 90.8281C666.466 94.4278 663.097 96.8955 659.497 96.3398 655.898 95.7842 653.43 92.4156 653.986 88.8159 654.541 85.2162 657.91 82.7485 661.51 83.3042 665.109 83.8598 667.577 87.2284 667.021 90.8281Z" fill="#FF9F4F" fill-rule="evenodd"/><path d="M646.156 93.1486C648.309 96.0869 647.672 100.214 644.733 102.366 641.795 104.519 637.668 103.882 635.516 100.943 633.363 98.0052 634 93.8783 636.939 91.7258 639.877 89.5734 644.004 90.2104 646.156 93.1486Z" fill="#FF9F4F" fill-rule="evenodd"/><path d="M628.495 106.169C630.647 109.107 630.01 113.234 627.072 115.387 624.134 117.539 620.007 116.902 617.855 113.964 615.702 111.025 616.339 106.899 619.277 104.746 622.216 102.594 626.342 103.231 628.495 106.169Z" fill="#FF9F4F" fill-rule="evenodd"/><path d="M613.245 121.535C616.845 122.09 619.312 125.459 618.757 129.058 618.201 132.658 614.833 135.126 611.233 134.57 607.633 134.015 605.165 130.646 605.721 127.046 606.277 123.447 609.645 120.979 613.245 121.535Z" fill="#FF9F4F" fill-rule="evenodd"/><path d="M609.963 143.23C613.563 143.785 616.031 147.154 615.475 150.753 614.919 154.353 611.551 156.821 607.951 156.265 604.352 155.71 601.884 152.341 602.439 148.741 602.995 145.142 606.364 142.674 609.963 143.23Z" fill="#FF9F4F" fill-rule="evenodd"/><path d="M609.356 164.059C612.294 161.906 616.421 162.543 618.574 165.482 620.726 168.42 620.089 172.547 617.151 174.699 614.213 176.852 610.086 176.215 607.933 173.276 605.781 170.338 606.418 166.211 609.356 164.059Z" fill="#FF9F4F" fill-rule="evenodd"/><path d="M622.376 181.72C625.315 179.567 629.442 180.204 631.594 183.143 633.747 186.081 633.109 190.208 630.171 192.36 627.233 194.513 623.106 193.876 620.954 190.937 618.801 187.999 619.438 183.872 622.376 181.72Z" fill="#FF9F4F" fill-rule="evenodd"/><path d="M637.742 196.97C638.298 193.37 641.666 190.902 645.266 191.458 648.866 192.014 651.333 195.382 650.778 198.982 650.222 202.582 646.853 205.049 643.254 204.494 639.654 203.938 637.186 200.57 637.742 196.97Z" fill="#FF9F4F" fill-rule="evenodd"/><path d="M659.437 200.251C659.993 196.652 663.361 194.184 666.961 194.74 670.561 195.295 673.028 198.664 672.473 202.264 671.917 205.863 668.548 208.331 664.949 207.775 661.349 207.22 658.881 203.851 659.437 200.251Z" fill="#FF9F4F" fill-rule="evenodd"/><path d="M737.372 176.37C733.772 175.815 731.305 172.446 731.86 168.846 732.416 165.247 735.784 162.779 739.384 163.335 742.984 163.89 745.451 167.259 744.896 170.859 744.34 174.458 740.972 176.926 737.372 176.37Z" fill="#FF9F4F" fill-rule="evenodd"/><path d="M740.727 154.635C737.127 154.079 734.659 150.711 735.215 147.111 735.771 143.511 739.139 141.044 742.739 141.599 746.339 142.155 748.806 145.524 748.251 149.123 747.695 152.723 744.326 155.191 740.727 154.635Z" fill="#FF9F4F" fill-rule="evenodd"/><path d="M724.761 167.972 729.454 168.696" stroke="#FF9F4F" stroke-width="1.33333" stroke-linecap="round" stroke-miterlimit="8" fill="#FF9F4F" fill-rule="evenodd"/><path d="M728.062 146.587 732.755 147.311" stroke="#FF9F4F" stroke-width="1.33333" stroke-linecap="round" stroke-miterlimit="8" fill="#FF9F4F" fill-rule="evenodd"/><path d="M739.34 156.711 738.615 161.404" stroke="#FF9F4F" stroke-width="1.33333" stroke-linecap="round" stroke-miterlimit="8" fill="#FF9F4F" fill-rule="evenodd"/><path d="M736.077 115.251C733.139 117.404 729.012 116.767 726.86 113.829 724.707 110.89 725.344 106.764 728.283 104.611 731.221 102.459 735.348 103.096 737.5 106.034 739.653 108.972 739.016 113.099 736.077 115.251Z" fill="#FF9F4F" fill-rule="evenodd"/><path d="M723.081 97.51C720.142 99.6624 716.016 99.0254 713.863 96.0872 711.711 93.1489 712.348 89.022 715.286 86.8696 718.224 84.7171 722.351 85.3541 724.503 88.2924 726.656 91.2306 726.019 95.3575 723.081 97.51Z" fill="#FF9F4F" fill-rule="evenodd"/><path d="M721.221 118.23 725.052 115.424" stroke="#FF9F4F" stroke-width="1.33333" stroke-linecap="round" stroke-miterlimit="8" fill="#FF9F4F" fill-rule="evenodd"/><path d="M708.434 100.775 712.264 97.9684" stroke="#FF9F4F" stroke-width="1.33333" stroke-linecap="round" stroke-miterlimit="8" fill="#FF9F4F" fill-rule="evenodd"/><path d="M723.568 99.959 726.374 103.79" stroke="#FF9F4F" stroke-width="1.33333" stroke-linecap="round" stroke-miterlimit="8" fill="#FF9F4F" fill-rule="evenodd"/><path d="M691.739 72.1635C691.183 75.7632 687.815 78.2309 684.215 77.6752 680.615 77.1196 678.148 73.751 678.703 70.1513 679.259 66.5517 682.627 64.084 686.227 64.6396 689.827 65.1952 692.294 68.5638 691.739 72.1635Z" fill="#FF9F4F" fill-rule="evenodd"/><path d="M670.004 68.8083C669.448 72.408 666.079 74.8757 662.48 74.3201 658.88 73.7644 656.412 70.3959 656.968 66.7962 657.524 63.1965 660.892 60.7288 664.492 61.2844 668.092 61.8401 670.559 65.2086 670.004 68.8083Z" fill="#FF9F4F" fill-rule="evenodd"/><path d="M683.34 84.7747 684.065 80.0817" stroke="#FF9F4F" stroke-width="1.33333" stroke-linecap="round" stroke-miterlimit="8" fill="#FF9F4F" fill-rule="evenodd"/><path d="M661.955 81.4736 662.68 76.7806" stroke="#FF9F4F" stroke-width="1.33333" stroke-linecap="round" stroke-miterlimit="8" fill="#FF9F4F" fill-rule="evenodd"/><path d="M672.08 70.1956 676.773 70.9199" stroke="#FF9F4F" stroke-width="1.33333" stroke-linecap="round" stroke-miterlimit="8" fill="#FF9F4F" fill-rule="evenodd"/><path d="M632.281 74.8048C634.434 77.7431 633.797 81.8699 630.859 84.0224 627.92 86.1749 623.793 85.5379 621.641 82.5996 619.488 79.6613 620.125 75.5345 623.064 73.382 626.002 71.2295 630.129 71.8665 632.281 74.8048Z" fill="#FF9F4F" fill-rule="evenodd"/><path d="M614.54 87.8016C616.692 90.7398 616.055 94.8667 613.117 97.0192 610.179 99.1716 606.052 98.5346 603.899 95.5963 601.747 92.6581 602.384 88.5312 605.322 86.3787 608.26 84.2263 612.387 84.8633 614.54 87.8016Z" fill="#FF9F4F" fill-rule="evenodd"/><path d="M635.26 89.6611 632.454 85.8305" stroke="#FF9F4F" stroke-width="1.33333" stroke-linecap="round" stroke-miterlimit="8" fill="#FF9F4F" fill-rule="evenodd"/><path d="M617.804 102.448 614.998 98.6177" stroke="#FF9F4F" stroke-width="1.33333" stroke-linecap="round" stroke-miterlimit="8" fill="#FF9F4F" fill-rule="evenodd"/><path d="M616.989 87.3143 620.819 84.508" stroke="#FF9F4F" stroke-width="1.33333" stroke-linecap="round" stroke-miterlimit="8" fill="#FF9F4F" fill-rule="evenodd"/><path d="M590.176 119.1C593.775 119.655 596.243 123.024 595.687 126.624 595.132 130.223 591.763 132.691 588.163 132.135 584.564 131.58 582.096 128.211 582.652 124.612 583.207 121.012 586.576 118.544 590.176 119.1Z" fill="#FF9F4F" fill-rule="evenodd"/><path d="M586.821 140.835C590.42 141.391 592.888 144.759 592.332 148.359 591.777 151.959 588.408 154.426 584.808 153.871 581.209 153.315 578.741 149.947 579.297 146.347 579.852 142.747 583.221 140.279 586.821 140.835Z" fill="#FF9F4F" fill-rule="evenodd"/><path d="M602.787 127.498 598.094 126.774" stroke="#FF9F4F" stroke-width="1.33333" stroke-linecap="round" stroke-miterlimit="8" fill="#FF9F4F" fill-rule="evenodd"/><path d="M599.486 148.883 594.793 148.159" stroke="#FF9F4F" stroke-width="1.33333" stroke-linecap="round" stroke-miterlimit="8" fill="#FF9F4F" fill-rule="evenodd"/><path d="M588.208 138.759 588.932 134.066" stroke="#FF9F4F" stroke-width="1.33333" stroke-linecap="round" stroke-miterlimit="8" fill="#FF9F4F" fill-rule="evenodd"/><path d="M591.281 177.652C594.219 175.5 598.346 176.137 600.498 179.075 602.651 182.013 602.014 186.14 599.076 188.293 596.137 190.445 592.01 189.808 589.858 186.87 587.705 183.932 588.342 179.805 591.281 177.652Z" fill="#FF9F4F" fill-rule="evenodd"/><path d="M604.278 195.394C607.216 193.241 611.343 193.878 613.495 196.817 615.648 199.755 615.011 203.882 612.072 206.034 609.134 208.187 605.007 207.55 602.855 204.611 600.702 201.673 601.339 197.546 604.278 195.394Z" fill="#FF9F4F" fill-rule="evenodd"/><path d="M606.137 174.674 602.306 177.48" stroke="#FF9F4F" stroke-width="1.33333" stroke-linecap="round" stroke-miterlimit="8" fill="#FF9F4F" fill-rule="evenodd"/><path d="M618.924 192.129 615.094 194.935" stroke="#FF9F4F" stroke-width="1.33333" stroke-linecap="round" stroke-miterlimit="8" fill="#FF9F4F" fill-rule="evenodd"/><path d="M603.79 192.945 600.984 189.114" stroke="#FF9F4F" stroke-width="1.33333" stroke-linecap="round" stroke-miterlimit="8" fill="#FF9F4F" fill-rule="evenodd"/><path d="M634.33 218.98C634.885 215.381 638.254 212.913 641.854 213.468 645.453 214.024 647.921 217.393 647.365 220.992 646.81 224.592 643.441 227.06 639.841 226.504 636.242 225.948 633.774 222.58 634.33 218.98Z" fill="#FF9F4F" fill-rule="evenodd"/><path d="M656.065 222.335C656.621 218.735 659.989 216.268 663.589 216.823 667.189 217.379 669.656 220.748 669.101 224.347 668.545 227.947 665.176 230.415 661.577 229.859 657.977 229.303 655.509 225.935 656.065 222.335Z" fill="#FF9F4F" fill-rule="evenodd"/><path d="M642.728 206.369 642.004 211.062" stroke="#FF9F4F" stroke-width="1.33333" stroke-linecap="round" stroke-miterlimit="8" fill="#FF9F4F" fill-rule="evenodd"/><path d="M664.113 209.67 663.389 214.363" stroke="#FF9F4F" stroke-width="1.33333" stroke-linecap="round" stroke-miterlimit="8" fill="#FF9F4F" fill-rule="evenodd"/><path d="M653.989 220.948 649.296 220.224" stroke="#FF9F4F" stroke-width="1.33333" stroke-linecap="round" stroke-miterlimit="8" fill="#FF9F4F" fill-rule="evenodd"/><path d="M643.688 160.842C635.851 150.144 638.17 135.119 648.868 127.283 659.566 119.446 674.591 121.765 682.427 132.463 690.264 143.16 687.945 158.186 677.247 166.022 666.55 173.859 651.524 171.54 643.688 160.842Z" stroke="#FF9F4F" stroke-width="1.33333" stroke-miterlimit="8" fill="#FFFFFF" fill-rule="evenodd"/><rect x="419" y="58" width="494" height="459" fill="url(#fill1)"/><path d="M677 362.808C677 357.519 675.341 344.298 667.756 338.288 663.015 334.683 656.615 333.24 648.793 333L631.489 347.663 618.689 336.846C618.926 347.904 613.474 357.519 603.993 361.606 600.437 363.288 596.644 364.01 592.852 364.01 588.822 364.01 585.267 363.288 581.948 361.606 581.474 364.971 581 368.337 581 372.423L581.237 425.788C581.237 434.202 587.4 440.692 597.83 440.692L597.83 516.894C597.83 525.788 605.178 533 613.948 533 622.719 533 630.067 525.788 630.067 516.894 630.067 525.788 637.178 533 646.185 533 654.956 533 662.067 525.788 662.067 516.894L662.304 379.154C667.281 380.837 672.259 382.279 677 383.481 677 375.308 677 368.337 677 362.808Z" fill="#2E72B0" fill-rule="evenodd"/><path d="M688.814 363.409C688.814 401.974 688.814 516.951 688.814 516.951 688.814 525.814 696.264 533 705.155 533 714.047 533 721.496 525.814 721.496 516.951 721.496 525.814 728.705 533 737.597 533 746.729 533 753.938 525.814 753.938 516.951L753.938 441.258C764.512 441.019 771 434.551 771 426.167L771 366.044C771 362.451 770.76 359.337 770.279 356.223 767.395 357.421 764.271 357.9 761.147 357.9 757.302 357.9 753.457 357.181 749.612 355.505 740 351.433 734.473 341.612 734.953 330.593L720.054 342.809 700.589 327C690.977 327.24 683.287 328.677 678 333.467 678 333.467 688.814 344.965 688.814 363.409" fill="#2E72B0" fill-rule="evenodd"/><path d="M692 290.5C692 274.76 704.76 262 720.5 262 736.24 262 749 274.76 749 290.5 749 306.24 736.24 319 720.5 319 704.76 319 692 306.24 692 290.5Z" fill="#2E72B0" fill-rule="evenodd"/><path d="M754.101 346.29C756.685 347.511 759.034 348 761.383 348 766.315 348 770.779 345.557 773.832 341.649 775.242 339.695 775.711 337.008 776.181 336.031 779 326.504 773.597 324.061 765.611 320.153 761.617 317.954 757.624 316 754.336 316 750.107 316 748.463 318.687 746.584 324.305 744 332.855 746.114 342.626 754.101 346.29Z" fill="#2E72B0" fill-rule="evenodd"/><path d="M603 297.5C603 281.76 615.76 269 631.5 269 647.24 269 660 281.76 660 297.5 660 313.24 647.24 326 631.5 326 615.76 326 603 313.24 603 297.5Z" fill="#2E72B0" fill-rule="evenodd"/><path d="M587.772 327.023C579.557 330.809 574 333.176 577.141 342.405 577.383 343.351 577.866 345.954 579.315 347.847 582.456 351.634 587.047 354 592.362 354 594.779 354 597.195 353.527 599.611 352.344 607.826 348.794 610 339.328 607.342 331.046 605.651 325.603 603.718 323.237 599.611 323 596.228 323 592.121 324.893 587.772 327.023" fill="#2E72B0" fill-rule="evenodd"/></g></svg>