<svg width="336" height="336" xmlns="http://www.w3.org/2000/svg" xmlns:xlink="http://www.w3.org/1999/xlink" overflow="hidden"><defs><clipPath id="clip0"><rect x="356" y="10" width="336" height="336"/></clipPath><clipPath id="clip1"><rect x="446" y="41" width="153" height="154"/></clipPath><clipPath id="clip2"><rect x="446" y="41" width="153" height="154"/></clipPath><clipPath id="clip3"><rect x="446" y="41" width="153" height="154"/></clipPath></defs><g clip-path="url(#clip0)" transform="translate(-356 -10)"><g clip-path="url(#clip1)"><g clip-path="url(#clip2)"><g clip-path="url(#clip3)"><path d="M131.663 38.9337C126.052 32.4197 117.963 28.5621 109.369 28.3018 105.834 28.2872 102.317 28.8013 98.9336 29.827 95.1188 30.9999 91.6575 33.1074 88.8643 35.9582 86.0027 35.6959 83.3753 34.2669 81.6 32.0073 78.5483 28.3997 76.5582 24.0154 75.8513 19.3433 75.7009 18.4759 74.8756 17.8948 74.0082 18.0452 73.1407 18.1957 72.5596 19.0209 72.7101 19.8884 73.5133 25.1376 75.7608 30.0597 79.2014 34.1047 81.0753 36.3901 83.6169 38.0323 86.4705 38.8014L86.4179 38.87 86.0577 39.3752C85.5351 40.0835 85.6856 41.0813 86.3938 41.6039 87.1021 42.1265 88.1 41.976 88.6225 41.2678 88.6378 41.2472 88.6525 41.2262 88.6667 41.2048L88.9966 40.7442C89.4889 40.0704 90.015 39.422 90.5728 38.8014L90.7178 38.6421C93.2092 35.9207 96.389 33.9225 99.9217 32.8583 102.989 31.94 106.174 31.4782 109.376 31.4877 117.051 31.7365 124.269 35.1983 129.267 41.0279 136.505 49.3154 139.211 61.906 137.093 77.4435 135.128 91.8462 130.08 104.085 122.08 113.819 115.167 122.656 105.379 128.793 94.4137 131.166 82.2708 133.255 69.7777 131.213 58.9321 125.366 55.856 123.724 53.0295 121.652 50.5378 119.213 49.1111 117.559 47.9893 115.666 47.2244 113.62L46.9822 113.04 46.4068 112.783C44.1678 111.72 41.8152 110.915 39.3943 110.383 37.2244 109.792 34.921 109.924 32.8328 110.759 30.455 112.143 28.659 114.342 27.7775 116.948 27.1274 118.471 26.6029 120.044 26.2092 121.653 25.3011 125.278 24.7544 128.985 24.5772 132.718 24.5398 133.598 25.223 134.342 26.1032 134.379 26.9835 134.417 27.7273 133.734 27.7647 132.853 27.9367 129.341 28.4507 125.853 29.2995 122.44 29.6519 121.002 30.1193 119.595 30.6972 118.232 31.7188 115.918 32.6273 114.422 34.2529 113.61 35.7178 113.105 37.3041 113.069 38.7903 113.508 40.7726 113.943 42.7025 114.589 44.5469 115.435 45.4243 117.641 46.6841 119.675 48.2683 121.444 50.972 124.113 54.0479 126.376 57.4005 128.163 66.0136 132.765 75.6247 135.181 85.3899 135.201 88.6264 135.213 91.8563 134.909 95.0337 134.294 106.721 131.78 117.16 125.252 124.536 115.843 132.919 105.646 138.199 92.871 140.25 77.877 143.084 57.0674 137.144 45.2147 131.663 38.9337Z" stroke="#2E72B0" stroke-width="4.66667" fill="#2E72B0" transform="matrix(1 0 -0 1.00654 446 41)"/><path d="M37.1647 100.529C40.4846 100.728 43.7539 101.439 46.8563 102.638 46.7523 102.755 46.6559 102.879 46.5678 103.009 46.1142 103.73 46.3187 104.681 47.0284 105.152 47.2886 105.331 47.5972 105.426 47.9129 105.425 48.4302 105.425 48.9171 105.18 49.2262 104.765 49.6064 104.331 50.034 103.94 50.5012 103.6L50.8072 103.371C51.5212 102.837 52.326 102.298 53.2663 101.724 53.6568 101.487 54.052 101.268 54.4983 101.02L54.9939 100.746C57.5854 99.2938 59.8963 99.3942 63.3962 99.7321 67.0978 100.212 70.8602 99.8534 74.4042 98.6818 77.1773 97.7367 80.8589 94.1651 83.3595 89.9975 84.4103 88.2823 85.2468 86.4448 85.8505 84.5261 86.8323 81.7726 86.8358 78.7649 85.8601 76.0091 85.4744 75.1565 84.9995 74.2735 84.4942 73.3316 82.6621 70.336 81.4684 66.9942 80.988 63.5157 80.6858 60.1539 81.0941 56.766 82.1865 53.5723L82.5499 52.573C82.8144 51.8829 83.1204 51.1578 83.5061 50.3418 83.8864 49.5475 83.5506 48.5952 82.7563 48.2149 81.9619 47.8347 81.0097 48.1705 80.6294 48.9648 80.5545 49.1242 80.4971 49.258 80.427 49.4094 79.5552 48.3783 78.5878 47.3073 77.5822 46.2761 75.276 43.9078 73.7572 42.3172 72.5172 40.9578 67.1236 34.976 63.7855 27.4254 62.9914 19.4103 62.8615 18.5398 62.0506 17.9392 61.1801 18.069 60.3384 18.1946 59.7438 18.9589 59.8294 19.8055 60.6978 28.4765 64.3191 36.6419 70.1632 43.1062 71.4303 44.4943 72.9667 46.1072 75.2999 48.501 76.6358 49.8632 77.8977 51.2958 79.0803 52.793 77.8977 56.3515 77.4636 60.1161 77.8053 63.8504 78.3284 67.7431 79.6472 71.4864 81.6797 74.8473 82.1578 75.7207 82.5929 76.5414 82.9547 77.3319 83.5723 79.3874 83.5165 81.5866 82.7953 83.6081 82.264 85.2747 81.534 86.8715 80.6214 88.3639 78.2547 92.3116 75.1182 95.0736 73.3715 95.6696 70.2558 96.695 66.9482 97.0007 63.6974 96.5637 60.4414 96.245 57.0818 95.9262 53.4321 97.9678L52.9539 98.2372C52.4647 98.5081 52.0327 98.7487 51.6072 99.0085 50.8884 99.4468 50.2382 99.8692 49.6389 100.284 45.6995 98.6142 41.5062 97.6234 37.2364 97.3526 32.7715 97.1276 28.3525 98.3451 24.633 100.825 20.1863 104.178 16.878 108.816 15.1566 114.112 13.0844 120.104 11.9553 126.381 11.8097 132.72 11.7838 133.599 12.4761 134.334 13.3559 134.359 13.3563 134.359 13.3568 134.359 13.3572 134.359L13.405 134.359C14.2675 134.36 14.9738 133.674 14.9988 132.812 15.1326 126.831 16.1917 120.906 18.1385 115.249 19.6457 110.557 22.5473 106.436 26.4563 103.434 29.6112 101.319 33.3733 100.299 37.1647 100.529Z" stroke="#2E72B0" stroke-width="4.66667" fill="#2E72B0" transform="matrix(1 0 -0 1.00654 446 41)"/></g></g></g><path d="M479 192 574.16 192" stroke="#2E72B0" stroke-width="8" stroke-linecap="round" stroke-linejoin="round" stroke-miterlimit="10" fill="none" fill-rule="evenodd"/><path d="M573.5 192C589.24 192 602 204.76 602 220.5 602 236.24 589.24 249 573.5 249 573.486 249 573.471 249 573.457 249" stroke="#2E72B0" stroke-width="8" stroke-linecap="round" stroke-linejoin="round" stroke-miterlimit="10" fill="none" fill-rule="evenodd"/><path d="M479 249 574.16 249" stroke="#2E72B0" stroke-width="8" stroke-linecap="round" stroke-linejoin="round" stroke-miterlimit="10" fill="none" fill-rule="evenodd"/><path d="M474 221 573.231 221" stroke="#2E72B0" stroke-width="8" stroke-linecap="round" stroke-linejoin="round" stroke-miterlimit="10" fill="none" fill-rule="evenodd"/><path d="M474.5 221C466.576 221 460.12 214.639 460.002 206.716" stroke="#2E72B0" stroke-width="8" stroke-linecap="round" stroke-linejoin="round" stroke-miterlimit="10" fill="none" fill-rule="evenodd"/><path d="M0 0 0.000104987 17.9774" stroke="#2E72B0" stroke-width="8" stroke-linecap="round" stroke-linejoin="round" stroke-miterlimit="10" fill="none" fill-rule="evenodd" transform="matrix(1 0 0 -1 459 192.977)"/><path d="M459.908 205.849 459 193" stroke="#2E72B0" stroke-width="8" stroke-linecap="round" stroke-linejoin="round" stroke-miterlimit="10" fill="none" fill-rule="evenodd"/><path d="M478.5 277C462.76 277 450 264.464 450 249 450 233.536 462.76 221 478.5 221 478.514 221 478.528 221 478.542 221" stroke="#2E72B0" stroke-width="8" stroke-linecap="round" stroke-linejoin="round" stroke-miterlimit="10" fill="none" fill-rule="evenodd"/><path d="M479 277 530.27 277" stroke="#2E72B0" stroke-width="8" stroke-linecap="round" stroke-linejoin="round" stroke-miterlimit="10" fill="none" fill-rule="evenodd"/><path d="M478 192C474.721 192 472.05 189.368 472.001 186.09" stroke="#2E72B0" stroke-width="8" stroke-linecap="round" stroke-linejoin="round" stroke-miterlimit="10" fill="none" fill-rule="evenodd"/><path d="M472.153 184.639C471.977 181.157 471.953 177.562 472.08 174.041" stroke="#2E72B0" stroke-width="8" stroke-linecap="round" stroke-linejoin="round" stroke-miterlimit="10" fill="none" fill-rule="evenodd"/><path d="M541.5 249C549.424 249 555.88 255.361 555.998 263.284" stroke="#2E72B0" stroke-width="8" stroke-linecap="round" stroke-linejoin="round" stroke-miterlimit="10" fill="none" fill-rule="evenodd"/><path d="M530 277 530 296.002" stroke="#2E72B0" stroke-width="8" stroke-linecap="round" stroke-linejoin="round" stroke-miterlimit="10" fill="none" fill-rule="evenodd"/><path d="M556 263 556 295.921" stroke="#2E72B0" stroke-width="8" stroke-linecap="round" stroke-linejoin="round" stroke-miterlimit="10" fill="none" fill-rule="evenodd"/></g></svg>