<svg width="335" height="335" xmlns="http://www.w3.org/2000/svg" xmlns:xlink="http://www.w3.org/1999/xlink" overflow="hidden"><defs><clipPath id="clip0"><rect x="437" y="233" width="335" height="335"/></clipPath><clipPath id="clip1"><rect x="561" y="333" width="196" height="211"/></clipPath><clipPath id="clip2"><rect x="561" y="333" width="196" height="211"/></clipPath><clipPath id="clip3"><rect x="561" y="333" width="211" height="211"/></clipPath></defs><g clip-path="url(#clip0)" transform="translate(-437 -233)"><path d="M529.285 282C541.205 282 551.997 286.838 559.809 294.66L562.001 297.32 562.173 297.178C569.063 292.518 577.368 289.796 586.309 289.796 610.149 289.796 629.476 309.148 629.476 333.02L629.453 333.244 631.347 334.273C644.411 343.11 653 358.076 653 375.05 653 398.814 636.166 418.641 613.786 423.226L612.273 423.379 611.707 429C608.675 443.838 595.563 455 579.848 455 570.868 455 562.738 451.355 556.853 445.463L554.44 442.534 553.441 443.359C546.805 447.848 538.806 450.469 530.195 450.469 510.102 450.469 493.339 436.199 489.462 417.228L489.179 414.422 483.885 411.545C470.078 402.205 461 386.387 461 368.447 461 350.506 470.078 334.689 483.885 325.348L486.234 324.072 486.995 316.512C491.02 296.816 508.425 282 529.285 282Z" stroke="#2E72B0" stroke-width="8" stroke-miterlimit="8" fill="#FFFFFF" fill-rule="evenodd"/><path d="M508 321C508 310.507 516.507 302 527 302 537.493 302 546 310.507 546 321 546 331.493 537.493 340 527 340 516.507 340 508 331.493 508 321Z" stroke="#2E72B0" stroke-width="8" stroke-miterlimit="8" fill="#9EC4E6" fill-rule="evenodd"/><path d="M509 410C509 397.85 518.85 388 531 388 543.15 388 553 397.85 553 410 553 422.15 543.15 432 531 432 518.85 432 509 422.15 509 410Z" stroke="#2E72B0" stroke-width="8" stroke-miterlimit="8" fill="#9EC4E6" fill-rule="evenodd"/><path d="M485 365.5C485 360.806 488.582 357 493 357 497.418 357 501 360.806 501 365.5 501 370.194 497.418 374 493 374 488.582 374 485 370.194 485 365.5Z" fill="#2E72B0" fill-rule="evenodd"/><path d="M527 366.5C527 363.462 529.462 361 532.5 361 535.538 361 538 363.462 538 366.5 538 369.538 535.538 372 532.5 372 529.462 372 527 369.538 527 366.5Z" fill="#2E72B0" fill-rule="evenodd"/><path d="M701.252 472.274C706.085 467.441 713.92 467.441 718.753 472.274L747.658 501.178C752.49 506.011 752.49 513.846 747.658 518.679L747.658 518.679C742.825 523.512 734.99 523.512 730.157 518.679L701.252 489.774C696.42 484.942 696.42 477.106 701.252 472.274Z" fill="#9EC4E6" fill-rule="evenodd"/><path d="M570 416.5C570 376.459 602.683 344 643 344 683.317 344 716 376.459 716 416.5 716 456.541 683.317 489 643 489 602.683 489 570 456.541 570 416.5Z" fill="#FFFFFF" fill-rule="evenodd"/><path d="M570 389.5C570 381.492 576.268 375 584 375 591.732 375 598 381.492 598 389.5 598 397.508 591.732 404 584 404 576.268 404 570 397.508 570 389.5Z" stroke="#2E72B0" stroke-width="8" stroke-miterlimit="8" fill="#9EC4E6" fill-rule="evenodd"/><path d="M585 367.5C585 357.283 593.283 349 603.5 349 613.717 349 622 357.283 622 367.5 622 377.717 613.717 386 603.5 386 593.283 386 585 377.717 585 367.5Z" stroke="#2E72B0" stroke-width="8" stroke-miterlimit="8" fill="#9EC4E6" fill-rule="evenodd"/><path d="M582 413.5C582 383.953 606.177 360 636 360 665.823 360 690 383.953 690 413.5 690 443.047 665.823 467 636 467 606.177 467 582 443.047 582 413.5Z" fill="#FFFFFF" fill-rule="evenodd"/><g clip-path="url(#clip1)"><g clip-path="url(#clip2)"><g clip-path="url(#clip3)"><path d="M156.674 136.019C151.84 131.185 143.929 131.404 137.996 136.019L128.767 126.79C152.719 100.86 151.181 60.6481 125.252 36.6965 99.3223 12.7449 59.3297 14.5028 35.3781 40.4321 11.4265 66.3614 13.1844 106.574 38.8939 130.525 63.5047 153.378 101.52 153.158 125.911 130.086L135.14 139.315C133.162 141.732 132.063 144.808 131.624 147.885 131.185 151.62 132.503 155.356 135.14 157.993L166.123 188.976C168.54 191.173 171.617 192.492 174.913 192.492 179.308 192.492 183.263 190.734 186.339 187.658 189.196 185.021 190.954 181.285 191.173 177.33 191.613 173.594 190.294 169.859 187.658 167.222L156.674 136.019ZM40.4321 125.471C17.3594 102.399 17.3594 64.8232 40.4321 41.5308 63.5047 18.2384 101.08 18.4581 124.373 41.5308 147.665 64.6034 147.445 102.179 124.373 125.471 113.166 136.678 98.2236 142.831 82.4024 142.831 66.8008 142.831 51.6388 136.678 40.4321 125.471ZM183.043 184.142C178.868 188.317 172.496 188.976 168.98 185.46L138.216 154.697C136.458 152.939 135.799 150.522 136.019 148.104 136.239 145.248 137.557 142.611 139.754 140.633 141.952 138.436 145.028 137.118 148.104 136.898 150.302 136.898 152.28 137.557 153.818 139.095L184.581 170.078C186.339 171.836 186.998 174.254 186.779 176.671 186.339 179.527 185.24 182.164 183.043 184.142 183.043 184.142 183.043 184.142 183.043 184.142Z" stroke="#2E72B0" stroke-width="2.99929" fill="#2E72B0" transform="matrix(1 0 -0 1.00024 561 333)"/></g></g></g><path d="M690.424 408.162C692.908 423.883 687.272 439.79 675.412 450.535" stroke="#2E72B0" stroke-width="8" stroke-linecap="round" stroke-linejoin="round" stroke-miterlimit="10" fill="none" fill-rule="evenodd"/><path d="M622 441C622 433.82 628.044 428 635.5 428 642.956 428 649 433.82 649 441 649 448.18 642.956 454 635.5 454 628.044 454 622 448.18 622 441Z" fill="#2E72B0" fill-rule="evenodd"/><path d="M613 403C613 398.029 617.029 394 622 394 626.971 394 631 398.029 631 403 631 407.971 626.971 412 622 412 617.029 412 613 407.971 613 403Z" fill="#2E72B0" fill-rule="evenodd"/></g></svg>