<svg width="336" height="335" xmlns="http://www.w3.org/2000/svg" xmlns:xlink="http://www.w3.org/1999/xlink" overflow="hidden"><defs><clipPath id="clip0"><rect x="57" y="233" width="336" height="335"/></clipPath><clipPath id="clip1"><rect x="63" y="256" width="284" height="287"/></clipPath><clipPath id="clip2"><rect x="63" y="256" width="284" height="287"/></clipPath><clipPath id="clip3"><rect x="13" y="232" width="334" height="335"/></clipPath><clipPath id="clip4"><rect x="171" y="332" width="211" height="211"/></clipPath><clipPath id="clip5"><rect x="171" y="332" width="211" height="211"/></clipPath><clipPath id="clip6"><rect x="171" y="332" width="211" height="211"/></clipPath></defs><g clip-path="url(#clip0)" transform="translate(-57 -233)"><path d="M310.468 472.294C315.301 467.461 323.136 467.461 327.969 472.294L356.874 501.199C361.706 506.031 361.706 513.867 356.874 518.7L356.874 518.699C352.041 523.532 344.206 523.532 339.373 518.699L310.468 489.795C305.635 484.962 305.636 477.127 310.468 472.294Z" fill="#9EC4E6" fill-rule="evenodd"/><g clip-path="url(#clip1)"><g clip-path="url(#clip2)"><g clip-path="url(#clip3)"><path d="M79.9707 212.096C79.9707 260.103 118.888 299.021 166.895 299.021 214.902 299.021 253.82 260.103 253.82 212.096 253.82 156.812 166.895 34.7699 166.895 34.7699 166.895 34.7699 79.9707 157.16 79.9707 212.096ZM246.866 212.096C246.866 256.263 211.062 292.067 166.895 292.067 122.729 292.067 86.9247 256.263 86.9247 212.096 86.9247 167.958 147.792 75.0682 166.903 46.9936 186.022 75.0066 246.866 167.66 246.866 212.096Z" stroke="#2E72B0" stroke-width="1.67062" fill="#2E72B0" transform="matrix(1.00046 0 -0 1 13.0552 232.274)"/></g></g></g><path d="M183.5 508C148.43 508 120 479.57 120 444.5" stroke="#2E72B0" stroke-width="8" stroke-linecap="round" stroke-linejoin="round" stroke-miterlimit="10" fill="none" fill-rule="evenodd"/><path d="M126.061 414.547C128.536 408.003 131.48 401.061 134.746 394.066" stroke="#2E72B0" stroke-width="8" stroke-linecap="round" stroke-linejoin="round" stroke-miterlimit="10" fill="none" fill-rule="evenodd"/><path d="M180 416.5C180 376.459 212.459 344 252.5 344 292.541 344 325 376.459 325 416.5 325 456.541 292.541 489 252.5 489 212.459 489 180 456.541 180 416.5Z" fill="#FFFFFF" fill-rule="evenodd"/><g clip-path="url(#clip4)"><g clip-path="url(#clip5)"><g clip-path="url(#clip6)"><path d="M327.711 468.051C322.876 463.216 314.964 463.435 309.029 468.051L299.798 458.82C323.755 432.884 322.217 392.663 296.281 368.705 270.346 344.748 230.344 346.506 206.386 372.442 182.429 398.377 184.188 438.599 209.903 462.556 234.52 485.415 272.544 485.195 296.941 462.117L306.172 471.348C304.194 473.766 303.095 476.843 302.655 479.92 302.216 483.656 303.534 487.393 306.172 490.03L337.163 521.021C339.58 523.219 342.657 524.537 345.954 524.537 350.35 524.537 354.306 522.779 357.383 519.702 360.241 517.065 361.999 513.328 362.219 509.372 362.658 505.635 361.34 501.899 358.702 499.261L327.711 468.051ZM211.442 457.501C188.364 434.423 188.364 396.839 211.442 373.541 234.52 350.243 272.104 350.462 295.402 373.541 318.7 396.619 318.48 434.203 295.402 457.501 284.193 468.71 269.247 474.865 253.422 474.865 237.817 474.865 222.651 468.71 211.442 457.501ZM354.086 516.185C349.91 520.361 343.536 521.021 340.02 517.504L309.249 486.733C307.491 484.975 306.831 482.557 307.051 480.14 307.271 477.282 308.59 474.645 310.788 472.667 312.985 470.469 316.062 469.15 319.14 468.93 321.338 468.93 323.316 469.59 324.854 471.128L355.625 502.119C357.383 503.877 358.043 506.295 357.823 508.713 357.383 511.57 356.284 514.207 354.086 516.185 354.086 516.185 354.086 516.185 354.086 516.185Z" stroke="#2E72B0" stroke-width="3" fill="#2E72B0"/></g></g></g><path d="M240.432 448.957C234.222 440.365 239.953 425.62 253.232 416.023 266.51 406.426 282.309 405.612 288.519 414.204 294.729 422.796 288.998 437.541 275.719 447.138 262.44 456.735 246.642 457.549 240.432 448.957Z" fill="#9EC4E6" fill-rule="evenodd"/><path d="M240.383 448.937C234.173 440.345 239.904 425.6 253.183 416.003 266.461 406.406 282.26 405.592 288.47 414.184 294.68 422.776 288.949 437.521 275.67 447.118 262.391 456.715 246.593 457.529 240.383 448.937Z" stroke="#2E72B0" stroke-width="8" stroke-miterlimit="8" fill="none" fill-rule="evenodd"/><path d="M279.056 424.064C277.737 430.364 269.824 438.047 261.382 441.224 258.644 442.255 256.072 442.718 253.933 442.565" stroke="#2E72B0" stroke-width="8" stroke-linecap="round" stroke-linejoin="round" stroke-miterlimit="10" fill="none" fill-rule="evenodd"/><path d="M233.676 437.787C223.16 436.441 216.323 422.175 218.403 405.924 220.484 389.673 230.695 377.59 241.211 378.936 251.726 380.283 258.564 394.548 256.483 410.799 254.402 427.05 244.191 439.133 233.676 437.787Z" fill="#9EC4E6" fill-rule="evenodd"/><path d="M240.837 378.423C251.352 379.769 258.19 394.035 256.109 410.286 254.029 426.537 243.818 438.62 233.302 437.273 222.787 435.927 215.949 421.661 218.03 405.41 220.11 389.159 230.322 377.077 240.837 378.423Z" stroke="#2E72B0" stroke-width="8" stroke-miterlimit="8" fill="none" fill-rule="evenodd"/><path d="M232.532 423.648C228.839 418.377 228.646 407.349 232.102 399.017 233.222 396.316 234.644 394.122 236.218 392.667" stroke="#2E72B0" stroke-width="8" stroke-linecap="round" stroke-linejoin="round" stroke-miterlimit="10" fill="none" fill-rule="evenodd"/></g></svg>