<svg width="335" height="335" xmlns="http://www.w3.org/2000/svg" xmlns:xlink="http://www.w3.org/1999/xlink" overflow="hidden"><defs><clipPath id="clip0"><rect x="787" y="10" width="335" height="335"/></clipPath><clipPath id="clip1"><rect x="814" y="35" width="281" height="281"/></clipPath><clipPath id="clip2"><rect x="814" y="35" width="281" height="281"/></clipPath><clipPath id="clip3"><rect x="814" y="35" width="281" height="281"/></clipPath></defs><g clip-path="url(#clip0)" transform="translate(-787 -10)"><path d="M989 102.5C989 92.2827 997.283 84 1007.5 84 1017.72 84 1026 92.2827 1026 102.5 1026 112.717 1017.72 121 1007.5 121 997.283 121 989 112.717 989 102.5Z" fill="#9EC4E6" fill-rule="evenodd"/><path d="M970 110.5C970 100.283 978.507 92 989 92 999.493 92 1008 100.283 1008 110.5 1008 120.717 999.493 129 989 129 978.507 129 970 120.717 970 110.5Z" fill="#9EC4E6" fill-rule="evenodd"/><path d="M958 123.5C958 113.283 966.283 105 976.5 105 986.717 105 995 113.283 995 123.5 995 133.717 986.717 142 976.5 142 966.283 142 958 133.717 958 123.5Z" fill="#9EC4E6" fill-rule="evenodd"/><path d="M951 133.5C951 123.283 959.283 115 969.5 115 979.717 115 988 123.283 988 133.5 988 143.717 979.717 152 969.5 152 959.283 152 951 143.717 951 133.5Z" fill="#9EC4E6" fill-rule="evenodd"/><path d="M949.674 136.86 985.545 142.145 983.053 159.066 947.181 153.782Z" fill="#9EC4E6" fill-rule="evenodd"/><path d="M864 110C864 103.925 868.925 99 875 99 881.075 99 886 103.925 886 110 886 116.075 881.075 121 875 121 868.925 121 864 116.075 864 110Z" fill="#9EC4E6" fill-rule="evenodd"/><path d="M887 102C887 95.9249 891.925 91 898 91 904.075 91 909 95.9249 909 102 909 108.075 904.075 113 898 113 891.925 113 887 108.075 887 102Z" fill="#9EC4E6" fill-rule="evenodd"/><path d="M869 121.5C869 111.283 877.283 103 887.5 103 897.717 103 906 111.283 906 121.5 906 131.717 897.717 140 887.5 140 877.283 140 869 131.717 869 121.5Z" fill="#9EC4E6" fill-rule="evenodd"/><path d="M872.239 132.601 900.94 119.066 908.236 134.537 879.535 148.072Z" fill="#9EC4E6" fill-rule="evenodd"/><path d="M881.085 146.387C887.079 141.267 896.666 137.496 906.658 136.328" stroke="#9EC4E6" stroke-width="8" stroke-miterlimit="8" fill="none" fill-rule="evenodd"/><path d="M983.218 154.634C973.63 157.21 960.068 155.363 949.246 150.007" stroke="#9EC4E6" stroke-width="8" stroke-miterlimit="8" fill="none" fill-rule="evenodd"/><g clip-path="url(#clip1)"><g clip-path="url(#clip2)"><g clip-path="url(#clip3)"><path d="M874.626 140.284C875.047 141.935 876.303 146.639 878.431 152.598 879.858 150.965 881.398 149.433 883.038 148.015 881.44 143.241 880.755 140.501 880.495 139.418 880.386 138.959 880.239 138.511 880.055 138.077 877.888 132.553 875.277 127.213 872.249 122.11 869.287 117.277 867.999 115.442 867.586 114.877 867.522 114.795 867.457 114.713 867.387 114.637 864.661 111.653 864.871 107.025 867.855 104.299 868.825 103.412 870.016 102.804 871.304 102.537 871.8 102.434 872.305 102.383 872.811 102.381 874.231 102.383 875.619 102.8 876.803 103.582 877.974 104.337 878.797 104.884 883.802 112.948 884.655 114.321 886.46 114.743 887.833 113.889 888.602 113.411 889.107 112.605 889.2 111.704 889.305 110.677 889.425 109.655 889.566 108.607 890.933 98.7753 891.541 96.9868 892.22 95.8599 894.178 92.324 898.631 91.0446 902.167 93.0019 905.293 94.7324 906.712 98.4674 905.524 101.837 905.489 101.939 905.305 102.753 905.196 103.347 904.962 104.612 904.59 106.86 904.066 110.621 903.332 116.533 903.08 122.495 903.311 128.447 903.329 128.775 903.335 129.237 903.343 129.77 903.311 131.522 903.431 133.273 903.703 135.004 903.882 135.844 904.213 137.234 904.769 139.102L904.801 139.102C907.037 138.786 908.981 138.563 910.679 138.402 910.008 136.265 909.619 134.676 909.432 133.795 909.252 132.437 909.172 131.067 909.195 129.697 909.195 129.076 909.195 128.526 909.159 128.149 908.941 122.567 909.176 116.976 909.862 111.432 910.567 106.365 910.974 104.246 911.121 103.564 913.375 96.6183 909.571 89.1607 902.626 86.9068 902.243 86.7824 901.854 86.6759 901.461 86.5869 896.05 85.3555 890.452 87.6816 887.508 92.3855 886.255 94.3232 885.567 96.0443 884.464 103.14 884.464 103.178 884.431 103.183 884.411 103.14 883.379 101.53 882.058 100.126 880.515 98.9977 878.58 97.5887 876.297 96.7363 873.912 96.5331 866.647 95.9419 860.277 101.352 859.687 108.617 859.395 112.202 860.579 115.751 862.964 118.442 863.359 118.993 864.568 120.74 867.273 125.157 870.023 129.804 872.412 134.656 874.418 139.67 874.476 139.892 874.608 140.24 874.626 140.284Z" stroke="#2E72B0" stroke-width="3.71366" fill="#2E72B0"/><path d="M1037.01 186.207C1029.93 163.323 1017.55 145.058 1011.4 138.911 1009.44 137.056 1007.31 135.39 1005.04 133.935 1003.41 135.087 1001.79 136.355 1000.16 137.741 1002.71 139.255 1005.08 141.03 1007.26 143.036 1012.11 147.889 1024.4 165.246 1031.41 187.934 1037.24 207.028 1038.87 227.159 1036.18 246.941 1034.56 259.528 1026.61 277.828 1018.41 283.442 1009.7 289.402 983.578 291.816 965.67 288.321 946.703 283.985 928.799 275.883 913.023 264.495 908.597 261.245 904.352 257.755 900.308 254.039 894.295 247.579 888.721 240.723 883.624 233.518 876.203 223.09 872.53 210.459 873.2 197.679 874.032 177.83 881.273 167.193 886.647 160.923 892.209 154.448 896.819 152.057 906.426 150.693 910.084 150.14 913.773 149.811 917.472 149.707 918.468 149.923 919.509 149.722 920.353 149.15L921.664 148.032 921.69 146.569C921.72 144.763 921.731 142.995 921.743 141.25 921.422 132.454 922.309 123.655 924.377 115.1 926.688 106.349 931.149 98.3143 937.356 91.7269L938.527 90.5151 938.07 88.9022C937.505 86.906 937.019 84.9595 936.624 83.1154 934.432 72.8413 934.646 71.9281 934.868 71.0441 935.417 68.6822 937.777 67.2128 940.139 67.7623 942.13 68.2253 943.538 70.0012 943.535 72.0452L943.556 72.3759C943.632 73.0491 943.945 75.2269 945.163 80.9757L945.927 84.5848 949.266 83.0188C949.483 82.9164 949.705 82.8285 949.928 82.7407L952.27 81.7514 952.193 79.7346C952.15 78.4935 952.117 77.2407 952.126 75.9733 952.193 65.4709 952.603 64.6279 953.004 63.8084 954.054 61.6226 956.677 60.702 958.863 61.752 960.7 62.6342 961.688 64.6639 961.25 66.6535L961.197 66.9637C961.127 67.634 960.951 69.8616 960.904 76.0377 960.904 76.3304 960.904 76.5939 960.919 76.8719L961.086 80.001 966.732 80.4254 967.569 77.1471C967.78 76.307 967.994 75.4669 968.243 74.6239 971.275 64.5606 971.904 63.864 972.513 63.1937 974.142 61.3972 976.919 61.2612 978.715 62.8899 980.217 64.252 980.591 66.4659 979.62 68.2458L979.48 68.5385C979.219 69.1766 978.417 71.29 976.652 77.1529 976.21 78.6165 975.818 80.1151 975.464 81.5816L974.995 83.5398 976.655 84.6785C977.82 85.4951 978.923 86.3972 979.954 87.3772 981.675 86.298 983.417 85.2735 985.179 84.3038 984.07 83.152 982.885 82.0763 981.631 81.084 981.827 80.3376 982.035 79.5912 982.258 78.8506 983.876 73.4794 984.623 71.4627 984.842 70.9065 987.474 65.898 985.548 59.7041 980.54 57.0717 976.4 54.896 971.312 55.7999 968.175 59.2684 967.458 60.0295 966.872 60.905 966.443 61.8589 964.225 56.6168 958.177 54.1653 952.935 56.3833 949.377 57.8888 946.959 61.258 946.673 65.1109 942.834 60.9542 936.353 60.6965 932.196 64.5351 930.695 65.9211 929.643 67.7239 929.175 69.7123 928.683 71.7934 928.551 73.2833 930.931 84.3477 931.244 85.8112 931.613 87.348 932.029 88.9052 925.741 95.9755 921.199 104.422 918.766 113.566 916.552 122.61 915.6 131.916 915.936 141.221 915.936 142.111 915.929 143.007 915.915 143.911 913.904 143.996 910.406 144.236 905.65 144.912 894.644 146.475 888.737 149.557 882.251 157.127 876.309 164.061 868.303 175.784 867.399 197.45 866.666 211.544 870.722 225.472 878.908 236.969 884.352 244.433 888.726 249.772 891.439 252.936 892.939 254.799 894.545 256.574 896.251 258.252 900.462 262.131 904.884 265.774 909.496 269.167 925.995 281.07 944.717 289.538 964.552 294.067 971.092 295.278 977.734 295.866 984.385 295.824 999.606 295.824 1014.75 293.031 1021.71 288.269 1031.58 281.513 1040.17 261.831 1041.99 247.685 1044.78 227.073 1043.08 206.101 1037.01 186.207Z" stroke="#2E72B0" stroke-width="3.71366" fill="#2E72B0"/><path d="M982.948 157.452C982.725 157.451 982.502 157.425 982.284 157.375 980.709 157.011 979.727 155.44 980.091 153.864 980.091 153.864 980.091 153.864 980.091 153.863 981.617 147.289 985.068 135.466 991.062 130.124 998.126 123.587 1006.48 118.601 1015.59 115.489 1023.24 112.885 1027.33 104.57 1024.73 96.9181 1022.12 89.2661 1013.81 85.174 1006.16 87.7782 993.349 92.1534 981.584 99.1292 971.6 108.268 959.485 119.057 953.692 136.953 950.967 150.055 950.638 151.638 949.088 152.655 947.504 152.326 945.921 151.997 944.904 150.447 945.233 148.864 948.139 134.893 954.398 115.749 967.707 103.895 978.269 94.2345 990.714 86.8609 1004.26 82.2373 1014.97 78.5901 1026.61 84.3178 1030.26 95.0301 1033.91 105.742 1028.18 117.383 1017.47 121.03 1009.1 123.898 1001.43 128.485 994.946 134.494 991.451 137.609 988.112 145.152 985.788 155.183 985.482 156.506 984.307 157.446 982.948 157.452Z" stroke="#2E72B0" stroke-width="3.71366" fill="#2E72B0"/><path d="M1023.58 242.238C1022.3 237.07 1020.01 232.208 1016.83 227.936 1014.67 225.339 1011.68 221.935 1008.58 218.414 1004.88 214.208 1001.06 209.858 998.336 206.542 997.063 204.987 995.602 203.17 994.168 201.156 996.613 200.033 999.252 199.395 1001.94 199.277 1005.07 199.541 1008.13 200.362 1010.97 201.7 1012.35 202.534 1014.15 202.086 1014.99 200.701 1015.82 199.315 1015.37 197.517 1013.99 196.683 1010.46 194.883 1006.62 193.79 1002.68 193.464 998.645 193.453 994.657 194.353 991.015 196.098 988.83 192.214 987.624 187.855 987.503 183.4 987.818 175.119 990.75 167.15 995.877 160.639 996.923 159.407 996.772 157.559 995.539 156.513 994.307 155.468 992.459 155.619 991.413 156.852 985.351 164.418 981.922 173.755 981.649 183.447 981.748 195.275 988.987 204.349 993.524 209.89 995.362 215.884 995.302 222.299 993.354 228.258 992.216 231.84 990.755 235.313 988.99 238.631 987.323 241.758 985.941 245.029 984.863 248.405 983.687 253.911 983.149 259.534 983.262 265.162 983.29 266.758 984.592 268.037 986.189 268.037L986.241 268.037C987.858 268.008 989.145 266.674 989.116 265.058 989.116 265.058 989.116 265.057 989.116 265.057 989.018 259.991 989.483 254.929 990.503 249.965 991.493 246.945 992.744 244.017 994.241 241.213 996.175 237.569 997.765 233.753 998.992 229.815 1000.06 226.049 1000.61 222.156 1000.64 218.241 1001.81 219.576 1002.98 220.922 1004.16 222.263 1007.21 225.743 1010.17 229.107 1012.31 231.671 1014.9 235.25 1016.78 239.293 1017.85 243.581 1018.17 244.897 1019.35 245.826 1020.7 245.826 1020.93 245.828 1021.17 245.802 1021.4 245.75 1022.97 245.38 1023.94 243.809 1023.58 242.238Z" stroke="#2E72B0" stroke-width="3.71366" fill="#2E72B0"/></g></g></g></g></svg>