<svg width="335" height="335" xmlns="http://www.w3.org/2000/svg" xmlns:xlink="http://www.w3.org/1999/xlink" overflow="hidden"><defs><clipPath id="clip0"><rect x="15" y="10" width="335" height="335"/></clipPath><clipPath id="clip1"><rect x="53" y="44" width="257" height="258"/></clipPath><clipPath id="clip2"><rect x="53" y="44" width="257" height="258"/></clipPath><clipPath id="clip3"><rect x="53" y="44" width="257" height="258"/></clipPath><clipPath id="clip4"><rect x="48" y="43" width="234" height="249"/></clipPath><clipPath id="clip5"><rect x="48" y="43" width="234" height="249"/></clipPath><clipPath id="clip6"><rect x="48" y="43" width="266" height="267"/></clipPath></defs><g clip-path="url(#clip0)" transform="translate(-15 -10)"><g clip-path="url(#clip1)"><g clip-path="url(#clip2)"><g clip-path="url(#clip3)"><path d="M136.183 24.8969C155.391 45.9323 181.868 58.8932 210.263 61.1606 215.539 61.6551 219.559 66.1023 219.521 71.4005L219.521 97.245C219.521 153.424 183.79 204.818 134.178 236.619 130.77 238.807 126.399 238.807 122.991 236.619 73.3789 204.818 37.6478 153.424 37.6478 97.245L37.6478 71.4005C37.6095 66.1023 41.63 61.6551 46.9052 61.1606 75.3007 58.8932 101.777 45.9323 120.985 24.8969 124.606 20.7001 130.944 20.2333 135.141 23.8543 135.513 24.1758 135.862 24.5243 136.183 24.8969Z" fill="#FFFFFF" transform="matrix(1 0 -0 1.00389 53 44)"/></g></g></g><g clip-path="url(#clip4)"><g clip-path="url(#clip5)"><g clip-path="url(#clip6)"><path d="M217.344 60.6102C187.96 58.2359 160.576 44.7807 140.74 22.971 136.997 18.6285 130.442 18.1431 126.099 21.8867 125.711 22.2209 125.349 22.5833 125.015 22.971 105.181 44.7796 77.7925 58.2237 48.4079 60.5743 42.9428 61.1045 38.7864 65.7195 38.8293 71.2101L38.8293 98.0115C38.8293 156.302 75.7905 209.623 127.091 242.615 130.611 244.896 135.142 244.896 138.662 242.615 189.965 209.634 226.923 156.341 226.923 98.0502L226.923 71.2516C226.979 65.7549 222.817 61.1305 217.344 60.6102ZM221.388 98.0474C221.388 151.144 189.345 203.451 135.67 237.969 133.973 239.075 131.782 239.075 130.085 237.969 76.4104 203.454 44.3645 151.135 44.3645 98.0225L44.3645 71.2212C44.3152 68.6122 46.2606 66.3951 48.8535 66.1039 79.6454 63.6659 108.349 49.5775 129.114 26.71 130.803 24.6282 133.86 24.31 135.942 25.9993 136.203 26.211 136.441 26.4491 136.653 26.71 157.422 49.5756 186.121 63.6717 216.913 66.1316 219.508 66.4213 221.455 68.6407 221.404 71.2516Z" stroke="#2E72B0" stroke-width="2.66069" fill="#2E72B0" transform="matrix(1 0 -0 1.00251 48 43)"/></g></g></g><path d="M147 141 147 173.83" stroke="#2E72B0" stroke-width="8" stroke-linecap="round" stroke-miterlimit="8" fill="none" fill-rule="evenodd"/><path d="M128 119 147.669 138.669" stroke="#2E72B0" stroke-width="8" stroke-linecap="round" stroke-miterlimit="8" fill="none" fill-rule="evenodd"/><path d="M0 0 19.6686 19.6686" stroke="#2E72B0" stroke-width="8" stroke-linecap="round" stroke-miterlimit="8" fill="none" fill-rule="evenodd" transform="matrix(-1 -8.74228e-08 -8.74228e-08 1 166.669 119)"/><path d="M217 155 217 187.83" stroke="#2E72B0" stroke-width="8" stroke-linecap="round" stroke-miterlimit="8" fill="none" fill-rule="evenodd"/><path d="M197 133 216.669 152.669" stroke="#2E72B0" stroke-width="8" stroke-linecap="round" stroke-miterlimit="8" fill="none" fill-rule="evenodd"/><path d="M0 0 19.6686 19.6686" stroke="#2E72B0" stroke-width="8" stroke-linecap="round" stroke-miterlimit="8" fill="none" fill-rule="evenodd" transform="matrix(-1 -8.74228e-08 -8.74228e-08 1 236.669 133)"/><path d="M178 222 178 254.83" stroke="#2E72B0" stroke-width="8" stroke-linecap="round" stroke-miterlimit="8" fill="none" fill-rule="evenodd"/><path d="M158 200 177.669 219.669" stroke="#2E72B0" stroke-width="8" stroke-linecap="round" stroke-miterlimit="8" fill="none" fill-rule="evenodd"/><path d="M0 0 19.6686 19.6686" stroke="#2E72B0" stroke-width="8" stroke-linecap="round" stroke-miterlimit="8" fill="none" fill-rule="evenodd" transform="matrix(-1 -8.74228e-08 -8.74228e-08 1 197.669 200)"/></g></svg>