<svg width="336" height="335" xmlns="http://www.w3.org/2000/svg" xmlns:xlink="http://www.w3.org/1999/xlink" overflow="hidden"><defs><clipPath id="clip0"><rect x="791" y="233" width="336" height="335"/></clipPath><clipPath id="clip1"><rect x="924" y="337" width="185" height="185"/></clipPath><clipPath id="clip2"><rect x="924" y="337" width="185" height="185"/></clipPath><clipPath id="clip3"><rect x="924" y="337" width="185" height="185"/></clipPath><clipPath id="clip4"><rect x="921" y="336" width="168" height="179"/></clipPath><clipPath id="clip5"><rect x="921" y="336" width="168" height="179"/></clipPath><clipPath id="clip6"><rect x="921" y="336" width="191" height="192"/></clipPath></defs><g clip-path="url(#clip0)" transform="translate(-791 -233)"><path d="M903.285 282C915.205 282 925.997 286.838 933.809 294.66L936.001 297.32 936.173 297.178C943.063 292.518 951.368 289.796 960.309 289.796 984.149 289.796 1003.48 309.148 1003.48 333.02L1003.45 333.244 1005.35 334.273C1018.41 343.11 1027 358.076 1027 375.05 1027 398.814 1010.17 418.641 987.786 423.226L986.273 423.379 985.707 429C982.675 443.838 969.563 455 953.848 455 944.868 455 936.738 451.355 930.853 445.463L928.44 442.534 927.441 443.359C920.805 447.848 912.806 450.469 904.195 450.469 884.102 450.469 867.339 436.199 863.462 417.228L863.179 414.422 857.885 411.545C844.078 402.205 835 386.387 835 368.447 835 350.506 844.078 334.689 857.885 325.348L860.234 324.072 860.995 316.512C865.02 296.816 882.425 282 903.285 282Z" stroke="#2E72B0" stroke-width="8" stroke-miterlimit="8" fill="#FFFFFF" fill-rule="evenodd"/><path d="M881 321C881 310.507 889.73 302 900.5 302 911.27 302 920 310.507 920 321 920 331.493 911.27 340 900.5 340 889.73 340 881 331.493 881 321Z" stroke="#2E72B0" stroke-width="8" stroke-miterlimit="8" fill="#9EC4E6" fill-rule="evenodd"/><path d="M883 410C883 397.85 892.626 388 904.5 388 916.374 388 926 397.85 926 410 926 422.15 916.374 432 904.5 432 892.626 432 883 422.15 883 410Z" stroke="#2E72B0" stroke-width="8" stroke-miterlimit="8" fill="#9EC4E6" fill-rule="evenodd"/><path d="M858 365.5C858 360.806 861.806 357 866.5 357 871.194 357 875 360.806 875 365.5 875 370.194 871.194 374 866.5 374 861.806 374 858 370.194 858 365.5Z" fill="#2E72B0" fill-rule="evenodd"/><path d="M900 366.5C900 363.462 902.462 361 905.5 361 908.538 361 911 363.462 911 366.5 911 369.538 908.538 372 905.5 372 902.462 372 900 369.538 900 366.5Z" fill="#2E72B0" fill-rule="evenodd"/><path d="M937 384.5C937 376.492 943.268 370 951 370 958.732 370 965 376.492 965 384.5 965 392.508 958.732 399 951 399 943.268 399 937 392.508 937 384.5Z" stroke="#2E72B0" stroke-width="8" stroke-miterlimit="8" fill="#9EC4E6" fill-rule="evenodd"/><path d="M952 362.5C952 352.283 960.283 344 970.5 344 980.717 344 989 352.283 989 362.5 989 372.717 980.717 381 970.5 381 960.283 381 952 372.717 952 362.5Z" stroke="#2E72B0" stroke-width="8" stroke-miterlimit="8" fill="#9EC4E6" fill-rule="evenodd"/><g clip-path="url(#clip1)"><g clip-path="url(#clip2)"><g clip-path="url(#clip3)"><path d="M1022.03 354.922C1035.86 370.064 1054.92 379.394 1075.36 381.026 1079.15 381.382 1082.05 384.583 1082.02 388.397L1082.02 407.001C1082.02 447.441 1056.3 484.437 1020.59 507.329 1018.13 508.904 1014.99 508.904 1012.53 507.329 976.821 484.437 951.101 447.441 951.101 407.001L951.101 388.397C951.073 384.583 953.967 381.382 957.764 381.026 978.205 379.394 997.264 370.064 1011.09 354.922 1013.7 351.901 1018.26 351.565 1021.28 354.171 1021.55 354.403 1021.8 354.654 1022.03 354.922Z" fill="#FFFFFF"/></g></g></g><g clip-path="url(#clip4)"><g clip-path="url(#clip5)"><g clip-path="url(#clip6)"><path d="M156.042 43.515C134.945 41.8104 115.285 32.1503 101.044 16.492 98.3565 13.3743 93.6503 13.0258 90.5327 15.7136 90.2544 15.9535 89.9941 16.2137 89.7542 16.492 75.5149 32.1495 55.8511 41.8017 34.7544 43.4892 30.8307 43.8699 27.8466 47.1832 27.8774 51.1252L27.8774 70.3672C27.8774 112.217 54.4137 150.498 91.2445 174.185 93.7717 175.822 97.0248 175.822 99.5521 174.185 136.385 150.506 162.919 112.245 162.919 70.395L162.919 51.155C162.959 47.2086 159.971 43.8886 156.042 43.515ZM158.945 70.393C158.945 108.513 135.94 146.067 97.4041 170.849 96.1857 171.644 94.6128 171.644 93.3944 170.849 54.8588 146.069 31.8514 108.507 31.8514 70.3751L31.8514 51.1331C31.816 49.26 33.2127 47.6682 35.0743 47.4592 57.1813 45.7089 77.789 35.5941 92.697 19.1764 93.9098 17.6818 96.1047 17.4533 97.5993 18.6662 97.7866 18.8181 97.9575 18.9891 98.1095 19.1764 113.021 35.5927 133.625 45.713 155.732 47.4791 157.595 47.6871 158.993 49.2805 158.957 51.155Z" stroke="#2E72B0" stroke-width="3.34651" fill="#2E72B0" transform="matrix(1 0 -0 1.0038 921 336)"/></g></g></g><path d="M992 406 992 429.594" stroke="#2E72B0" stroke-width="8" stroke-linecap="round" stroke-miterlimit="8" fill="none" fill-rule="evenodd"/><path d="M978 391 992.135 405.135" stroke="#2E72B0" stroke-width="8" stroke-linecap="round" stroke-miterlimit="8" fill="none" fill-rule="evenodd"/><path d="M0 0 14.1353 14.1352" stroke="#2E72B0" stroke-width="8" stroke-linecap="round" stroke-miterlimit="8" fill="none" fill-rule="evenodd" transform="matrix(-1 -8.74228e-08 -8.74228e-08 1 1006.14 391)"/><path d="M1042 416 1042 439.594" stroke="#2E72B0" stroke-width="8" stroke-linecap="round" stroke-miterlimit="8" fill="none" fill-rule="evenodd"/><path d="M1028 401 1042.14 415.135" stroke="#2E72B0" stroke-width="8" stroke-linecap="round" stroke-miterlimit="8" fill="none" fill-rule="evenodd"/><path d="M0 0 14.1353 14.1352" stroke="#2E72B0" stroke-width="8" stroke-linecap="round" stroke-miterlimit="8" fill="none" fill-rule="evenodd" transform="matrix(-1 -8.74228e-08 -8.74228e-08 1 1056.14 401)"/><path d="M1014 465 1014 488.594" stroke="#2E72B0" stroke-width="8" stroke-linecap="round" stroke-miterlimit="8" fill="none" fill-rule="evenodd"/><path d="M1000 449 1014.14 463.135" stroke="#2E72B0" stroke-width="8" stroke-linecap="round" stroke-miterlimit="8" fill="none" fill-rule="evenodd"/><path d="M0 0 14.1353 14.1352" stroke="#2E72B0" stroke-width="8" stroke-linecap="round" stroke-miterlimit="8" fill="none" fill-rule="evenodd" transform="matrix(-1 -8.74228e-08 -8.74228e-08 1 1028.14 449)"/></g></svg>