<svg width="335" height="304" xmlns="http://www.w3.org/2000/svg" xmlns:xlink="http://www.w3.org/1999/xlink" overflow="hidden"><defs><clipPath id="clip0"><rect x="862" y="44" width="335" height="304"/></clipPath></defs><g clip-path="url(#clip0)" transform="translate(-862 -44)"><path d="M902 119.157C902 114.1 906.1 110 911.157 110L1148.84 110C1153.9 110 1158 114.1 1158 119.157L1158 272.843C1158 277.9 1153.9 282 1148.84 282L911.157 282C906.1 282 902 277.9 902 272.843Z" stroke="#2E72B0" stroke-width="8" stroke-miterlimit="8" fill="#FFFFFF" fill-rule="evenodd"/><text fill="#FFFFFF" font-family="Calibri,Calibri_MSFontService,sans-serif" font-weight="400" font-size="24" transform="translate(1023.58 203)">6</text><path d="M902 137 1158.22 137" stroke="#2E72B0" stroke-width="8" stroke-linecap="round" stroke-miterlimit="8" fill="none" fill-rule="evenodd"/><path d="M912 124C912 121.239 914.015 119 916.5 119 918.985 119 921 121.239 921 124 921 126.761 918.985 129 916.5 129 914.015 129 912 126.761 912 124Z" fill="#9EC4E6" fill-rule="evenodd"/><path d="M928 124C928 121.239 930.015 119 932.5 119 934.985 119 937 121.239 937 124 937 126.761 934.985 129 932.5 129 930.015 129 928 126.761 928 124Z" fill="#9EC4E6" fill-rule="evenodd"/><path d="M944 124C944 121.239 946.239 119 949 119 951.761 119 954 121.239 954 124 954 126.761 951.761 129 949 129 946.239 129 944 126.761 944 124Z" fill="#9EC4E6" fill-rule="evenodd"/><path d="M971 124 1138.17 124" stroke="#9EC4E6" stroke-width="8" stroke-linecap="round" stroke-miterlimit="8" fill="none" fill-rule="evenodd"/><path d="M925 164.099C925 161.835 926.835 160 929.099 160L1006.9 160C1009.16 160 1011 161.835 1011 164.099L1011 232.901C1011 235.165 1009.16 237 1006.9 237L929.099 237C926.835 237 925 235.165 925 232.901Z" stroke="#9EC4E6" stroke-width="8" stroke-miterlimit="8" fill="#FFFFFF" fill-rule="evenodd"/><text fill="#FFFFFF" font-family="Calibri,Calibri_MSFontService,sans-serif" font-weight="400" font-size="24" transform="translate(961.937 206)">6</text><path d="M925 258 1010.69 258" stroke="#9EC4E6" stroke-width="8" stroke-linecap="round" stroke-miterlimit="8" fill="none" fill-rule="evenodd"/><path d="M1036 258 1132.77 258" stroke="#9EC4E6" stroke-width="8" stroke-linecap="round" stroke-miterlimit="8" fill="none" fill-rule="evenodd"/><path d="M1036 235 1132.77 235" stroke="#9EC4E6" stroke-width="8" stroke-linecap="round" stroke-miterlimit="8" fill="none" fill-rule="evenodd"/><path d="M1036 210 1132.77 210" stroke="#9EC4E6" stroke-width="8" stroke-linecap="round" stroke-miterlimit="8" fill="none" fill-rule="evenodd"/><path d="M1036 186 1132.77 186" stroke="#9EC4E6" stroke-width="8" stroke-linecap="round" stroke-miterlimit="8" fill="none" fill-rule="evenodd"/><path d="M1036 160 1132.77 160" stroke="#9EC4E6" stroke-width="8" stroke-linecap="round" stroke-miterlimit="8" fill="none" fill-rule="evenodd"/></g></svg>