<svg width="335" height="304" xmlns="http://www.w3.org/2000/svg" xmlns:xlink="http://www.w3.org/1999/xlink" overflow="hidden"><defs><clipPath id="clip0"><rect x="44" y="366" width="335" height="304"/></clipPath><clipPath id="clip1"><rect x="79" y="385" width="265" height="265"/></clipPath><clipPath id="clip2"><rect x="79" y="385" width="265" height="265"/></clipPath><clipPath id="clip3"><rect x="79" y="385" width="265" height="265"/></clipPath></defs><g clip-path="url(#clip0)" transform="translate(-44 -366)"><path d="M135 446.5 229.5 411 324 446.5 229.5 482Z" fill="#9EC4E6" fill-rule="evenodd"/><path d="M101 459.5 195 424 289 459.5 195 495Z" fill="#9EC4E6" fill-rule="evenodd"/><path d="M108 496 193.886 531.009" stroke="#9EC4E6" stroke-width="9.66667" stroke-linecap="round" stroke-miterlimit="8" fill="none" fill-rule="evenodd"/><path d="M107 537 192.886 572.009" stroke="#9EC4E6" stroke-width="9.66667" stroke-linecap="round" stroke-miterlimit="8" fill="none" fill-rule="evenodd"/><path d="M106 579 191.886 614.009" stroke="#9EC4E6" stroke-width="9.66667" stroke-linecap="round" stroke-miterlimit="8" fill="none" fill-rule="evenodd"/><path d="M0 0 118.268 46.3839" stroke="#9EC4E6" stroke-width="9.66667" stroke-linecap="round" stroke-miterlimit="8" fill="none" fill-rule="evenodd" transform="matrix(1 0 0 -1 195 531.384)"/><path d="M0 0 118.268 46.3839" stroke="#9EC4E6" stroke-width="9.66667" stroke-linecap="round" stroke-miterlimit="8" fill="none" fill-rule="evenodd" transform="matrix(1 0 0 -1 192 574.384)"/><path d="M0 0 118.268 46.3839" stroke="#9EC4E6" stroke-width="9.66667" stroke-linecap="round" stroke-miterlimit="8" fill="none" fill-rule="evenodd" transform="matrix(1 0 0 -1 195 613.384)"/><path d="M0 0 0.000104987 39.1921" stroke="#9EC4E6" stroke-width="9.66667" stroke-linecap="round" stroke-miterlimit="8" fill="none" fill-rule="evenodd" transform="matrix(1 0 0 -1 106 578.192)"/><path d="M0 0 0.000104987 39.1921" stroke="#9EC4E6" stroke-width="9.66667" stroke-linecap="round" stroke-miterlimit="8" fill="none" fill-rule="evenodd" transform="matrix(1 0 0 -1 101 537.192)"/><path d="M0 0 0.000104987 11.6751" stroke="#9EC4E6" stroke-width="9.66667" stroke-linecap="round" stroke-miterlimit="8" fill="none" fill-rule="evenodd" transform="matrix(1 0 0 -1 97 522.675)"/><path d="M0 0 0.000104987 36.6825" stroke="#9EC4E6" stroke-width="9.66667" stroke-linecap="round" stroke-miterlimit="8" fill="none" fill-rule="evenodd" transform="matrix(1 0 0 -1 107 496.683)"/><g clip-path="url(#clip1)"><g clip-path="url(#clip2)"><g clip-path="url(#clip3)"><path d="M328.359 565.614 313.434 560.32 313.434 535.412 325.433 530.336C326.838 529.743 327.496 528.124 326.904 526.72 326.535 525.846 325.745 525.223 324.81 525.069L305.109 521.815 305.109 497.404 328.473 487.964C329.886 487.393 330.569 485.784 329.999 484.37 329.702 483.637 329.105 483.065 328.359 482.802L313.434 477.507 313.434 452.6 325.433 447.523C326.837 446.929 327.494 445.31 326.9 443.906 326.603 443.204 326.03 442.656 325.315 442.392L232.675 408.188C232.079 407.967 231.424 407.959 230.823 408.165L105.776 451.774C105.515 451.863 105.269 451.992 105.047 452.155 104.691 452.431 96.3078 458.808 96.3078 478.399 96.2741 482.861 96.7858 487.311 97.8316 491.649 94.577 494.409 88.0266 501.862 88.0266 517.045 87.9701 527.971 91.4688 538.618 97.9944 547.382 96.8186 551.896 96.2514 556.547 96.3078 561.211 96.3078 580.639 104.849 588.539 105.213 588.862 105.455 589.083 105.736 589.258 106.041 589.378L194.374 624.138C194.697 624.264 195.039 624.328 195.385 624.328 195.74 624.329 196.091 624.26 196.42 624.127L328.473 570.776C329.886 570.205 330.569 568.596 329.999 567.183 329.702 566.449 329.105 565.878 328.359 565.614ZM299.588 522.276 195.272 563.842 107.888 529.442 107.888 507.328 194.385 541.325C195.042 541.587 195.774 541.587 196.431 541.325L299.582 499.643ZM195.387 618.595 108.628 584.459C107.28 582.958 101.834 575.971 101.834 561.211 101.755 556.602 102.381 552.008 103.692 547.589 103.991 546.65 103.767 545.623 103.104 544.894 96.8335 536.97 93.4632 527.138 93.5529 517.034 93.5529 500.623 102.036 495.309 102.386 495.102 103.491 494.462 104.013 493.148 103.648 491.925 102.399 487.526 101.791 482.971 101.842 478.399 101.842 463.722 106.952 457.933 108.106 456.812L231.69 413.708 316.793 445.133C316.832 445.133 316.832 445.172 316.793 445.185L195.387 494.376 114.419 462.504C113 461.946 111.398 462.644 110.84 464.063 110.713 464.385 110.648 464.728 110.648 465.074L110.648 492.678C110.648 493.811 111.341 494.83 112.396 495.246L194.385 527.523C195.042 527.785 195.774 527.785 196.431 527.523L309.401 481.866 319.587 485.545C319.623 485.559 319.623 485.581 319.587 485.598L195.387 535.782 106.138 500.708C104.719 500.151 103.116 500.848 102.558 502.267 102.432 502.589 102.367 502.932 102.367 503.278L102.367 531.324C102.367 532.457 103.06 533.475 104.114 533.891L194.267 569.379C194.919 569.638 195.646 569.638 196.298 569.379L302.654 527.007 314.408 528.939C314.461 528.939 314.464 528.972 314.408 528.992L195.387 577.188 114.419 545.317C113 544.759 111.398 545.457 110.84 546.875 110.713 547.197 110.648 547.541 110.648 547.887L110.648 575.491C110.648 576.624 111.341 577.642 112.396 578.058L194.385 610.336C195.042 610.598 195.774 610.598 196.431 610.336L309.401 564.678 319.587 568.358C319.623 568.358 319.623 568.394 319.587 568.41ZM307.913 476.513 195.387 521.98 116.163 490.787 116.163 469.118 194.385 499.919C195.042 500.181 195.774 500.181 196.431 499.919L307.913 454.863ZM307.913 559.326 195.387 604.793 116.163 573.6 116.163 551.931 194.385 582.731C195.042 582.993 195.774 582.993 196.431 582.731L307.913 537.676Z" stroke="#2E72B0" stroke-width="2.76039" fill="#2E72B0"/></g></g></g></g></svg>