<svg width="335" height="305" xmlns="http://www.w3.org/2000/svg" xmlns:xlink="http://www.w3.org/1999/xlink" overflow="hidden"><defs><clipPath id="clip0"><rect x="21" y="36" width="335" height="305"/></clipPath><clipPath id="clip1"><rect x="187" y="66" width="142" height="143"/></clipPath><clipPath id="clip2"><rect x="187" y="66" width="142" height="143"/></clipPath><clipPath id="clip3"><rect x="187" y="66" width="142" height="143"/></clipPath></defs><g clip-path="url(#clip0)" transform="translate(-21 -36)"><path d="M88.2502 88 254.75 88C263.724 88 271 95.2834 271 104.268L271 226.944C271 235.929 263.724 243.212 254.75 243.212L117.982 243.212 72.1408 289 72.1408 227.642 72 226.944 72 104.268C72 95.2834 79.2755 88 88.2502 88Z" stroke="#2E72B0" stroke-width="8" stroke-miterlimit="8" fill="#FFFFFF" fill-rule="evenodd"/><path d="M111 165 233.5 165" stroke="#9EC4E6" stroke-width="8" stroke-linecap="round" stroke-miterlimit="8" fill="none" fill-rule="evenodd"/><path d="M111 196 170 196" stroke="#9EC4E6" stroke-width="8" stroke-linecap="round" stroke-miterlimit="8" fill="none" fill-rule="evenodd"/><path d="M300.358 94.6696C307.153 101.465 307.153 112.482 300.358 119.277L258.675 160.96C251.88 167.755 240.863 167.755 234.068 160.96L234.068 160.96C227.273 154.165 227.273 143.148 234.068 136.352L275.751 94.6696C282.546 87.8745 293.563 87.8745 300.358 94.6696Z" fill="#FFFFFF" fill-rule="evenodd"/><g clip-path="url(#clip1)"><g clip-path="url(#clip2)"><g clip-path="url(#clip3)"><path d="M36.9792 105.169C39.9375 108.127 39.9375 112.712 36.9792 115.671L24.4062 119.812 22.1875 117.594 26.3292 105.021C29.4354 102.21 34.0208 102.21 36.9792 105.169ZM95.1104 27.9562 21.1521 102.062 11.8333 130.167 40.0854 120.848 114.044 46.8896" fill="#2E72B0" transform="matrix(1 0 -0 1.00704 187 66)"/><path d="M128.54 23.9625 118.037 13.4604C115.671 11.0938 111.973 11.0938 109.606 13.4604L99.2521 23.8146 118.037 42.6 128.392 32.2458C130.906 30.0271 130.906 26.3292 128.54 23.9625Z" fill="#2E72B0" transform="matrix(1 0 -0 1.00704 187 66)"/></g></g></g><path d="M111 134 233.5 134" stroke="#9EC4E6" stroke-width="8" stroke-linecap="round" stroke-miterlimit="8" fill="none" fill-rule="evenodd"/></g></svg>