<svg width="335" height="305" xmlns="http://www.w3.org/2000/svg" xmlns:xlink="http://www.w3.org/1999/xlink" overflow="hidden"><defs><clipPath id="clip0"><rect x="430" y="36" width="335" height="305"/></clipPath><clipPath id="clip1"><rect x="578" y="145" width="146" height="147"/></clipPath><clipPath id="clip2"><rect x="578" y="145" width="146" height="147"/></clipPath><clipPath id="clip3"><rect x="578" y="145" width="146" height="147"/></clipPath></defs><g clip-path="url(#clip0)" transform="translate(-430 -36)"><path d="M502.987 85 609.923 85 651 126.083 651 275.012C651 281.08 646.081 286 640.013 286L502.987 286C496.919 286 492 281.08 492 275.012L492 95.9884C492 89.9197 496.919 85 502.987 85Z" stroke="#2E72B0" stroke-width="8" stroke-miterlimit="8" fill="#FFFFFF" fill-rule="evenodd"/><path d="M611 125 611 85 651 125Z" stroke="#2E72B0" stroke-width="8" stroke-linejoin="round" stroke-miterlimit="10" fill="#FFFFFF" fill-rule="evenodd"/><path d="M516 143 625.179 143" stroke="#9EC4E6" stroke-width="8" stroke-linecap="round" stroke-miterlimit="8" fill="none" fill-rule="evenodd"/><path d="M516 109 587.579 109" stroke="#9EC4E6" stroke-width="8" stroke-linecap="round" stroke-miterlimit="8" fill="none" fill-rule="evenodd"/><path d="M516 178 625.179 178" stroke="#9EC4E6" stroke-width="8" stroke-linecap="round" stroke-miterlimit="8" fill="none" fill-rule="evenodd"/><path d="M516 213 625.179 213" stroke="#9EC4E6" stroke-width="8" stroke-linecap="round" stroke-miterlimit="8" fill="none" fill-rule="evenodd"/><path d="M516 248 625.179 248" stroke="#9EC4E6" stroke-width="8" stroke-linecap="round" stroke-miterlimit="8" fill="none" fill-rule="evenodd"/><path d="M592 202C592 178.804 611.252 160 635 160 658.748 160 678 178.804 678 202 678 225.196 658.748 244 635 244 611.252 244 592 225.196 592 202Z" fill="#FFFFFF" fill-rule="evenodd"/><g clip-path="url(#clip1)"><g clip-path="url(#clip2)"><g clip-path="url(#clip3)"><path d="M108.435 94.1396C105.09 90.7938 99.6146 90.9458 95.5083 94.1396L89.1208 87.7521C105.698 69.8063 104.633 41.975 86.6875 25.3979 68.7417 8.82083 41.0625 10.0375 24.4854 27.9833 7.90833 45.9292 9.125 73.7604 26.9188 90.3375 43.9521 106.154 70.2625 106.002 87.1438 90.0333L93.5312 96.4208C92.1625 98.0938 91.4021 100.223 91.0979 102.352 90.7938 104.938 91.7063 107.523 93.5312 109.348L114.975 130.792C116.648 132.312 118.777 133.225 121.058 133.225 124.1 133.225 126.838 132.008 128.967 129.879 130.944 128.054 132.16 125.469 132.312 122.731 132.617 120.146 131.704 117.56 129.879 115.735L108.435 94.1396ZM27.9833 86.8396C12.0146 70.8708 12.0146 44.8646 27.9833 28.7437 43.9521 12.6229 69.9583 12.775 86.0792 28.7437 102.2 44.7125 102.048 70.7188 86.0792 86.8396 78.3229 94.5958 67.9813 98.8542 57.0312 98.8542 46.2333 98.8542 35.7396 94.5958 27.9833 86.8396ZM126.685 127.446C123.796 130.335 119.385 130.792 116.952 128.358L95.6604 107.067C94.4437 105.85 93.9875 104.177 94.1396 102.504 94.2917 100.527 95.2042 98.7021 96.725 97.3333 98.2458 95.8125 100.375 94.9 102.504 94.7479 104.025 94.7479 105.394 95.2042 106.458 96.2688L127.75 117.713C128.967 118.929 129.423 120.602 129.271 122.275 128.967 124.252 128.206 126.077 126.685 127.446 126.685 127.446 126.685 127.446 126.685 127.446Z" stroke="#2E72B0" stroke-width="7.60417" fill="#2E72B0" transform="matrix(1 0 -0 1.00685 578 145)"/></g></g></g></g></svg>