<svg width="444" height="808" xmlns="http://www.w3.org/2000/svg" xmlns:xlink="http://www.w3.org/1999/xlink" overflow="hidden"><defs><clipPath id="clip0"><rect x="576" y="120" width="444" height="808"/></clipPath></defs><g clip-path="url(#clip0)" transform="translate(-576 -120)"><text font-family="Calibri,Calibri_MSFontService,sans-serif" font-weight="400" font-size="16" transform="translate(854.201 182)">SELEX invented<tspan x="0" y="19">(Gold, et. al.)</tspan></text><path d="M0 0 0.000104987 29" stroke="#2E72B0" stroke-width="2" stroke-linecap="round" stroke-linejoin="round" stroke-miterlimit="10" fill="none" fill-rule="evenodd" transform="matrix(6.12323e-17 1 1 -6.12323e-17 816 185)"/><path d="M0 0 0.000104987 29" stroke="#2E72B0" stroke-width="2" stroke-linecap="round" stroke-linejoin="round" stroke-miterlimit="10" fill="none" fill-rule="evenodd" transform="matrix(6.12323e-17 1 1 -6.12323e-17 730 277)"/><text font-family="Calibri,Calibri_MSFontService,sans-serif" font-weight="400" font-size="16" transform="translate(651.27 234)">Post-<tspan x="32.8333" y="0">SELEX </tspan><tspan x="-6.88" y="19">stabilization </tspan><tspan x="-18.24" y="38">processes (PK </tspan><tspan x="-54.3666" y="58">improvement) with </tspan><tspan x="-15.6467" y="77">PEG/2’</tspan><tspan x="28.8333" y="77">-</tspan><tspan x="33.6667" y="77">O</tspan><tspan x="44.3333" y="77">-</tspan><tspan x="49.1667" y="77">Me </tspan><tspan x="-17.3867" y="96">modifications</tspan></text><path d="M0 0 0.000104987 29" stroke="#2E72B0" stroke-width="2" stroke-linecap="round" stroke-linejoin="round" stroke-miterlimit="10" fill="none" fill-rule="evenodd" transform="matrix(6.12323e-17 1 1 -6.12323e-17 817 416)"/><text font-family="Calibri,Calibri_MSFontService,sans-serif" font-weight="400" font-size="16" transform="translate(854.201 392)">SELEX improvements: <tspan x="0" y="19">stabilized </tspan><tspan x="64.2667" y="19">2’</tspan><tspan x="76.4333" y="19">-</tspan><tspan x="81.2667" y="19">fluoro </tspan><tspan x="0" y="38">compositions</tspan><tspan x="0" y="58">(</tspan><tspan x="4.83331" y="58">Macugen</tspan><tspan x="65.0333" y="58">® approval)</tspan></text><path d="M0 0 0.000104987 29" stroke="#2E72B0" stroke-width="2" stroke-linecap="round" stroke-linejoin="round" stroke-miterlimit="10" fill="none" fill-rule="evenodd" transform="matrix(6.12323e-17 1 1 -6.12323e-17 731 495)"/><text font-family="Calibri,Calibri_MSFontService,sans-serif" font-weight="400" font-size="16" transform="translate(625.628 481)">Cell SELEX with <tspan x="15.62" y="19">better target </tspan><tspan x="33.3333" y="38">specificity </tspan></text><path d="M0 0 0.000104987 29" stroke="#2E72B0" stroke-width="2" stroke-linecap="round" stroke-linejoin="round" stroke-miterlimit="10" fill="none" fill-rule="evenodd" transform="matrix(6.12323e-17 1 1 -6.12323e-17 818 544)"/><path d="M0 0 0.000104987 29" stroke="#2E72B0" stroke-width="2" stroke-linecap="round" stroke-linejoin="round" stroke-miterlimit="10" fill="none" fill-rule="evenodd" transform="matrix(6.12323e-17 1 1 -6.12323e-17 730 619)"/><path d="M0 0 0.000104987 29" stroke="#2E72B0" stroke-width="2" stroke-linecap="round" stroke-linejoin="round" stroke-miterlimit="10" fill="none" fill-rule="evenodd" transform="matrix(6.12323e-17 1 1 -6.12323e-17 818 716)"/><path d="M0 0 0.000104987 29" stroke="#2E72B0" stroke-width="2" stroke-linecap="round" stroke-linejoin="round" stroke-miterlimit="10" fill="none" fill-rule="evenodd" transform="matrix(6.12323e-17 1 1 -6.12323e-17 730 770)"/><text font-family="Calibri,Calibri_MSFontService,sans-serif" font-weight="400" font-size="16" transform="translate(854.201 530)">Protein SELEX <tspan x="0" y="19">using fully 2’OME </tspan><tspan x="0" y="38">Modification</tspan><tspan x="0.686523" y="172">Cell SELEX using </tspan><tspan x="0.686523" y="191">Fully 2’OME </tspan><tspan x="0.686523" y="210">Modification</tspan><tspan x="-208.122" y="75">Fully 2’OME </tspan><tspan x="-229.915" y="94">aptamer BT200 </tspan><tspan x="-200.648" y="113">discovered</tspan><tspan x="-197.74" y="236">BT200 FIH </tspan><tspan x="-164.78" y="255">2019</tspan></text><path d="M788.5 120C804.792 120 818 133.208 818 149.5L818 867.5C818 883.793 804.792 897.001 788.5 897.001L788.5 897C772.207 897 758.999 883.792 758.999 867.5L759 149.5C759 133.208 772.208 120 788.5 120Z" fill="#FF9F4F" fill-rule="evenodd"/><path d="M818 853 818 910.95 788.5 927 759 910.95 759 853Z" fill="#FF9F4F" fill-rule="evenodd"/><text fill="#FFFFFF" font-family="Calibri,Calibri_MSFontService,sans-serif" font-weight="700" font-size="24" transform="translate(763.977 178)">1990<tspan x="-6.10352e-05" y="180">2000</tspan><tspan x="-6.10352e-05" y="374">2010</tspan><tspan x="-6.10352e-05" y="537">2018</tspan></text></g></svg>