<svg width="1224" height="196" xmlns="http://www.w3.org/2000/svg" xmlns:xlink="http://www.w3.org/1999/xlink" overflow="hidden"><defs><clipPath id="clip0"><rect x="33" y="442" width="1224" height="196"/></clipPath></defs><g clip-path="url(#clip0)" transform="translate(-33 -442)"><text font-family="Calibri,Calibri_MSFontService,sans-serif" font-weight="400" font-size="16" transform="translate(56.197 463)">SELEX invented<tspan x="13.8467" y="19">(Gold, et. al</tspan><tspan x="89.26" y="19">.)</tspan><tspan x="-7.92667" y="38">(Ellington, et. al)</tspan></text><path d="M63 538.001C63 521.984 75.9838 509 92.0001 509L1182 509C1198.02 509 1211 521.984 1211 538.001L1211 538.001C1211 554.017 1198.02 567.001 1182 567.001L92.0001 567C75.9838 567 63 554.016 63 537.999Z" fill="#FF9F4F" fill-rule="evenodd"/><path d="M1147 509 1240.22 509 1256 538 1240.22 567 1147 567Z" fill="#FF9F4F" fill-rule="evenodd"/><text fill="#FFFFFF" font-family="Calibri,Calibri_MSFontService,sans-serif" font-weight="700" font-size="24" transform="translate(110.231 547)">1990<tspan x="266.388" y="0">2000</tspan><tspan x="556.518" y="0">2010</tspan><tspan x="797.099" y="0">2018</tspan></text><path d="M0 0 0.000104987 57" stroke="#2E72B0" stroke-width="2" stroke-linecap="round" stroke-linejoin="round" stroke-miterlimit="10" fill="none" fill-rule="evenodd" transform="matrix(1 0 0 -1 159 510)"/><path d="M0 0 0.000104987 57" stroke="#2E72B0" stroke-width="2" stroke-linecap="round" stroke-linejoin="round" stroke-miterlimit="10" fill="none" fill-rule="evenodd" transform="matrix(1 0 0 -1 295 624)"/><text font-family="Calibri,Calibri_MSFontService,sans-serif" font-weight="400" font-size="16" transform="translate(300.036 586)">Post-<tspan x="32.8333" y="0">SELEX stabilization </tspan><tspan x="0" y="19">processes (PK improvement) </tspan><tspan x="0" y="38">with PEG/2’OME modifications</tspan></text><path d="M0 0 0.000104987 57" stroke="#2E72B0" stroke-width="2" stroke-linecap="round" stroke-linejoin="round" stroke-miterlimit="10" fill="none" fill-rule="evenodd" transform="matrix(1 0 0 -1 501 509)"/><text font-family="Calibri,Calibri_MSFontService,sans-serif" font-weight="400" font-size="16" transform="translate(291.179 462)">SELEX improvements: stabilized <tspan x="57.6933" y="19">2’</tspan><tspan x="69.86" y="19">-</tspan><tspan x="74.6933" y="19">fluoro compositions</tspan><tspan x="66.5" y="38">(</tspan><tspan x="71.3333" y="38">Macugen</tspan>® approval)</text><path d="M0 0 0.000104987 57" stroke="#2E72B0" stroke-width="2" stroke-linecap="round" stroke-linejoin="round" stroke-miterlimit="10" fill="none" fill-rule="evenodd" transform="matrix(1 0 0 -1 617 623)"/><text font-family="Calibri,Calibri_MSFontService,sans-serif" font-weight="400" font-size="16" transform="translate(622.658 603)">Cell SELEX broadens <tspan x="0" y="19">target access</tspan></text><path d="M0 0 0.000104987 58" stroke="#2E72B0" stroke-width="2" stroke-linecap="round" stroke-linejoin="round" stroke-miterlimit="10" fill="none" fill-rule="evenodd" transform="matrix(1 0 0 -1 690 509)"/><path d="M0 0 0.000104987 57" stroke="#2E72B0" stroke-width="2" stroke-linecap="round" stroke-linejoin="round" stroke-miterlimit="10" fill="none" fill-rule="evenodd" transform="matrix(1 0 0 -1 800 624)"/><path d="M0 0 0.000104987 58" stroke="#2E72B0" stroke-width="2" stroke-linecap="round" stroke-linejoin="round" stroke-miterlimit="10" fill="none" fill-rule="evenodd" transform="matrix(1 0 0 -1 944 509)"/><path d="M0 0 0.000104987 57" stroke="#2E72B0" stroke-width="2" stroke-linecap="round" stroke-linejoin="round" stroke-miterlimit="10" fill="none" fill-rule="evenodd" transform="matrix(1 0 0 -1 1024 624)"/><text font-family="Calibri,Calibri_MSFontService,sans-serif" font-weight="400" font-size="16" transform="translate(696.857 463)">Protein SELEX using fully <tspan x="0" y="19">2’OME modification</tspan><tspan x="253.421" y="0">Cell SELEX using Fully </tspan><tspan x="253.421" y="19">2’OME modification</tspan><tspan x="110.445" y="140">Fully 2’OME aptamer </tspan><tspan x="110.445" y="159">BT200 discovered</tspan><tspan x="333.142" y="157">BT200 FIH 2019</tspan></text></g></svg>