<svg width="1277" height="196" xmlns="http://www.w3.org/2000/svg" xmlns:xlink="http://www.w3.org/1999/xlink" overflow="hidden"><defs><clipPath id="clip0"><rect x="8" y="442" width="1277" height="196"/></clipPath></defs><g clip-path="url(#clip0)" transform="translate(-8 -442)"><text font-family="Calibri,Calibri_MSFontService,sans-serif" font-weight="400" font-size="16" transform="translate(31.0809 463)">SELEX invented<tspan font-size="16" x="13.8467" y="19">(Gold, et. al.)</tspan><tspan font-size="16" x="-7.92667" y="38">(Ellington, et. al)</tspan></text><path d="M38 538.001C38 521.984 50.9838 509 67.0001 509L1157 509C1173.02 509 1186 521.984 1186 538.001L1186 538.001C1186 554.017 1173.02 567.001 1157 567.001L67.0001 567C50.9838 567 38 554.016 38 537.999Z" fill="#FF9F4F" fill-rule="evenodd"/><path d="M1122 509 1215.22 509 1231 538 1215.22 567 1122 567Z" fill="#FF9F4F" fill-rule="evenodd"/><text fill="#FFFFFF" font-family="Calibri,Calibri_MSFontService,sans-serif" font-weight="700" font-size="24" transform="translate(85.1149 547)">1990<tspan font-size="24" x="266.388" y="0">2000</tspan><tspan font-size="24" x="556.518" y="0">2010</tspan><tspan font-size="24" x="797.099" y="0">2018</tspan></text><path d="M0 0 0.000104987 57" stroke="#2E72B0" stroke-width="2" stroke-linecap="round" stroke-linejoin="round" stroke-miterlimit="10" fill="none" fill-rule="evenodd" transform="matrix(1 0 0 -1 134 510)"/><path d="M0 0 0.000104987 57" stroke="#2E72B0" stroke-width="2" stroke-linecap="round" stroke-linejoin="round" stroke-miterlimit="10" fill="none" fill-rule="evenodd" transform="matrix(1 0 0 -1 270 624)"/><text font-family="Calibri,Calibri_MSFontService,sans-serif" font-weight="400" font-size="16" transform="translate(274.92 586)">Post-<tspan font-size="16" x="32.8333" y="0">SELEX stabilization </tspan><tspan font-size="16" x="0" y="19">processes (PK improvement) </tspan><tspan font-size="16" x="0" y="38">with PEG/2’OME modifications</tspan></text><path d="M0 0 0.000104987 57" stroke="#2E72B0" stroke-width="2" stroke-linecap="round" stroke-linejoin="round" stroke-miterlimit="10" fill="none" fill-rule="evenodd" transform="matrix(1 0 0 -1 476 509)"/><text font-family="Calibri,Calibri_MSFontService,sans-serif" font-weight="400" font-size="16" transform="translate(266.063 462)">SELEX improvements: stabilized <tspan font-size="16" x="57.6934" y="19">2’</tspan><tspan font-size="16" x="69.86" y="19">-</tspan><tspan font-size="16" x="74.6934" y="19">fluoro compositions</tspan><tspan font-size="16" x="66.5" y="38">(</tspan><tspan font-size="16" x="71.3333" y="38">Macugen</tspan>® approval)</text><path d="M0 0 0.000104987 57" stroke="#2E72B0" stroke-width="2" stroke-linecap="round" stroke-linejoin="round" stroke-miterlimit="10" fill="none" fill-rule="evenodd" transform="matrix(1 0 0 -1 592 623)"/><text font-family="Calibri,Calibri_MSFontService,sans-serif" font-weight="400" font-size="16" transform="translate(597.542 603)">Cell SELEX broadens <tspan font-size="16" x="0" y="19">target access</tspan></text><path d="M0 0 0.000104987 58" stroke="#2E72B0" stroke-width="2" stroke-linecap="round" stroke-linejoin="round" stroke-miterlimit="10" fill="none" fill-rule="evenodd" transform="matrix(1 0 0 -1 665 509)"/><path d="M0 0 0.000104987 57" stroke="#2E72B0" stroke-width="2" stroke-linecap="round" stroke-linejoin="round" stroke-miterlimit="10" fill="none" fill-rule="evenodd" transform="matrix(1 0 0 -1 775 624)"/><path d="M0 0 0.000104987 58" stroke="#2E72B0" stroke-width="2" stroke-linecap="round" stroke-linejoin="round" stroke-miterlimit="10" fill="none" fill-rule="evenodd" transform="matrix(1 0 0 -1 919 509)"/><path d="M0 0 0.000104987 57" stroke="#2E72B0" stroke-width="2" stroke-linecap="round" stroke-linejoin="round" stroke-miterlimit="10" fill="none" fill-rule="evenodd" transform="matrix(1 0 0 -1 999 624)"/><text font-family="Calibri,Calibri_MSFontService,sans-serif" font-weight="400" font-size="16" transform="translate(671.74 463)">Protein SELEX using fully <tspan font-size="16" x="0" y="19">2’OME modification</tspan><tspan font-size="16" x="253.421" y="0">Cell SELEX using Fully </tspan><tspan font-size="16" x="253.421" y="19">2’OME modification</tspan><tspan font-size="16" x="110.445" y="140">Fully 2’OME aptamer </tspan><tspan font-size="16" x="110.445" y="159">BT200 discovered</tspan><tspan font-size="16" x="333.142" y="157">BT200 FIH 2019</tspan></text><path d="M0 0 0.000104987 58" stroke="#2E72B0" stroke-width="2" stroke-linecap="round" stroke-linejoin="round" stroke-miterlimit="10" fill="none" fill-rule="evenodd" transform="matrix(1 0 0 -1 1113 509)"/><text font-family="Calibri,Calibri_MSFontService,sans-serif" font-weight="400" font-size="16" transform="translate(1120.3 463)">BT200 Phase 2<tspan font-size="16" x="0" y="19">4Q2</tspan><tspan font-size="16" x="27.1667" y="19">0</tspan></text></g></svg>