<svg width="1115" height="601" xmlns="http://www.w3.org/2000/svg" xmlns:xlink="http://www.w3.org/1999/xlink" overflow="hidden"><defs><clipPath id="clip0"><rect x="6" y="112" width="1115" height="601"/></clipPath><radialGradient cx="-19049.9" cy="-115012" r="1.50109e+06" fx="-19050" fy="-115012" gradientUnits="userSpaceOnUse" spreadMethod="pad" id="fill1" gradientTransform="matrix(-6.24779e-06 -0.000104801 0.000104801 -6.24779e-06 486.279 649.656)"><stop offset="0" stop-color="#F7C8A8"/><stop offset="0.63" stop-color="#EE843B"/><stop offset="1" stop-color="#9E480E"/></radialGradient><radialGradient cx="-19050" cy="-11235.4" r="1.40604e+06" fy="-11235.4" gradientUnits="userSpaceOnUse" spreadMethod="pad" id="stroke2" gradientTransform="scale(0.000104987 0.000104987)"><stop offset="0" stop-color="#F8CBAD"/><stop offset="0.31" stop-color="#EE843B"/><stop offset="0.41" stop-color="#CE6B27"/><stop offset="1" stop-color="#CE6B27"/></radialGradient><linearGradient x1="612.277" y1="244.098" x2="788.498" y2="568.726" gradientUnits="userSpaceOnUse" spreadMethod="reflect" id="stroke3"><stop offset="0" stop-color="#FFE699"/><stop offset="0.38" stop-color="#FFD966"/><stop offset="0.64" stop-color="#F4B183"/><stop offset="1" stop-color="#C55A11"/></linearGradient><linearGradient x1="701.446" y1="187.152" x2="717.193" y2="240.523" gradientUnits="userSpaceOnUse" spreadMethod="reflect" id="fill4"><stop offset="0" stop-color="#FFF2CC"/><stop offset="0.6" stop-color="#FFE080"/><stop offset="1" stop-color="#FFE080"/></linearGradient><linearGradient x1="864.204" y1="542.899" x2="824.178" y2="504.242" gradientUnits="userSpaceOnUse" spreadMethod="reflect" id="fill5"><stop offset="0" stop-color="#CB651F"/><stop offset="1" stop-color="#CA641E"/></linearGradient><linearGradient x1="468.536" y1="520.777" x2="487.628" y2="544.996" gradientUnits="userSpaceOnUse" spreadMethod="reflect" id="fill6"><stop offset="0" stop-color="#FFC000"/><stop offset="0.34" stop-color="#FFC000"/><stop offset="1" stop-color="#F7BC7B"/></linearGradient></defs><g clip-path="url(#clip0)" transform="translate(-6 -112)"><path d="M6 457C6 433.252 25.2517 414 48.9999 414L322 414C345.748 414 365 433.252 365 457L365 457C365 480.748 345.748 500 322 500L48.9999 500C25.2517 500 6 480.748 6 457Z" fill="#FF9F4F" fill-rule="evenodd"/><path d="M6 157C6 133.252 25.2517 114 48.9999 114L322 114C345.748 114 365 133.252 365 157L365 157C365 180.748 345.748 200 322 200L48.9999 200C25.2517 200 6 180.748 6 157Z" fill="#FF9F4F" fill-rule="evenodd"/><text fill="#FFFFFF" font-family="Calibri,Calibri_MSFontService,sans-serif" font-weight="400" font-size="21" transform="translate(49.1945 139)">Proprietary T7 RNA polymerase <tspan x="-21.84" y="26">capable of high yield transcription of </tspan><tspan x="48.4733" y="51">nuclease stable RNA</tspan><tspan x="-9.74509" y="299">Aptamer identification using Next </tspan><tspan x="-26.2918" y="325">Generation Sequencing and Guardian </tspan><tspan x="0.148243" y="350">bioinformatics analysis pipeline </tspan></text><path d="M953.5 407.749C953.5 402.089 958.089 397.5 963.749 397.5L1110.25 397.5C1115.91 397.5 1120.5 402.089 1120.5 407.749L1120.5 550.251C1120.5 555.911 1115.91 560.5 1110.25 560.5L963.749 560.5C958.089 560.5 953.5 555.911 953.5 550.251Z" stroke="#828282" stroke-width="1.33333" stroke-miterlimit="8" fill="#FFFFFF" fill-rule="evenodd"/><path d="M963.022 397.5 1110.98 397.5C1116.24 397.5 1120.5 401.763 1120.5 407.022L1120.5 423.5 953.5 423.5 953.5 407.022C953.5 401.763 957.763 397.5 963.022 397.5Z" stroke="#828282" stroke-width="1.33333" stroke-miterlimit="8" fill="#828282" fill-rule="evenodd"/><path d="M491.893 621.072 501.27 614.732 509.733 610.071 517.994 606.383 525.938 603.603 533.599 601.546 540.944 600.205 547.914 599.402 554.557 599.129 560.825 599.262 566.646 599.677 572.118 600.37 577.019 601.087 581.541 601.826 585.552 602.532 589.008 602.998 588.472 606.962 584.858 606.471 580.896 605.774 576.44 605.045 571.614 604.338 566.36 603.667 560.738 603.261 554.718 603.126 548.369 603.376 541.658 604.141 534.633 605.41 527.256 607.379 519.622 610.036 511.659 613.576 503.511 618.045 494.133 624.385ZM498.225 626.311 485.033 628.756 490.992 616.735Z" fill="url(#fill1)"/><path d="M20.9294 0C57.2151 49.684 41.5519 87.6255 38.4748 104.917" stroke="url(#stroke2)" stroke-width="4" stroke-linejoin="round" stroke-miterlimit="10" fill="none" fill-rule="evenodd" transform="matrix(-0.556659 -0.830741 -0.830741 0.556659 960.545 490.076)"/><path d="M474.543 529.01C427.593 442.521 490.647 317.519 615.378 249.81 740.108 182.101 879.283 197.325 926.233 283.813 973.182 370.302 910.128 495.304 785.397 563.013 660.667 630.722 521.492 615.498 474.543 529.01Z" stroke="url(#stroke3)" stroke-width="13" stroke-miterlimit="8" fill="none" fill-rule="evenodd"/><path d="M370.5 184.677C370.5 177.952 375.952 172.5 382.677 172.5L563.323 172.5C570.048 172.5 575.5 177.952 575.5 184.677L575.5 406.323C575.5 413.048 570.048 418.5 563.323 418.5L382.677 418.5C375.952 418.5 370.5 413.048 370.5 406.323Z" stroke="#767171" stroke-width="1.33333" stroke-miterlimit="8" fill="#FFFFFF" fill-rule="evenodd"/><path d="M603.5 543.366C603.5 538.47 607.47 534.5 612.366 534.5L735.634 534.5C740.531 534.5 744.5 538.47 744.5 543.366L744.5 689.634C744.5 694.531 740.531 698.5 735.634 698.5L612.366 698.5C607.47 698.5 603.5 694.531 603.5 689.634Z" stroke="#828282" stroke-width="1.33333" stroke-miterlimit="8" fill="#FFFFFF" fill-rule="evenodd"/><path d="M615.278 518.5 732.722 518.5C739.227 518.5 744.5 523.773 744.5 530.278L744.5 571.5 603.5 571.5 603.5 530.278C603.5 523.773 608.773 518.5 615.278 518.5Z" stroke="#828282" stroke-width="1.33333" stroke-miterlimit="8" fill="#828282" fill-rule="evenodd"/><path d="M861.5 164.749C861.5 159.089 866.089 154.5 871.749 154.5L1019.25 154.5C1024.91 154.5 1029.5 159.089 1029.5 164.749L1029.5 307.251C1029.5 312.911 1024.91 317.5 1019.25 317.5L871.749 317.5C866.089 317.5 861.5 312.911 861.5 307.251Z" stroke="#828282" stroke-width="1.33333" stroke-miterlimit="8" fill="#FFFFFF" fill-rule="evenodd"/><text font-family="Calibri,Calibri_MSFontService,sans-serif" font-weight="400" font-size="16" transform="translate(871.429 200)">Starting diversity &gt;10<tspan font-size="11" x="136.88" y="-5">14</tspan><tspan x="15.1866" y="19">unique sequences</tspan></text><path d="M978.528 272.377C978.555 271.285 978.618 270.193 978.611 269.101 978.607 268.508 978.449 267.917 978.495 267.325 978.809 263.244 979.207 266.605 979.054 262.235 978.972 259.863 978.745 257.499 978.591 255.13L978.436 252.762C978.326 251.08 978.303 249.385 977.811 247.749 977.684 247.326 977.365 246.986 977.142 246.604 976.458 246.748 975.75 246.808 975.089 247.035 974.671 247.179 974.353 247.538 973.944 247.705 973.477 247.895 972.95 247.907 972.483 248.097 971.786 248.381 971.153 248.805 970.469 249.121 969.901 249.383 969.311 249.593 968.731 249.829 964.715 252.902 964.415 252.856 960.785 260.158 959.12 263.505 960.203 263.773 961.448 265.763 961.917 266.513 962.787 268.054 962.787 268.054 963.404 268.41 963.941 268.979 964.64 269.122 965.134 269.222 965.598 268.762 966.101 268.729 966.604 268.696 967.1 268.862 967.6 268.928 968.216 268.615 970.017 267.75 970.76 267.236 971.346 266.83 971.892 266.369 972.459 265.936 973.737 264.267 975.144 262.689 976.294 260.929 976.959 259.91 977.528 257.923 977.799 256.669 977.815 256.597 978.446 253.319 978.436 252.762 978.408 251.18 978.537 249.554 978.127 248.026 977.201 244.583 978.325 248.87 977.303 244.512 977.188 244.022 977.025 243.542 976.91 243.052 975.888 238.694 977.011 242.981 976.086 239.538L977.116 237.093" stroke="#70AD47" stroke-width="1.66667" stroke-linecap="round" stroke-linejoin="round" stroke-miterlimit="10" fill="none" fill-rule="evenodd"/><path d="M944.74 267.124C943.964 267.373 943.192 267.636 942.411 267.871 941.928 268.016 941.417 268.073 940.95 268.263 940.541 268.43 940.232 268.818 939.805 268.933 939.232 269.087 938.616 268.965 938.029 269.049 937.336 269.148 936.675 269.488 935.976 269.48 935.351 269.473 934.766 269.163 934.161 269.004 933.477 269.148 932.806 269.39 932.108 269.435 928.84 269.649 927.946 268.427 924.096 269.661 923.32 269.91 922.535 270.133 921.767 270.408 921.178 270.618 920.638 270.973 920.03 271.116 919.452 271.251 918.845 271.193 918.253 271.232 918.082 271.639 917.759 272.013 917.739 272.455 917.647 274.475 920.497 276.404 921.323 277.274 922.891 279.322 923.205 280.184 926.33 281.109 927.001 281.308 927.699 280.822 928.383 280.678 931.695 278.743 930.699 279.735 933.402 275.594 933.644 275.223 934.169 274.735 933.917 274.371 932.72 272.643 930.948 271.394 929.463 269.905 930.629 267.136 929.687 269.015 933.299 264.898" stroke="#70AD47" stroke-width="1.66667" stroke-linecap="round" stroke-linejoin="round" stroke-miterlimit="10" fill="none" fill-rule="evenodd"/><path d="M915 231C915.294 231.982 915.427 233.022 915.882 233.946 917.383 236.988 918.017 237.289 919.412 239.418 919.866 240.112 920.221 240.868 920.735 241.522 921.11 241.998 921.696 242.301 922.059 242.785 922.441 243.296 922.559 243.958 922.941 244.469 926.402 249.091 921.84 241.398 925.588 247.836 925.908 248.384 926.132 248.981 926.471 249.519 928.619 252.936 927.883 250.909 929.118 254.149 929.435 254.983 930 256.674 930 256.674 929.853 257.095 929.975 257.739 929.559 257.937 929.143 258.135 928.564 257.83 928.235 257.516 927.485 256.801 927.107 255.8 926.471 254.991 925.204 253.379 925.072 253.421 924.265 251.624 922.289 247.225 923.824 237.691 923.824 236.472" stroke="#2F528F" stroke-width="1.66667" stroke-linecap="round" stroke-linejoin="round" stroke-miterlimit="10" fill="none" fill-rule="evenodd"/><path d="M942.225 235C945.853 242.643 941.397 233.08 944.221 239.624 945.36 242.264 945.646 242.232 946.615 245.088 946.941 246.049 947.107 247.063 947.413 248.031 947.772 249.166 948.29 250.245 948.61 251.393 948.956 252.633 949.111 253.923 949.408 255.177 949.643 256.166 949.985 257.126 950.207 258.119 950.517 259.51 950.676 260.936 951.005 262.322L951.404 264.004C951.138 264.985 951.512 266.588 950.606 266.946 949.707 267.301 949.02 265.807 948.211 265.265 947.557 264.826 946.764 264.581 946.216 264.004 945.684 263.443 945.246 262.762 944.62 262.322 944.024 261.904 943.25 261.848 942.624 261.482 940.23 260.081 941.693 260.501 939.831 258.539 936.33 254.851 941.349 261.512 937.436 256.017 937.303 255.597 936.872 255.163 937.037 254.756 937.752 252.998 938.785 253.335 939.831 252.234 940.301 251.739 940.558 251.048 941.028 250.553 945.184 246.175 940.893 252.727 947.014 244.668 947.546 243.967 948.138 243.313 948.61 242.566 948.94 242.045 949.028 241.366 949.408 240.885 949.715 240.497 950.207 240.324 950.606 240.044L952.202 237.522 953 236.261" stroke="#2F528F" stroke-width="1.66667" stroke-linecap="round" stroke-linejoin="round" stroke-miterlimit="10" fill="none" fill-rule="evenodd"/><path d="M955.656 258.186C956.471 258.205 957.288 258.309 958.101 258.245 959.34 258.147 962.151 257.059 962.957 256.851 964.871 256.355 968.746 255.551 968.746 255.551 970.841 253.841 968.529 255.473 972.089 254.193 972.856 253.917 973.53 253.425 974.275 253.094 974.914 252.81 975.582 252.598 976.236 252.35 978.738 250.307 977.651 251.282 979.544 249.479 979.875 248.695 980.498 247.978 980.536 247.128 980.556 246.686 980.071 246.337 979.697 246.1 976.151 243.854 972.459 241.847 968.84 239.72L965.426 238.054C963.721 237.236 961.802 236.308 960.015 235.621 959.477 235.414 958.928 235.233 958.373 235.077 957.521 234.839 955.798 234.439 955.798 234.439 955.51 235.416 954.994 236.353 954.935 237.369 954.906 237.872 955.36 238.284 955.55 238.751 956.293 240.581 956.161 240.12 956.424 241.291" stroke="#2F528F" stroke-width="1.66667" stroke-linecap="round" stroke-linejoin="round" stroke-miterlimit="10" fill="none" fill-rule="evenodd"/><path d="M902 253C902.132 255.329 902.183 257.664 902.397 259.986 902.503 261.136 902.847 262.011 903.587 262.863 906.492 266.206 905.674 265.156 908.745 267.384 909.287 267.776 909.772 268.253 910.333 268.616 910.834 268.941 911.439 269.082 911.92 269.438 913.459 270.577 912.634 270.726 914.301 271.493 915.065 271.845 916.681 272.315 916.681 272.315 916.946 271.63 917.25 270.96 917.475 270.26 918.474 267.158 917.799 265.083 917.475 261.219 917.391 260.214 917.165 258.661 916.285 257.932 915.958 257.661 915.491 257.658 915.094 257.521 913.507 257.658 911.872 257.507 910.333 257.932 909.125 258.265 909.112 259.512 908.745 260.397 908.513 260.96 908.216 261.493 907.952 262.041 908.084 264.644 908.131 267.253 908.349 269.849 908.547 272.215 908.718 270.811 909.539 272.726 910.766 275.584 909.96 274.445 910.729 276.836 910.955 277.535 911.222 278.222 911.523 278.89 912.148 280.278 913.507 283 913.507 283L913.904 281.767" stroke="#2F528F" stroke-width="1.66667" stroke-linecap="round" stroke-linejoin="round" stroke-miterlimit="10" fill="none" fill-rule="evenodd"/><path d="M948.446 274C948.585 275.681 948.535 277.388 948.862 279.042 948.959 279.537 949.496 279.838 949.692 280.303 949.917 280.833 949.996 281.417 950.108 281.983 950.743 285.197 950.504 285.168 950.938 289.126 951.047 290.11 951.215 291.087 951.354 292.067 951.215 295.569 951.465 299.108 950.938 302.571 950.872 303.009 950.129 303.018 949.692 302.992 947.738 302.875 945.815 302.431 943.877 302.151 938.651 300.389 944.133 302.37 938.892 300.051 937.526 299.446 934.738 298.37 934.738 298.37 934.323 297.95 933.944 297.49 933.492 297.109 933.109 296.786 932.558 296.663 932.246 296.269 931.973 295.923 932.027 295.405 931.831 295.008 931.607 294.557 931.277 294.168 931 293.748 931.138 292.768 931.01 291.708 931.415 290.807 931.74 290.085 932.487 289.648 933.077 289.126 933.906 288.392 935.869 287.04 936.815 286.605 937.613 286.239 938.485 286.067 939.308 285.765 940.008 285.507 940.659 285.097 941.385 284.924 945.434 283.961 945.807 284.302 949.277 283.664 949.839 283.561 950.368 283.271 950.938 283.244 953.29 283.13 955.646 283.244 958 283.244" stroke="#2F528F" stroke-width="1.66667" stroke-linecap="round" stroke-linejoin="round" stroke-miterlimit="10" fill="none" fill-rule="evenodd"/><path d="M953.474 258.492C956.163 250.398 952.737 260.463 955.249 253.744 956.263 251.033 956.027 250.843 957.321 248.106 957.756 247.185 958.347 246.345 958.802 245.435 959.335 244.365 959.711 243.219 960.282 242.17 960.898 241.038 961.693 240.011 962.355 238.905 962.878 238.032 963.301 237.1 963.836 236.234 964.586 235.021 965.474 233.895 966.206 232.672L967.095 231.188C967.984 230.693 968.836 229.282 969.763 229.702 970.682 230.119 970.14 231.684 970.359 232.668 970.537 233.464 970.954 234.225 970.955 235.041 970.955 235.832 970.801 236.638 970.957 237.414 971.105 238.152 971.641 238.766 971.849 239.49 972.642 242.258 971.85 240.874 971.853 243.643 971.857 248.848 972.819 240.415 971.856 247.202 971.658 247.598 971.674 248.225 971.264 248.39 969.492 249.1 968.961 248.095 967.407 248.096 966.708 248.097 966.03 248.394 965.331 248.395 959.151 248.401 966.964 246.959 956.728 248.106 955.838 248.206 954.936 248.229 954.058 248.405 953.445 248.529 952.901 248.943 952.279 249 951.776 249.046 951.29 248.803 950.795 248.705L947.829 249.301 946.346 249.599" stroke="#ED7D31" stroke-width="1.66667" stroke-linecap="round" stroke-linejoin="round" stroke-miterlimit="10" fill="none" fill-rule="evenodd"/><path d="M959.998 280.862C960.79 281.059 961.565 281.338 962.372 281.453 963.603 281.628 966.583 281.179 967.415 281.152 969.391 281.086 973.348 281.146 973.348 281.146 975.766 279.935 973.154 281.023 976.907 280.55 977.716 280.448 978.48 280.115 979.28 279.954 979.965 279.817 980.664 279.755 981.356 279.656 984.244 278.209 982.97 278.923 985.211 277.576 985.704 276.883 986.469 276.319 986.692 275.498 986.808 275.071 986.411 274.624 986.098 274.312 983.127 271.346 979.962 268.582 976.894 265.717L973.925 263.347C972.44 262.176 970.769 260.852 969.175 259.791 968.695 259.472 968.199 259.176 967.691 258.903 966.912 258.484 965.317 257.718 965.317 257.718 964.823 258.609 964.115 259.41 963.836 260.39 963.698 260.875 964.051 261.375 964.134 261.873 964.461 263.82 964.432 263.341 964.433 264.542" stroke="#ED7D31" stroke-width="1.66667" stroke-linecap="round" stroke-linejoin="round" stroke-miterlimit="10" fill="none" fill-rule="evenodd"/><path d="M925.182 301.114C926.763 299.332 928.409 297.607 929.924 295.77 930.674 294.86 931.047 293.971 931.108 292.802 931.345 288.216 931.2 289.587 930.508 285.683 930.386 284.995 930.367 284.288 930.209 283.607 930.068 282.997 929.718 282.444 929.614 281.827 929.284 279.855 930.009 280.364 929.315 278.565 928.996 277.739 928.126 276.192 928.126 276.192 927.434 276.49 926.723 276.747 926.05 277.084 923.065 278.58 922.074 280.582 919.53 283.617 918.868 284.406 917.917 285.696 918.05 286.881 918.099 287.32 918.446 287.672 918.644 288.067 919.93 289.154 921.045 290.484 922.503 291.327 923.647 291.988 924.556 291.097 925.469 290.731 926.05 290.498 926.656 290.334 927.249 290.136 929.027 288.156 930.873 286.237 932.583 284.198 934.14 282.341 933.001 283.227 933.767 281.23 934.91 278.249 934.691 279.674 935.84 277.372 936.176 276.698 936.471 276.003 936.728 275.295 937.261 273.825 938.207 270.844 938.207 270.844L937.021 271.438" stroke="#ED7D31" stroke-width="1.66667" stroke-linecap="round" stroke-linejoin="round" stroke-miterlimit="10" fill="none" fill-rule="evenodd"/><path d="M915.728 260.077C916.814 258.791 918.054 257.62 918.987 256.218 919.267 255.798 919.096 255.202 919.282 254.734 919.496 254.199 919.852 253.73 920.171 253.25 921.984 250.525 922.135 250.717 924.616 247.61 925.233 246.837 925.801 246.026 926.393 245.235 928.962 242.859 931.28 240.18 934.1 238.108 934.456 237.846 934.993 238.37 935.287 238.7 936.602 240.177 937.663 241.863 938.851 243.444 941.344 248.418 938.822 243.107 940.932 248.485 941.482 249.887 942.716 252.636 942.716 252.636 942.716 253.23 942.663 253.825 942.718 254.416 942.764 254.918 943.071 255.398 943.016 255.899 942.967 256.339 942.563 256.667 942.423 257.086 942.264 257.565 942.226 258.075 942.128 258.57 941.338 259.164 940.682 260.004 939.756 260.352 939.016 260.63 938.173 260.406 937.383 260.354 936.273 260.281 933.916 259.836 932.933 259.468 932.104 259.158 931.36 258.657 930.558 258.284 929.876 257.966 929.122 257.791 928.481 257.396 924.907 255.188 924.881 254.68 921.95 252.655 921.476 252.327 920.893 252.154 920.466 251.767 918.706 250.169 917.101 248.408 915.419 246.728" stroke="#ED7D31" stroke-width="1.66667" stroke-linecap="round" stroke-linejoin="round" stroke-miterlimit="10" fill="none" fill-rule="evenodd"/><path d="M990.097 259.154C989.693 260.088 989.133 260.97 988.884 261.957 988.066 265.207 988.343 265.821 988.024 268.303 987.92 269.112 987.703 269.908 987.668 270.723 987.642 271.316 987.883 271.902 987.843 272.494 987.802 273.118 987.47 273.7 987.429 274.324 987.054 279.974 988.558 271.293 987.249 278.515 987.137 279.131 986.925 279.726 986.834 280.345 986.256 284.274 986.994 282.268 985.856 285.51 985.563 286.344 984.91 287.989 984.91 287.989 984.535 288.225 984.219 288.794 983.787 288.696 983.356 288.599 983.123 288.014 983.08 287.574 982.98 286.571 983.334 285.571 983.377 284.564 983.463 282.558 983.34 282.511 983.882 280.638 985.207 276.056 992.36 269.63 993.13 268.69" stroke="#FFC000" stroke-width="1.66667" stroke-linecap="round" stroke-linejoin="round" stroke-miterlimit="10" fill="none" fill-rule="evenodd"/><path d="M926.393 279.933C925.625 280.208 924.863 280.497 924.09 280.758 923.612 280.919 923.104 280.993 922.643 281.199 922.24 281.38 921.944 281.778 921.521 281.907 920.954 282.08 920.334 281.979 919.75 282.083 919.062 282.205 918.412 282.568 917.713 282.583 917.088 282.597 916.493 282.307 915.883 282.168 915.204 282.335 914.542 282.6 913.846 282.669 910.587 282.992 909.652 281.802 905.846 283.165 905.079 283.439 904.301 283.689 903.543 283.989 902.962 284.22 902.435 284.592 901.831 284.755 901.258 284.91 900.65 284.873 900.06 284.931 899.902 285.344 899.592 285.728 899.586 286.171 899.563 288.193 902.476 290.025 903.332 290.867 904.967 292.861 905.31 293.712 908.465 294.531 909.142 294.707 909.823 294.197 910.502 294.031 913.747 291.985 912.785 293.01 915.347 288.78 915.576 288.402 916.084 287.896 915.82 287.541 914.566 285.854 912.752 284.665 911.219 283.228 912.29 280.421 911.411 282.33 914.883 278.094" stroke="#FFC000" stroke-width="1.66667" stroke-linecap="round" stroke-linejoin="round" stroke-miterlimit="10" fill="none" fill-rule="evenodd"/><path d="M949.778 257.21C947.893 265.527 950.319 255.175 948.476 262.109 947.732 264.906 947.986 265.072 946.966 267.922 946.623 268.881 946.117 269.775 945.754 270.726 945.327 271.842 945.066 273.019 944.6 274.119 944.097 275.307 943.407 276.406 942.856 277.572 942.421 278.492 942.091 279.461 941.643 280.375 941.016 281.656 940.243 282.862 939.633 284.152L938.894 285.716C938.058 286.295 937.348 287.783 936.384 287.455 935.429 287.131 935.816 285.52 935.501 284.562 935.246 283.787 934.756 283.07 934.676 282.259 934.598 281.472 934.673 280.654 934.442 279.897 934.222 279.177 933.628 278.619 933.351 277.919 932.29 275.242 933.214 276.541 932.941 273.786 932.427 268.606 932.295 277.093 932.589 270.244 932.747 269.83 932.67 269.208 933.062 269.004 934.756 268.124 935.382 269.072 936.929 268.918 937.625 268.849 938.271 268.487 938.966 268.418 945.115 267.808 937.481 270.007 947.556 267.864 948.432 267.677 949.327 267.566 950.184 267.305 950.782 267.122 951.282 266.657 951.896 266.539 952.392 266.444 952.9 266.638 953.402 266.687L956.295 265.804 957.742 265.362" stroke="#FFC000" stroke-width="1.66667" stroke-linecap="round" stroke-linejoin="round" stroke-miterlimit="10" fill="none" fill-rule="evenodd"/><path d="M967.446 294.913C965.941 294.158 964.512 293.226 962.931 292.647 962.457 292.474 961.919 292.779 961.42 292.707 960.849 292.625 960.31 292.389 959.769 292.191 956.696 291.066 956.846 290.874 953.245 289.189 952.349 288.77 951.428 288.407 950.52 288.016 947.609 286.075 944.462 284.448 941.788 282.191 941.45 281.906 941.834 281.262 942.086 280.899 943.214 279.274 944.605 277.849 945.864 276.324 950.117 272.736 945.543 276.431 950.278 273.121 951.513 272.258 953.897 270.415 953.897 270.415 954.474 270.276 955.065 270.188 955.627 269.997 956.104 269.835 956.499 269.424 956.999 269.36 957.438 269.305 957.851 269.621 958.292 269.658 958.794 269.701 959.3 269.618 959.803 269.598 960.566 270.228 961.536 270.669 962.091 271.487 962.535 272.142 962.514 273.014 962.648 273.794 962.837 274.891 962.956 277.286 962.828 278.328 962.721 279.206 962.408 280.047 962.232 280.914 962.083 281.652 962.09 282.426 961.855 283.141 960.544 287.133 960.057 287.277 958.774 290.6 958.566 291.138 958.534 291.745 958.257 292.251 957.116 294.336 955.779 296.308 954.54 298.337" stroke="#FFC000" stroke-width="1.66667" stroke-linecap="round" stroke-linejoin="round" stroke-miterlimit="10" fill="none" fill-rule="evenodd"/><path d="M914.86 267.038C914.851 265.946 914.877 264.853 914.833 263.761 914.809 263.169 914.632 262.583 914.657 261.99 914.833 257.9 915.345 261.246 915.045 256.884 914.882 254.516 914.576 252.161 914.342 249.799L914.107 247.438C913.941 245.76 913.86 244.066 913.314 242.449 913.172 242.03 912.842 241.7 912.606 241.326 911.927 241.493 911.222 241.577 910.569 241.827 910.156 241.985 909.851 242.354 909.447 242.534 908.987 242.74 908.461 242.77 908 242.976 907.313 243.283 906.695 243.728 906.022 244.067 905.463 244.348 904.88 244.577 904.309 244.833 900.399 248.04 900.098 248.003 896.715 255.424 895.165 258.825 896.255 259.056 897.567 261.003 898.061 261.737 898.982 263.248 898.982 263.248 899.612 263.583 900.168 264.134 900.871 264.253 901.368 264.337 901.816 263.861 902.317 263.811 902.819 263.761 903.321 263.91 903.823 263.96 904.428 263.626 906.198 262.701 906.923 262.162 907.496 261.736 908.026 261.257 908.577 260.805 909.799 259.094 911.152 257.47 912.241 255.672 912.872 254.631 913.374 252.626 913.602 251.363 913.616 251.291 914.136 247.994 914.107 247.438 914.026 245.858 914.1 244.228 913.638 242.714 912.598 239.305 913.865 243.552 912.696 239.231 912.565 238.744 912.386 238.271 912.255 237.784 911.086 233.463 912.354 237.71 911.313 234.3L912.259 231.821" stroke="#FFC000" stroke-width="1.66667" stroke-linecap="round" stroke-linejoin="round" stroke-miterlimit="10" fill="none" fill-rule="evenodd"/><path d="M927.866 254.551C927.431 255.471 926.842 256.333 926.56 257.312 925.633 260.532 925.889 261.155 925.486 263.625 925.355 264.43 925.111 265.219 925.049 266.032 925.003 266.623 925.224 267.217 925.165 267.808 925.102 268.43 924.751 269 924.689 269.622 924.124 275.256 925.919 266.631 924.367 273.805 924.235 274.417 924.003 275.005 923.891 275.62 923.181 279.528 923.987 277.547 922.74 280.749 922.419 281.573 921.71 283.195 921.71 283.195 921.328 283.418 920.992 283.976 920.565 283.864 920.137 283.752 919.924 283.16 919.895 282.719 919.83 281.712 920.217 280.725 920.294 279.72 920.448 277.718 920.326 277.667 920.931 275.813 922.41 271.279 929.775 265.098 930.576 264.184" stroke="#70AD47" stroke-width="1.66667" stroke-linecap="round" stroke-linejoin="round" stroke-miterlimit="10" fill="none" fill-rule="evenodd"/><path d="M929.821 278.555C927.657 286.805 930.43 276.541 928.354 283.408 927.516 286.178 927.764 286.353 926.649 289.167 926.274 290.114 925.738 290.99 925.343 291.928 924.879 293.029 924.578 294.197 924.075 295.281 923.533 296.451 922.806 297.526 922.216 298.672 921.75 299.578 921.388 300.535 920.91 301.433 920.24 302.692 919.426 303.872 918.773 305.14L917.982 306.678C917.126 307.229 916.367 308.692 915.414 308.332 914.471 307.976 914.912 306.379 914.629 305.411 914.401 304.628 913.936 303.895 913.883 303.081 913.831 302.292 913.933 301.477 913.728 300.713 913.532 299.986 912.958 299.408 912.705 298.699 911.735 295.988 912.614 297.318 912.434 294.555 912.095 289.36 911.677 297.838 912.202 291.002 912.374 290.595 912.318 289.97 912.717 289.78 914.439 288.957 915.033 289.926 916.584 289.824 917.282 289.779 917.939 289.439 918.637 289.393 924.803 288.991 917.099 290.931 927.241 289.129 928.123 288.972 929.021 288.891 929.886 288.659 930.49 288.496 931.005 288.048 931.623 287.951 932.121 287.872 932.623 288.084 933.123 288.15L936.044 287.365 937.505 286.972" stroke="#70AD47" stroke-width="1.66667" stroke-linecap="round" stroke-linejoin="round" stroke-miterlimit="10" fill="none" fill-rule="evenodd"/><path d="M969.851 268.153C969.048 268.007 968.257 267.778 967.444 267.715 966.205 267.62 963.259 268.259 962.431 268.34 960.462 268.532 956.51 268.726 956.51 268.726 954.175 270.091 956.712 268.838 952.997 269.55 952.196 269.704 951.455 270.085 950.667 270.297 949.992 270.479 949.299 270.585 948.615 270.728 945.826 272.358 947.051 271.564 944.902 273.052 944.453 273.775 943.727 274.387 943.557 275.221 943.468 275.654 943.894 276.074 944.226 276.366 947.381 279.134 950.717 281.69 953.963 284.351L957.078 286.526C958.636 287.599 960.387 288.813 962.046 289.769 962.546 290.057 963.06 290.321 963.584 290.561 964.389 290.928 966.03 291.59 966.03 291.59 966.465 290.67 967.121 289.824 967.336 288.829 967.443 288.336 967.058 287.859 966.943 287.368 966.492 285.446 966.552 285.922 966.473 284.724" stroke="#70AD47" stroke-width="1.66667" stroke-linecap="round" stroke-linejoin="round" stroke-miterlimit="10" fill="none" fill-rule="evenodd"/><path d="M951.026 236.278C950.024 237.631 948.862 238.88 948.021 240.339 947.769 240.776 947.978 241.359 947.821 241.838 947.643 242.386 947.318 242.877 947.03 243.376 945.396 246.212 945.233 246.03 942.957 249.291 942.391 250.101 941.876 250.947 941.335 251.775 938.925 254.31 936.784 257.133 934.103 259.382 933.764 259.666 933.195 259.178 932.88 258.867 931.473 257.477 930.306 255.864 929.019 254.362 926.211 249.559 929.069 254.697 926.618 249.465 925.979 248.102 924.571 245.437 924.571 245.437 924.533 244.845 924.547 244.247 924.455 243.661 924.377 243.163 924.04 242.704 924.063 242.2 924.083 241.759 924.465 241.405 924.577 240.978 924.705 240.49 924.71 239.978 924.777 239.478 925.527 238.835 926.128 237.954 927.029 237.547 927.75 237.222 928.606 237.392 929.397 237.393 930.51 237.394 932.89 237.687 933.895 237.991 934.742 238.247 935.517 238.699 936.341 239.02 937.042 239.294 937.806 239.419 938.471 239.773 942.179 241.747 942.238 242.252 945.293 244.084 945.787 244.381 946.38 244.516 946.831 244.876 948.69 246.357 950.405 248.011 952.192 249.579" stroke="#70AD47" stroke-width="1.66667" stroke-linecap="round" stroke-linejoin="round" stroke-miterlimit="10" fill="none" fill-rule="evenodd"/><path d="M952.344 295.049C952.837 294.158 953.48 293.336 953.824 292.378 954.957 289.224 954.741 288.586 955.302 286.147 955.485 285.352 955.779 284.58 955.893 283.773 955.977 283.186 955.794 282.578 955.891 281.993 955.994 281.376 956.381 280.83 956.483 280.213 957.409 274.627 955.063 283.119 957.073 276.059 957.244 275.458 957.513 274.885 957.664 274.279 958.624 270.425 957.693 272.349 959.143 269.234 959.516 268.432 960.327 266.86 960.327 266.86 960.723 266.662 961.094 266.126 961.513 266.266 961.933 266.405 962.107 267.009 962.108 267.452 962.109 268.46 961.659 269.42 961.517 270.419 961.235 272.406 961.353 272.465 960.631 274.276 958.863 278.706 951.117 284.401 950.258 285.261" stroke="#ED7D31" stroke-width="1.66667" stroke-linecap="round" stroke-linejoin="round" stroke-miterlimit="10" fill="none" fill-rule="evenodd"/><path d="M966.5 465.5C966.5 464.395 967.619 463.5 969 463.5 970.381 463.5 971.5 464.395 971.5 465.5 971.5 466.605 970.381 467.5 969 467.5 967.619 467.5 966.5 466.605 966.5 465.5Z" stroke="#2F528F" stroke-width="0.666667" stroke-miterlimit="8" fill="#4472C4" fill-rule="evenodd"/><path d="M967.756 467.5C967.074 468.372 966.393 469.244 966.514 469.984 966.636 470.724 968.364 471.188 968.486 471.941 968.608 472.694 967.926 473.597 967.245 474.5" stroke="#2F528F" stroke-width="0.666667" stroke-miterlimit="8" fill="none" fill-rule="evenodd"/><path d="M969.756 467.5C969.074 468.372 968.393 469.244 968.514 469.984 968.636 470.724 970.364 471.188 970.486 471.941 970.608 472.694 969.926 473.597 969.245 474.5" stroke="#2F528F" stroke-width="0.666667" stroke-miterlimit="8" fill="none" fill-rule="evenodd"/><path d="M971.5 465.5C971.5 464.395 972.619 463.5 974 463.5 975.381 463.5 976.5 464.395 976.5 465.5 976.5 466.605 975.381 467.5 974 467.5 972.619 467.5 971.5 466.605 971.5 465.5Z" stroke="#2F528F" stroke-width="0.666667" stroke-miterlimit="8" fill="#4472C4" fill-rule="evenodd"/><path d="M972.756 467.5C972.074 468.372 971.393 469.244 971.514 469.984 971.636 470.724 973.364 471.188 973.486 471.941 973.608 472.694 972.926 473.597 972.245 474.5" stroke="#2F528F" stroke-width="0.666667" stroke-miterlimit="8" fill="none" fill-rule="evenodd"/><path d="M974.756 467.5C974.074 468.372 973.393 469.244 973.514 469.984 973.636 470.724 975.364 471.188 975.486 471.941 975.608 472.694 974.926 473.597 974.245 474.5" stroke="#2F528F" stroke-width="0.666667" stroke-miterlimit="8" fill="none" fill-rule="evenodd"/><path d="M976.5 465.5C976.5 464.395 977.396 463.5 978.5 463.5 979.605 463.5 980.5 464.395 980.5 465.5 980.5 466.605 979.605 467.5 978.5 467.5 977.396 467.5 976.5 466.605 976.5 465.5Z" stroke="#2F528F" stroke-width="0.666667" stroke-miterlimit="8" fill="#4472C4" fill-rule="evenodd"/><path d="M977.756 467.5C977.074 468.372 976.393 469.244 976.514 469.984 976.636 470.724 978.364 471.188 978.486 471.941 978.608 472.694 977.926 473.597 977.245 474.5" stroke="#2F528F" stroke-width="0.666667" stroke-miterlimit="8" fill="none" fill-rule="evenodd"/><path d="M979.756 467.5C979.074 468.372 978.393 469.244 978.514 469.984 978.636 470.724 980.364 471.188 980.486 471.941 980.608 472.694 979.926 473.597 979.245 474.5" stroke="#2F528F" stroke-width="0.666667" stroke-miterlimit="8" fill="none" fill-rule="evenodd"/><path d="M981.5 465.5C981.5 464.395 982.396 463.5 983.5 463.5 984.605 463.5 985.5 464.395 985.5 465.5 985.5 466.605 984.605 467.5 983.5 467.5 982.396 467.5 981.5 466.605 981.5 465.5Z" stroke="#2F528F" stroke-width="0.666667" stroke-miterlimit="8" fill="#4472C4" fill-rule="evenodd"/><path d="M982.756 467.5C982.074 468.372 981.393 469.244 981.514 469.984 981.636 470.724 983.364 471.188 983.486 471.941 983.608 472.694 982.926 473.597 982.245 474.5" stroke="#2F528F" stroke-width="0.666667" stroke-miterlimit="8" fill="none" fill-rule="evenodd"/><path d="M984.756 467.5C984.074 468.372 983.393 469.244 983.514 469.984 983.636 470.724 985.364 471.188 985.486 471.941 985.608 472.694 984.926 473.597 984.245 474.5" stroke="#2F528F" stroke-width="0.666667" stroke-miterlimit="8" fill="none" fill-rule="evenodd"/><path d="M986.5 465.5C986.5 464.395 987.396 463.5 988.5 463.5 989.605 463.5 990.5 464.395 990.5 465.5 990.5 466.605 989.605 467.5 988.5 467.5 987.396 467.5 986.5 466.605 986.5 465.5Z" stroke="#2F528F" stroke-width="0.666667" stroke-miterlimit="8" fill="#4472C4" fill-rule="evenodd"/><path d="M987.756 467.5C987.074 468.372 986.393 469.244 986.514 469.984 986.636 470.724 988.364 471.188 988.486 471.941 988.608 472.694 987.926 473.597 987.245 474.5" stroke="#2F528F" stroke-width="0.666667" stroke-miterlimit="8" fill="none" fill-rule="evenodd"/><path d="M989.756 467.5C989.074 468.372 988.393 469.244 988.514 469.984 988.636 470.724 990.364 471.188 990.486 471.941 990.608 472.694 989.926 473.597 989.245 474.5" stroke="#2F528F" stroke-width="0.666667" stroke-miterlimit="8" fill="none" fill-rule="evenodd"/><path d="M990.5 465.5C990.5 464.395 991.619 463.5 993 463.5 994.381 463.5 995.5 464.395 995.5 465.5 995.5 466.605 994.381 467.5 993 467.5 991.619 467.5 990.5 466.605 990.5 465.5Z" stroke="#2F528F" stroke-width="0.666667" stroke-miterlimit="8" fill="#4472C4" fill-rule="evenodd"/><path d="M992.756 467.5C992.074 468.372 991.393 469.244 991.514 469.984 991.636 470.724 993.364 471.188 993.486 471.941 993.608 472.694 992.926 473.597 992.245 474.5" stroke="#2F528F" stroke-width="0.666667" stroke-miterlimit="8" fill="none" fill-rule="evenodd"/><path d="M994.756 467.5C994.074 468.372 993.393 469.244 993.514 469.984 993.636 470.724 995.364 471.188 995.486 471.941 995.608 472.694 994.926 473.597 994.245 474.5" stroke="#2F528F" stroke-width="0.666667" stroke-miterlimit="8" fill="none" fill-rule="evenodd"/><path d="M995.5 465.5C995.5 464.395 996.619 463.5 998 463.5 999.381 463.5 1000.5 464.395 1000.5 465.5 1000.5 466.605 999.381 467.5 998 467.5 996.619 467.5 995.5 466.605 995.5 465.5Z" stroke="#2F528F" stroke-width="0.666667" stroke-miterlimit="8" fill="#4472C4" fill-rule="evenodd"/><path d="M997.756 467.5C997.074 468.372 996.393 469.244 996.514 469.984 996.636 470.724 998.364 471.188 998.486 471.941 998.608 472.694 997.926 473.597 997.245 474.5" stroke="#2F528F" stroke-width="0.666667" stroke-miterlimit="8" fill="none" fill-rule="evenodd"/><path d="M999.756 467.5C999.074 468.372 998.393 469.244 998.514 469.984 998.636 470.724 1000.36 471.188 1000.49 471.941 1000.61 472.694 999.926 473.597 999.245 474.5" stroke="#2F528F" stroke-width="0.666667" stroke-miterlimit="8" fill="none" fill-rule="evenodd"/><path d="M1000.5 465.5C1000.5 464.395 1001.62 463.5 1003 463.5 1004.38 463.5 1005.5 464.395 1005.5 465.5 1005.5 466.605 1004.38 467.5 1003 467.5 1001.62 467.5 1000.5 466.605 1000.5 465.5Z" stroke="#2F528F" stroke-width="0.666667" stroke-miterlimit="8" fill="#4472C4" fill-rule="evenodd"/><path d="M1002.76 467.5C1002.07 468.372 1001.39 469.244 1001.51 469.984 1001.64 470.724 1003.36 471.188 1003.49 471.941 1003.61 472.694 1002.93 473.597 1002.24 474.5" stroke="#2F528F" stroke-width="0.666667" stroke-miterlimit="8" fill="none" fill-rule="evenodd"/><path d="M1004.76 467.5C1004.07 468.372 1003.39 469.244 1003.51 469.984 1003.64 470.724 1005.36 471.188 1005.49 471.941 1005.61 472.694 1004.93 473.597 1004.24 474.5" stroke="#2F528F" stroke-width="0.666667" stroke-miterlimit="8" fill="none" fill-rule="evenodd"/><path d="M1005.5 465.5C1005.5 464.395 1006.62 463.5 1008 463.5 1009.38 463.5 1010.5 464.395 1010.5 465.5 1010.5 466.605 1009.38 467.5 1008 467.5 1006.62 467.5 1005.5 466.605 1005.5 465.5Z" stroke="#2F528F" stroke-width="0.666667" stroke-miterlimit="8" fill="#4472C4" fill-rule="evenodd"/><path d="M1007.76 467.5C1007.07 468.372 1006.39 469.244 1006.51 469.984 1006.64 470.724 1008.36 471.188 1008.49 471.941 1008.61 472.694 1007.93 473.597 1007.24 474.5" stroke="#2F528F" stroke-width="0.666667" stroke-miterlimit="8" fill="none" fill-rule="evenodd"/><path d="M1009.38 467.5C1008.36 468.372 1007.34 469.244 1007.52 469.984 1007.7 470.724 1010.3 471.188 1010.48 471.941 1010.66 472.694 1009.64 473.597 1008.62 474.5" stroke="#2F528F" stroke-width="0.666667" stroke-miterlimit="8" fill="none" fill-rule="evenodd"/><path d="M1010.5 465.5C1010.5 464.395 1011.62 463.5 1013 463.5 1014.38 463.5 1015.5 464.395 1015.5 465.5 1015.5 466.605 1014.38 467.5 1013 467.5 1011.62 467.5 1010.5 466.605 1010.5 465.5Z" stroke="#2F528F" stroke-width="0.666667" stroke-miterlimit="8" fill="#4472C4" fill-rule="evenodd"/><path d="M1012.76 467.5C1012.07 468.372 1011.39 469.244 1011.51 469.984 1011.64 470.724 1013.36 471.188 1013.49 471.941 1013.61 472.694 1012.93 473.597 1012.24 474.5" stroke="#2F528F" stroke-width="0.666667" stroke-miterlimit="8" fill="none" fill-rule="evenodd"/><path d="M1014.38 467.5C1013.36 468.372 1012.34 469.244 1012.52 469.984 1012.7 470.724 1015.3 471.188 1015.48 471.941 1015.66 472.694 1014.64 473.597 1013.62 474.5" stroke="#2F528F" stroke-width="0.666667" stroke-miterlimit="8" fill="none" fill-rule="evenodd"/><path d="M1015.5 465.5C1015.5 464.395 1016.62 463.5 1018 463.5 1019.38 463.5 1020.5 464.395 1020.5 465.5 1020.5 466.605 1019.38 467.5 1018 467.5 1016.62 467.5 1015.5 466.605 1015.5 465.5Z" stroke="#2F528F" stroke-width="0.666667" stroke-miterlimit="8" fill="#4472C4" fill-rule="evenodd"/><path d="M1017.38 467.5C1016.36 468.372 1015.34 469.244 1015.52 469.984 1015.7 470.724 1018.3 471.188 1018.48 471.941 1018.66 472.694 1017.64 473.597 1016.62 474.5" stroke="#2F528F" stroke-width="0.666667" stroke-miterlimit="8" fill="none" fill-rule="evenodd"/><path d="M1019.38 467.5C1018.36 468.372 1017.34 469.244 1017.52 469.984 1017.7 470.724 1020.3 471.188 1020.48 471.941 1020.66 472.694 1019.64 473.597 1018.62 474.5" stroke="#2F528F" stroke-width="0.666667" stroke-miterlimit="8" fill="none" fill-rule="evenodd"/><path d="M1020.5 465.5C1020.5 464.395 1021.62 463.5 1023 463.5 1024.38 463.5 1025.5 464.395 1025.5 465.5 1025.5 466.605 1024.38 467.5 1023 467.5 1021.62 467.5 1020.5 466.605 1020.5 465.5Z" stroke="#2F528F" stroke-width="0.666667" stroke-miterlimit="8" fill="#4472C4" fill-rule="evenodd"/><path d="M1022.38 467.5C1021.36 468.372 1020.34 469.244 1020.52 469.984 1020.7 470.724 1023.3 471.188 1023.48 471.941 1023.66 472.694 1022.64 473.597 1021.62 474.5" stroke="#2F528F" stroke-width="0.666667" stroke-miterlimit="8" fill="none" fill-rule="evenodd"/><path d="M1023.76 467.5C1023.07 468.372 1022.39 469.244 1022.51 469.984 1022.64 470.724 1024.36 471.188 1024.49 471.941 1024.61 472.694 1023.93 473.597 1023.24 474.5" stroke="#2F528F" stroke-width="0.666667" stroke-miterlimit="8" fill="none" fill-rule="evenodd"/><path d="M0 2.5C-3.18283e-16 1.11929 1.11929 -3.18283e-16 2.5 -6.36567e-16 3.88071-1.27313e-15 5 1.11929 5 2.5 5 3.88071 3.88071 5 2.5 5 1.11929 5-1.59142e-15 3.88071 0 2.5Z" stroke="#2F528F" stroke-width="0.666667" stroke-miterlimit="8" fill="#4472C4" fill-rule="evenodd" transform="matrix(1 0 0 -1 966.5 487.5)"/><path d="M1.25558 0C0.574035 0.996417-0.107505 1.99283 0.0141991 2.83871 0.135903 3.68458 1.8641 4.21505 1.9858 5.07527 2.10751 5.93549 1.42596 6.96774 0.744424 8" stroke="#2F528F" stroke-width="0.666667" stroke-miterlimit="8" fill="none" fill-rule="evenodd" transform="matrix(1 0 0 -1 966.5 483.5)"/><path d="M1.25558 0C0.574035 0.996417-0.107505 1.99283 0.0141991 2.83871 0.135903 3.68458 1.8641 4.21505 1.9858 5.07527 2.10751 5.93549 1.42596 6.96774 0.744424 8" stroke="#2F528F" stroke-width="0.666667" stroke-miterlimit="8" fill="none" fill-rule="evenodd" transform="matrix(1 0 0 -1 968.5 483.5)"/><path d="M0 2.5C-3.18283e-16 1.11929 1.11929 -3.18283e-16 2.5 -6.36567e-16 3.88071-1.27313e-15 5 1.11929 5 2.5 5 3.88071 3.88071 5 2.5 5 1.11929 5-1.59142e-15 3.88071 0 2.5Z" stroke="#2F528F" stroke-width="0.666667" stroke-miterlimit="8" fill="#4472C4" fill-rule="evenodd" transform="matrix(1 0 0 -1 971.5 487.5)"/><path d="M1.25558 0C0.574035 0.996417-0.107505 1.99283 0.0141991 2.83871 0.135903 3.68458 1.8641 4.21505 1.9858 5.07527 2.10751 5.93549 1.42596 6.96774 0.744424 8" stroke="#2F528F" stroke-width="0.666667" stroke-miterlimit="8" fill="none" fill-rule="evenodd" transform="matrix(1 0 0 -1 971.5 483.5)"/><path d="M1.25558 0C0.574035 0.996417-0.107505 1.99283 0.0141991 2.83871 0.135903 3.68458 1.8641 4.21505 1.9858 5.07527 2.10751 5.93549 1.42596 6.96774 0.744424 8" stroke="#2F528F" stroke-width="0.666667" stroke-miterlimit="8" fill="none" fill-rule="evenodd" transform="matrix(1 0 0 -1 973.5 483.5)"/><path d="M0 2.5C-3.18283e-16 1.11929 1.11929 -3.18283e-16 2.5 -6.36567e-16 3.88071-1.27313e-15 5 1.11929 5 2.5 5 3.88071 3.88071 5 2.5 5 1.11929 5-1.59142e-15 3.88071 0 2.5Z" stroke="#2F528F" stroke-width="0.666667" stroke-miterlimit="8" fill="#4472C4" fill-rule="evenodd" transform="matrix(1 0 0 -1 976.5 487.5)"/><path d="M1.25558 0C0.574035 0.996417-0.107505 1.99283 0.0141991 2.83871 0.135903 3.68458 1.8641 4.21505 1.9858 5.07527 2.10751 5.93549 1.42596 6.96774 0.744424 8" stroke="#2F528F" stroke-width="0.666667" stroke-miterlimit="8" fill="none" fill-rule="evenodd" transform="matrix(1 0 0 -1 976.5 483.5)"/><path d="M1.25558 0C0.574035 0.996417-0.107505 1.99283 0.0141991 2.83871 0.135903 3.68458 1.8641 4.21505 1.9858 5.07527 2.10751 5.93549 1.42596 6.96774 0.744424 8" stroke="#2F528F" stroke-width="0.666667" stroke-miterlimit="8" fill="none" fill-rule="evenodd" transform="matrix(1 0 0 -1 978.5 483.5)"/><path d="M0 2.5C-3.18283e-16 1.11929 1.11929 -3.18283e-16 2.5 -6.36567e-16 3.88071-1.27313e-15 5 1.11929 5 2.5 5 3.88071 3.88071 5 2.5 5 1.11929 5-1.59142e-15 3.88071 0 2.5Z" stroke="#2F528F" stroke-width="0.666667" stroke-miterlimit="8" fill="#4472C4" fill-rule="evenodd" transform="matrix(1 0 0 -1 981.5 487.5)"/><path d="M1.25558 0C0.574035 0.996417-0.107505 1.99283 0.0141991 2.83871 0.135903 3.68458 1.8641 4.21505 1.9858 5.07527 2.10751 5.93549 1.42596 6.96774 0.744424 8" stroke="#2F528F" stroke-width="0.666667" stroke-miterlimit="8" fill="none" fill-rule="evenodd" transform="matrix(1 0 0 -1 981.5 483.5)"/><path d="M1.25558 0C0.574035 0.996417-0.107505 1.99283 0.0141991 2.83871 0.135903 3.68458 1.8641 4.21505 1.9858 5.07527 2.10751 5.93549 1.42596 6.96774 0.744424 8" stroke="#2F528F" stroke-width="0.666667" stroke-miterlimit="8" fill="none" fill-rule="evenodd" transform="matrix(1 0 0 -1 983.5 483.5)"/><path d="M0 2.5C-3.18283e-16 1.11929 1.11929 -3.18283e-16 2.5 -6.36567e-16 3.88071-1.27313e-15 5 1.11929 5 2.5 5 3.88071 3.88071 5 2.5 5 1.11929 5-1.59142e-15 3.88071 0 2.5Z" stroke="#2F528F" stroke-width="0.666667" stroke-miterlimit="8" fill="#4472C4" fill-rule="evenodd" transform="matrix(1 0 0 -1 986.5 487.5)"/><path d="M1.25558 0C0.574035 0.996417-0.107505 1.99283 0.0141991 2.83871 0.135903 3.68458 1.8641 4.21505 1.9858 5.07527 2.10751 5.93549 1.42596 6.96774 0.744424 8" stroke="#2F528F" stroke-width="0.666667" stroke-miterlimit="8" fill="none" fill-rule="evenodd" transform="matrix(1 0 0 -1 986.5 483.5)"/><path d="M1.25558 0C0.574035 0.996417-0.107505 1.99283 0.0141991 2.83871 0.135903 3.68458 1.8641 4.21505 1.9858 5.07527 2.10751 5.93549 1.42596 6.96774 0.744424 8" stroke="#2F528F" stroke-width="0.666667" stroke-miterlimit="8" fill="none" fill-rule="evenodd" transform="matrix(1 0 0 -1 988.5 483.5)"/><path d="M0 2.5C-3.18283e-16 1.11929 1.11929 -3.18283e-16 2.5 -6.36567e-16 3.88071-1.27313e-15 5 1.11929 5 2.5 5 3.88071 3.88071 5 2.5 5 1.11929 5-1.59142e-15 3.88071 0 2.5Z" stroke="#2F528F" stroke-width="0.666667" stroke-miterlimit="8" fill="#4472C4" fill-rule="evenodd" transform="matrix(1 0 0 -1 991.5 487.5)"/><path d="M1.25558 0C0.574035 0.996417-0.107505 1.99283 0.0141991 2.83871 0.135903 3.68458 1.8641 4.21505 1.9858 5.07527 2.10751 5.93549 1.42596 6.96774 0.744424 8" stroke="#2F528F" stroke-width="0.666667" stroke-miterlimit="8" fill="none" fill-rule="evenodd" transform="matrix(1 0 0 -1 991.5 483.5)"/><path d="M1.25558 0C0.574035 0.996417-0.107505 1.99283 0.0141991 2.83871 0.135903 3.68458 1.8641 4.21505 1.9858 5.07527 2.10751 5.93549 1.42596 6.96774 0.744424 8" stroke="#2F528F" stroke-width="0.666667" stroke-miterlimit="8" fill="none" fill-rule="evenodd" transform="matrix(1 0 0 -1 993.5 483.5)"/><path d="M0 2.5C-3.18283e-16 1.11929 1.11929 -3.18283e-16 2.5 -6.36567e-16 3.88071-1.27313e-15 5 1.11929 5 2.5 5 3.88071 3.88071 5 2.5 5 1.11929 5-1.59142e-15 3.88071 0 2.5Z" stroke="#2F528F" stroke-width="0.666667" stroke-miterlimit="8" fill="#4472C4" fill-rule="evenodd" transform="matrix(1 0 0 -1 996.5 487.5)"/><path d="M1.25558 0C0.574035 0.996417-0.107505 1.99283 0.0141991 2.83871 0.135903 3.68458 1.8641 4.21505 1.9858 5.07527 2.10751 5.93549 1.42596 6.96774 0.744424 8" stroke="#2F528F" stroke-width="0.666667" stroke-miterlimit="8" fill="none" fill-rule="evenodd" transform="matrix(1 0 0 -1 996.5 483.5)"/><path d="M1.25558 0C0.574035 0.996417-0.107505 1.99283 0.0141991 2.83871 0.135903 3.68458 1.8641 4.21505 1.9858 5.07527 2.10751 5.93549 1.42596 6.96774 0.744424 8" stroke="#2F528F" stroke-width="0.666667" stroke-miterlimit="8" fill="none" fill-rule="evenodd" transform="matrix(1 0 0 -1 998.5 483.5)"/><path d="M0 2.5C-2.54627e-16 1.11929 0.89543 -3.18283e-16 2 -6.36567e-16 3.10457-1.27313e-15 4 1.11929 4 2.5 4 3.88071 3.10457 5 2 5 0.89543 5-1.27313e-15 3.88071 0 2.5Z" stroke="#2F528F" stroke-width="0.666667" stroke-miterlimit="8" fill="#4472C4" fill-rule="evenodd" transform="matrix(1 0 0 -1 1001.5 487.5)"/><path d="M1.25558 0C0.574035 0.996417-0.107505 1.99283 0.0141991 2.83871 0.135903 3.68458 1.8641 4.21505 1.9858 5.07527 2.10751 5.93549 1.42596 6.96774 0.744424 8" stroke="#2F528F" stroke-width="0.666667" stroke-miterlimit="8" fill="none" fill-rule="evenodd" transform="matrix(1 0 0 -1 1001.5 483.5)"/><path d="M1.25558 0C0.574035 0.996417-0.107505 1.99283 0.0141991 2.83871 0.135903 3.68458 1.8641 4.21505 1.9858 5.07527 2.10751 5.93549 1.42596 6.96774 0.744424 8" stroke="#2F528F" stroke-width="0.666667" stroke-miterlimit="8" fill="none" fill-rule="evenodd" transform="matrix(1 0 0 -1 1003.5 483.5)"/><path d="M0 2.5C-2.54627e-16 1.11929 0.89543 -3.18283e-16 2 -6.36567e-16 3.10457-1.27313e-15 4 1.11929 4 2.5 4 3.88071 3.10457 5 2 5 0.89543 5-1.27313e-15 3.88071 0 2.5Z" stroke="#2F528F" stroke-width="0.666667" stroke-miterlimit="8" fill="#4472C4" fill-rule="evenodd" transform="matrix(1 0 0 -1 1006.5 487.5)"/><path d="M1.25558 0C0.574035 0.996417-0.107505 1.99283 0.0141991 2.83871 0.135903 3.68458 1.8641 4.21505 1.9858 5.07527 2.10751 5.93549 1.42596 6.96774 0.744424 8" stroke="#2F528F" stroke-width="0.666667" stroke-miterlimit="8" fill="none" fill-rule="evenodd" transform="matrix(1 0 0 -1 1006.5 483.5)"/><path d="M1.25558 0C0.574035 0.996417-0.107505 1.99283 0.0141991 2.83871 0.135903 3.68458 1.8641 4.21505 1.9858 5.07527 2.10751 5.93549 1.42596 6.96774 0.744424 8" stroke="#2F528F" stroke-width="0.666667" stroke-miterlimit="8" fill="none" fill-rule="evenodd" transform="matrix(1 0 0 -1 1008.5 483.5)"/><path d="M0 2.5C-2.54627e-16 1.11929 0.89543 -3.18283e-16 2 -6.36567e-16 3.10457-1.27313e-15 4 1.11929 4 2.5 4 3.88071 3.10457 5 2 5 0.89543 5-1.27313e-15 3.88071 0 2.5Z" stroke="#2F528F" stroke-width="0.666667" stroke-miterlimit="8" fill="#4472C4" fill-rule="evenodd" transform="matrix(1 0 0 -1 1011.5 487.5)"/><path d="M1.25558 0C0.574035 0.996417-0.107505 1.99283 0.0141991 2.83871 0.135903 3.68458 1.8641 4.21505 1.9858 5.07527 2.10751 5.93549 1.42596 6.96774 0.744424 8" stroke="#2F528F" stroke-width="0.666667" stroke-miterlimit="8" fill="none" fill-rule="evenodd" transform="matrix(1 0 0 -1 1011.5 483.5)"/><path d="M1.25558 0C0.574035 0.996417-0.107505 1.99283 0.0141991 2.83871 0.135903 3.68458 1.8641 4.21505 1.9858 5.07527 2.10751 5.93549 1.42596 6.96774 0.744424 8" stroke="#2F528F" stroke-width="0.666667" stroke-miterlimit="8" fill="none" fill-rule="evenodd" transform="matrix(1 0 0 -1 1013.5 483.5)"/><path d="M0 2.5C-3.18283e-16 1.11929 1.11929 -3.18283e-16 2.5 -6.36567e-16 3.88071-1.27313e-15 5 1.11929 5 2.5 5 3.88071 3.88071 5 2.5 5 1.11929 5-1.59142e-15 3.88071 0 2.5Z" stroke="#2F528F" stroke-width="0.666667" stroke-miterlimit="8" fill="#4472C4" fill-rule="evenodd" transform="matrix(1 0 0 -1 1015.5 487.5)"/><path d="M1.25558 0C0.574035 0.996417-0.107505 1.99283 0.0141991 2.83871 0.135903 3.68458 1.8641 4.21505 1.9858 5.07527 2.10751 5.93549 1.42596 6.96774 0.744424 8" stroke="#2F528F" stroke-width="0.666667" stroke-miterlimit="8" fill="none" fill-rule="evenodd" transform="matrix(1 0 0 -1 1016.5 483.5)"/><path d="M1.25558 0C0.574035 0.996417-0.107505 1.99283 0.0141991 2.83871 0.135903 3.68458 1.8641 4.21505 1.9858 5.07527 2.10751 5.93549 1.42596 6.96774 0.744424 8" stroke="#2F528F" stroke-width="0.666667" stroke-miterlimit="8" fill="none" fill-rule="evenodd" transform="matrix(1 0 0 -1 1018.5 483.5)"/><path d="M0 2.5C-3.18283e-16 1.11929 1.11929 -3.18283e-16 2.5 -6.36567e-16 3.88071-1.27313e-15 5 1.11929 5 2.5 5 3.88071 3.88071 5 2.5 5 1.11929 5-1.59142e-15 3.88071 0 2.5Z" stroke="#2F528F" stroke-width="0.666667" stroke-miterlimit="8" fill="#4472C4" fill-rule="evenodd" transform="matrix(1 0 0 -1 1020.5 487.5)"/><path d="M1.25558 0C0.574035 0.996417-0.107505 1.99283 0.0141991 2.83871 0.135903 3.68458 1.8641 4.21505 1.9858 5.07527 2.10751 5.93549 1.42596 6.96774 0.744424 8" stroke="#2F528F" stroke-width="0.666667" stroke-miterlimit="8" fill="none" fill-rule="evenodd" transform="matrix(1 0 0 -1 1021.5 483.5)"/><path d="M1.25558 0C0.574035 0.996417-0.107505 1.99283 0.0141991 2.83871 0.135903 3.68458 1.8641 4.21505 1.9858 5.07527 2.10751 5.93549 1.42596 6.96774 0.744424 8" stroke="#2F528F" stroke-width="0.666667" stroke-miterlimit="8" fill="none" fill-rule="evenodd" transform="matrix(1 0 0 -1 1023.5 483.5)"/><path d="M994.726 476.055C996.287 474.071 999.603 470.606 998.452 466.975 997.301 463.344 995.392 459.04 994.999 456.081 994.606 453.122 997.226 451.073 996.094 449.223 994.962 447.374 992.943 444.62 990.706 445.034 988.469 445.449 983.713 448.764 982.674 451.709 981.634 454.654 983.871 459.041 984.47 462.706 985.57 465.895 988.505 468.146 989.274 470.841 990.043 473.536 986.455 477.087 989.084 478.877 991.713 480.667 993.164 478.038 994.726 476.055Z" stroke="#ED7D31" stroke-width="1.33333" stroke-linecap="round" stroke-miterlimit="8" fill="#F1862D" fill-rule="evenodd"/><text font-family="Calibri,Calibri_MSFontService,sans-serif" font-weight="400" font-size="14" transform="translate(963.96 508)">Cell surface <tspan x="12" y="17">protein</tspan></text><path d="M1078.49 462.617C1081.5 463.804 1088.71 466.03 1093.77 460.741 1098.83 455.452 1084.29 459.183 1086.37 454.883 1088.44 450.584 1085.51 447.155 1083.73 446.944 1081.95 446.734 1076.57 451.007 1075.69 453.619 1074.82 456.231 1075.48 461.43 1078.49 462.617Z" stroke="#ED7D31" stroke-width="1.33333" stroke-linecap="round" stroke-miterlimit="8" fill="#F1862D" fill-rule="evenodd"/><text font-family="Calibri,Calibri_MSFontService,sans-serif" font-weight="400" font-size="14" transform="translate(1065.81 492)">Soluble <tspan x="0.0866699" y="17">protein</tspan><tspan fill="#FFFFFF" font-size="24" x="-90.2594" y="-75">SELEX Target</tspan></text><path d="M627.478 616.27C630.879 617.61 639.013 620.124 644.728 614.153 650.443 608.182 634.024 612.393 636.367 607.539 638.711 602.685 635.397 598.814 633.389 598.577 631.382 598.339 625.306 603.163 624.321 606.112 623.336 609.061 624.077 614.93 627.478 616.27Z" stroke="#ED7D31" stroke-width="1.33333" stroke-linecap="round" stroke-miterlimit="8" fill="#F1862D" fill-rule="evenodd"/><path d="M631.148 645.671C631.24 649.325 632.096 657.795 639.822 660.731 647.549 663.666 637.27 650.188 642.653 650.454 648.037 650.72 650.31 646.159 649.746 644.218 649.183 642.276 642.372 638.562 639.272 638.804 636.172 639.046 631.057 642.016 631.148 645.671Z" stroke="#ED7D31" stroke-width="1.33333" stroke-linecap="round" stroke-miterlimit="8" fill="#F1862D" fill-rule="evenodd"/><path d="M672.32 658.337C669.693 660.879 664.04 667.244 667.112 674.917 670.184 682.591 673.141 665.9 676.591 670.042 680.04 674.183 684.936 672.767 685.983 671.038 687.03 669.308 685.151 661.781 682.874 659.664 680.596 657.548 674.947 655.795 672.32 658.337Z" stroke="#ED7D31" stroke-width="1.33333" stroke-linecap="round" stroke-miterlimit="8" fill="#F1862D" fill-rule="evenodd"/><path d="M718.299 662.914C721.868 662.123 730.016 659.657 731.414 651.511 732.812 643.365 721.556 656.04 720.784 650.705 720.012 645.37 715.1 644.015 713.303 644.941 711.505 645.867 709.167 653.264 710 656.26 710.833 659.255 714.73 663.705 718.299 662.914Z" stroke="#ED7D31" stroke-width="1.33333" stroke-linecap="round" stroke-miterlimit="8" fill="#F1862D" fill-rule="evenodd"/><path d="M622 641C622.157 643.717 622.218 646.441 622.471 649.151 622.597 650.492 623.005 651.513 623.885 652.507 627.335 656.407 626.362 655.182 630.01 657.781 630.654 658.239 631.229 658.796 631.895 659.219 632.491 659.598 633.208 659.763 633.78 660.178 635.607 661.506 634.627 661.68 636.607 662.575 637.515 662.986 639.434 663.534 639.434 663.534 639.748 662.735 640.109 661.953 640.377 661.137 641.562 657.517 640.762 655.097 640.377 650.589 640.276 649.416 640.009 647.605 638.963 646.753 638.575 646.438 638.021 646.434 637.549 646.274 635.665 646.434 633.722 646.258 631.895 646.753 630.461 647.142 630.445 648.597 630.01 649.63 629.734 650.287 629.382 650.909 629.068 651.548 629.225 654.584 629.28 657.628 629.539 660.658 629.775 663.417 629.977 661.78 630.953 664.014 632.409 667.348 631.453 666.019 632.366 668.808 632.634 669.625 632.951 670.426 633.309 671.206 634.051 672.825 635.665 676 635.665 676L636.136 674.562" stroke="#2F528F" stroke-width="1.66667" stroke-linecap="round" stroke-linejoin="round" stroke-miterlimit="10" fill="none" fill-rule="evenodd"/><path d="M689.456 652.327C688.59 652.637 687.728 652.963 686.856 653.258 686.317 653.44 685.743 653.524 685.223 653.756 684.767 653.96 684.434 654.409 683.956 654.555 683.315 654.751 682.616 654.637 681.956 654.754 681.179 654.892 680.446 655.301 679.657 655.318 678.951 655.334 678.279 655.006 677.591 654.85 676.824 655.039 676.077 655.337 675.291 655.415 671.612 655.78 670.556 654.436 666.26 655.975 665.393 656.285 664.516 656.567 663.66 656.906 663.003 657.166 662.408 657.587 661.726 657.771 661.08 657.946 660.393 657.903 659.727 657.969 659.549 658.436 659.198 658.87 659.193 659.369 659.166 661.652 662.455 663.72 663.421 664.67 665.267 666.921 665.654 667.882 669.216 668.807 669.98 669.005 670.749 668.43 671.516 668.242 675.179 665.932 674.093 667.09 676.985 662.315 677.244 661.888 677.818 661.316 677.52 660.915 676.104 659.011 674.056 657.669 672.325 656.046 673.535 652.877 672.542 655.033 676.461 650.251" stroke="#FFC000" stroke-width="1.66667" stroke-linecap="round" stroke-linejoin="round" stroke-miterlimit="10" fill="none" fill-rule="evenodd"/><path d="M637.19 587.785C634.747 597.099 637.878 585.511 635.534 593.263 634.589 596.391 634.868 596.588 633.61 599.766 633.186 600.834 632.581 601.823 632.135 602.882 631.612 604.126 631.271 605.444 630.704 606.668 630.092 607.988 629.271 609.202 628.605 610.497 628.079 611.519 627.67 612.599 627.13 613.613 626.374 615.035 625.455 616.367 624.718 617.798L623.825 619.535C622.859 620.157 622.001 621.808 620.926 621.402 619.861 620.999 620.359 619.197 620.04 618.104 619.782 617.22 619.257 616.392 619.197 615.474 619.139 614.583 619.254 613.663 619.022 612.8 618.802 611.979 618.153 611.327 617.867 610.526 616.772 607.466 617.765 608.967 617.561 605.848 617.179 599.984 616.707 609.554 617.3 601.837 617.493 601.377 617.43 600.672 617.881 600.457 619.825 599.528 620.496 600.622 622.247 600.508 623.035 600.456 623.777 600.072 624.565 600.021 631.526 599.566 622.828 601.757 634.278 599.722 635.273 599.545 636.288 599.454 637.264 599.191 637.946 599.008 638.528 598.502 639.225 598.392 639.788 598.304 640.354 598.542 640.918 598.617L644.216 597.731 645.866 597.287" stroke="#70AD47" stroke-width="1.66667" stroke-linecap="round" stroke-linejoin="round" stroke-miterlimit="10" fill="none" fill-rule="evenodd"/><path d="M726.545 631.669C724.102 640.983 727.233 629.395 724.889 637.147 723.944 640.275 724.223 640.472 722.964 643.65 722.541 644.718 721.936 645.707 721.49 646.767 720.966 648.01 720.626 649.328 720.059 650.552 719.447 651.872 718.625 653.086 717.96 654.381 717.434 655.403 717.025 656.483 716.485 657.497 715.729 658.919 714.81 660.251 714.073 661.682L713.18 663.419C712.214 664.041 711.356 665.693 710.281 665.286 709.216 664.884 709.713 663.081 709.395 661.988 709.137 661.104 708.612 660.277 708.552 659.358 708.493 658.467 708.609 657.547 708.377 656.684 708.156 655.863 707.508 655.211 707.222 654.411 706.127 651.35 707.12 652.851 706.916 649.732 706.533 643.868 706.061 653.438 706.654 645.721 706.848 645.261 706.785 644.556 707.236 644.341 709.18 643.412 709.851 644.506 711.602 644.392 712.39 644.34 713.132 643.956 713.919 643.905 720.88 643.45 712.183 645.641 723.633 643.606 724.628 643.429 725.642 643.338 726.619 643.076 727.3 642.892 727.883 642.386 728.58 642.276 729.143 642.188 729.709 642.426 730.273 642.501L733.571 641.615 735.22 641.171" stroke="#70AD47" stroke-width="1.66667" stroke-linecap="round" stroke-linejoin="round" stroke-miterlimit="10" fill="none" fill-rule="evenodd"/><path d="M694.664 612.413C692.592 609.401 687.253 602.771 679.176 604.528 671.1 606.285 687.069 611.969 682.413 614.684 677.756 617.399 678.341 622.461 679.873 623.781 681.405 625.1 689.139 624.495 691.604 622.601 694.069 620.706 696.735 615.425 694.664 612.413Z" stroke="#ED7D31" stroke-width="1.33333" stroke-linecap="round" stroke-miterlimit="8" fill="#F1862D" fill-rule="evenodd"/><path d="M704.96 610.959C703.363 608.796 701.843 606.574 700.169 604.47 699.34 603.428 698.445 602.808 697.169 602.468 692.16 601.131 693.64 601.612 689.166 601.462 688.377 601.436 687.593 601.291 686.803 601.306 686.097 601.319 685.404 601.576 684.699 601.546 682.443 601.449 683.175 600.768 681.025 601.112 680.039 601.271 678.127 601.87 678.127 601.87 678.293 602.703 678.411 603.548 678.626 604.371 679.578 608.018 681.557 609.582 684.312 613.102 685.029 614.018 686.231 615.371 687.571 615.502 688.068 615.55 688.537 615.249 689.02 615.123 690.521 613.957 692.252 613.037 693.524 611.624 694.522 610.516 693.751 609.303 693.561 608.209 693.439 607.514 693.4 606.806 693.32 606.105 691.551 603.677 689.863 601.188 688.012 598.823 686.326 596.668 687.038 598.134 685.012 596.82 681.988 594.859 683.51 595.434 681.237 593.627 680.571 593.098 679.872 592.609 679.151 592.159 677.652 591.226 674.581 589.483 674.581 589.483L674.96 590.932" stroke="#2F528F" stroke-width="1.66667" stroke-linecap="round" stroke-linejoin="round" stroke-miterlimit="10" fill="none" fill-rule="evenodd"/><text fill="#FFFFFF" font-family="Calibri,Calibri_MSFontService,sans-serif" font-weight="400" font-size="24" transform="translate(628.68 539)">Selection <tspan x="-8.57996" y="26">for Binding</tspan></text><path d="M325.5 585.989C325.5 581.301 329.301 577.5 333.989 577.5L475.011 577.5C479.699 577.5 483.5 581.301 483.5 585.989L483.5 704.011C483.5 708.699 479.699 712.5 475.011 712.5L333.989 712.5C329.301 712.5 325.5 708.699 325.5 704.011Z" stroke="#828282" stroke-width="1.33333" stroke-miterlimit="8" fill="#FFFFFF" fill-rule="evenodd"/><path d="M335.022 577.5 472.978 577.5C478.237 577.5 482.5 581.763 482.5 587.022L482.5 603.5 325.5 603.5 325.5 587.022C325.5 581.763 329.763 577.5 335.022 577.5Z" stroke="#828282" stroke-width="1.33333" stroke-miterlimit="8" fill="#828282" fill-rule="evenodd"/><path d="M449.748 666.573C449.787 665.051 449.874 663.529 449.864 662.007 449.859 661.18 449.639 660.355 449.703 659.531 450.14 653.84 450.695 658.526 450.483 652.434 450.367 649.128 450.052 645.831 449.836 642.53L449.62 639.229C449.467 636.884 449.435 634.52 448.75 632.24 448.572 631.65 448.128 631.175 447.817 630.643 446.863 630.844 445.876 630.927 444.955 631.245 444.372 631.445 443.929 631.945 443.358 632.178 442.707 632.443 441.973 632.46 441.322 632.725 440.349 633.121 439.467 633.712 438.514 634.152 437.722 634.517 436.899 634.81 436.091 635.139 430.492 639.424 430.075 639.359 425.013 649.538 422.693 654.205 424.202 654.578 425.938 657.352 426.592 658.398 427.804 660.546 427.804 660.546 428.665 661.042 429.414 661.837 430.388 662.035 431.076 662.175 431.723 661.533 432.424 661.488 433.126 661.442 433.818 661.673 434.514 661.766 435.373 661.329 437.883 660.123 438.919 659.406 439.737 658.84 440.498 658.198 441.288 657.593 443.07 655.267 445.032 653.068 446.634 650.613 447.561 649.193 448.354 646.423 448.733 644.674 448.754 644.575 449.634 640.005 449.62 639.229 449.582 637.023 449.762 634.756 449.189 632.626 447.899 627.826 449.465 633.803 448.041 627.728 447.88 627.043 447.654 626.375 447.493 625.691 446.068 619.615 447.635 625.592 446.345 620.793L447.78 617.384" stroke="#70AD47" stroke-width="1.66667" stroke-linecap="round" stroke-linejoin="round" stroke-miterlimit="10" fill="none" fill-rule="evenodd"/><path d="M402.646 659.25C401.564 659.597 400.487 659.964 399.399 660.291 398.725 660.493 398.013 660.573 397.362 660.839 396.791 661.071 396.361 661.612 395.765 661.772 394.967 661.986 394.108 661.816 393.289 661.933 392.324 662.071 391.402 662.546 390.427 662.535 389.556 662.525 388.741 662.092 387.897 661.871 386.944 662.071 386.008 662.409 385.036 662.472 380.48 662.77 379.233 661.067 373.867 662.787 372.784 663.134 371.689 663.445 370.619 663.828 369.798 664.122 369.046 664.616 368.197 664.815 367.392 665.004 366.546 664.923 365.721 664.977 365.482 665.545 365.031 666.065 365.003 666.681 364.875 669.498 368.848 672.188 370.001 673.4 372.185 676.255 372.624 677.457 376.981 678.747 377.915 679.023 378.889 678.346 379.843 678.145 384.46 675.447 383.071 676.831 386.84 671.058 387.177 670.541 387.908 669.86 387.557 669.353 385.889 666.943 383.418 665.203 381.349 663.127 382.974 659.267 381.66 661.886 386.695 656.147" stroke="#70AD47" stroke-width="1.66667" stroke-linecap="round" stroke-linejoin="round" stroke-miterlimit="10" fill="none" fill-rule="evenodd"/><path d="M362 609C362.373 610.382 362.54 611.846 363.118 613.147 365.018 617.428 365.822 617.851 367.588 620.847 368.164 621.824 368.613 622.888 369.265 623.809 369.739 624.479 370.482 624.905 370.941 625.586 371.425 626.305 371.575 627.237 372.059 627.956 376.443 634.461 370.663 623.635 375.412 632.695 375.816 633.466 376.101 634.307 376.529 635.064 379.251 639.872 378.318 637.02 379.882 641.58 380.285 642.754 381 645.134 381 645.134 380.814 645.727 380.968 646.632 380.441 646.911 379.914 647.191 379.181 646.76 378.765 646.319 377.815 645.312 377.335 643.904 376.529 642.765 374.925 640.497 374.758 640.556 373.735 638.026 371.233 631.836 373.176 618.417 373.176 616.701" stroke="#2F528F" stroke-width="1.66667" stroke-linecap="round" stroke-linejoin="round" stroke-miterlimit="10" fill="none" fill-rule="evenodd"/><path d="M398.838 615C404.28 625.748 397.595 612.3 401.831 621.502 403.54 625.215 403.97 625.169 405.422 629.187 405.911 630.537 406.16 631.964 406.62 633.324 407.159 634.921 407.934 636.438 408.415 638.053 408.934 639.796 409.166 641.611 409.613 643.373 409.965 644.765 410.477 646.115 410.81 647.511 411.276 649.467 411.513 651.473 412.007 653.422L412.606 655.787C412.206 657.166 412.768 659.421 411.408 659.924 410.061 660.423 409.031 658.323 407.817 657.56 406.835 656.943 405.646 656.599 404.824 655.787 404.026 654.998 403.369 654.04 402.429 653.422 401.535 652.834 400.376 652.755 399.436 652.24 395.845 650.27 398.04 650.861 395.246 648.102 389.994 642.916 397.523 652.283 391.655 644.555 391.455 643.964 390.807 643.355 391.056 642.782 392.129 640.31 393.678 640.784 395.246 639.235 395.952 638.539 396.336 637.568 397.042 636.871 403.276 630.715 396.839 639.929 406.021 628.596 406.819 627.61 407.707 626.69 408.415 625.64 408.91 624.907 409.041 623.952 409.613 623.276 410.073 622.73 410.81 622.487 411.408 622.093L413.803 618.547 415 616.773" stroke="#2F528F" stroke-width="1.66667" stroke-linecap="round" stroke-linejoin="round" stroke-miterlimit="10" fill="none" fill-rule="evenodd"/><path d="M417.863 646.789C418.999 646.817 420.139 646.961 421.272 646.871 422.999 646.735 426.918 645.218 428.041 644.928 430.71 644.238 436.111 643.116 436.111 643.116 439.032 640.733 435.809 643.007 440.772 641.223 441.842 640.838 442.781 640.153 443.819 639.691 444.71 639.295 445.642 638.999 446.553 638.653 450.042 635.806 448.526 637.165 451.165 634.651 451.626 633.559 452.495 632.558 452.548 631.374 452.577 630.758 451.9 630.271 451.379 629.941 446.435 626.81 441.289 624.011 436.243 621.047L431.484 618.724C429.107 617.584 426.432 616.29 423.941 615.332 423.19 615.043 422.425 614.791 421.651 614.574 420.464 614.241 418.061 613.685 418.061 613.685 417.66 615.046 416.94 616.352 416.858 617.769 416.818 618.471 417.45 619.045 417.715 619.696 418.751 622.246 418.567 621.604 418.934 623.237" stroke="#2F528F" stroke-width="1.66667" stroke-linecap="round" stroke-linejoin="round" stroke-miterlimit="10" fill="none" fill-rule="evenodd"/><path d="M386.554 642C386.749 644.318 386.678 646.674 387.139 648.955 387.276 649.638 388.031 650.053 388.308 650.693 388.624 651.425 388.735 652.23 388.892 653.011 389.787 657.444 389.45 657.405 390.062 662.864 390.214 664.221 390.451 665.568 390.646 666.92 390.451 671.75 390.803 676.632 390.062 681.409 389.968 682.013 388.923 682.024 388.308 681.988 385.557 681.828 382.851 681.216 380.123 680.829 372.768 678.399 380.483 681.131 373.108 677.932 371.185 677.098 367.262 675.614 367.262 675.614 366.677 675.034 366.143 674.4 365.508 673.875 364.968 673.429 364.193 673.26 363.754 672.716 363.369 672.239 363.445 671.524 363.169 670.977 362.855 670.354 362.39 669.818 362 669.239 362.195 667.886 362.014 666.425 362.585 665.182 363.041 664.187 364.093 663.583 364.923 662.864 366.09 661.851 368.852 659.987 370.185 659.386 371.307 658.881 372.534 658.645 373.692 658.227 374.679 657.872 375.594 657.306 376.615 657.068 382.314 655.739 382.839 656.21 387.723 655.33 388.514 655.187 389.259 654.788 390.062 654.75 393.371 654.594 396.687 654.75 400 654.75" stroke="#2F528F" stroke-width="1.66667" stroke-linecap="round" stroke-linejoin="round" stroke-miterlimit="10" fill="none" fill-rule="evenodd"/><path d="M345.914 683.599C349.664 672.316 344.886 686.347 348.389 676.98 349.803 673.2 349.474 672.935 351.277 669.119 351.883 667.836 352.708 666.666 353.341 665.396 354.085 663.905 354.609 662.308 355.405 660.845 356.264 659.266 357.373 657.835 358.296 656.293 359.025 655.075 359.614 653.776 360.36 652.569 361.405 650.878 362.643 649.309 363.664 647.603L364.903 645.534C366.143 644.844 367.331 642.877 368.623 643.463 369.903 644.044 369.148 646.226 369.454 647.598 369.702 648.707 370.283 649.769 370.284 650.906 370.285 652.008 370.07 653.133 370.287 654.214 370.494 655.243 371.241 656.099 371.53 657.108 372.637 660.967 371.532 659.038 371.536 662.898 371.542 670.154 372.883 658.398 371.54 667.86 371.265 668.412 371.287 669.286 370.714 669.515 368.245 670.506 367.505 669.105 365.338 669.107 364.363 669.107 363.418 669.522 362.443 669.523 353.829 669.531 364.721 667.521 350.45 669.12 349.21 669.259 347.952 669.291 346.728 669.537 345.874 669.709 345.116 670.287 344.248 670.367 343.548 670.431 342.869 670.092 342.18 669.955L338.045 670.786 335.978 671.201" stroke="#ED7D31" stroke-width="1.66667" stroke-linecap="round" stroke-linejoin="round" stroke-miterlimit="10" fill="none" fill-rule="evenodd"/><path d="M433.333 674.999C434.436 675.274 435.517 675.663 436.642 675.823 438.357 676.066 442.513 675.441 443.672 675.403 446.428 675.312 451.943 675.396 451.943 675.396 455.314 673.706 451.672 675.223 456.905 674.564 458.033 674.422 459.098 673.958 460.213 673.734 461.168 673.542 462.142 673.456 463.107 673.318 467.133 671.3 465.357 672.296 468.481 670.418 469.169 669.452 470.235 668.665 470.546 667.521 470.708 666.926 470.154 666.303 469.717 665.867 465.576 661.733 461.163 657.88 456.886 653.886L452.748 650.581C450.677 648.95 448.348 647.103 446.126 645.625 445.457 645.18 444.765 644.766 444.057 644.386 442.971 643.802 440.747 642.735 440.747 642.735 440.059 643.976 439.072 645.094 438.683 646.459 438.49 647.135 438.982 647.833 439.098 648.526 439.553 651.241 439.514 650.574 439.515 652.248" stroke="#ED7D31" stroke-width="1.66667" stroke-linecap="round" stroke-linejoin="round" stroke-miterlimit="10" fill="none" fill-rule="evenodd"/><path d="M375.38 706.635C377.583 704.151 379.878 701.746 381.99 699.185 383.036 697.916 383.556 696.677 383.641 695.048 383.971 688.655 383.77 690.565 382.804 685.123 382.634 684.163 382.608 683.178 382.388 682.228 382.191 681.379 381.703 680.608 381.559 679.748 381.098 676.998 382.109 677.708 381.141 675.199 380.698 674.049 379.484 671.892 379.484 671.892 378.519 672.307 377.529 672.665 376.59 673.135 372.429 675.221 371.047 678.012 367.5 682.242 366.577 683.343 365.252 685.141 365.437 686.793 365.505 687.406 365.989 687.895 366.265 688.446 368.059 689.961 369.613 691.816 371.646 692.991 373.24 693.912 374.508 692.67 375.78 692.16 376.59 691.835 377.434 691.607 378.261 691.33 380.74 688.571 383.314 685.895 385.697 683.053 387.868 680.464 386.28 681.699 387.348 678.915 388.942 674.76 388.637 676.746 390.238 673.537 390.707 672.597 391.118 671.628 391.476 670.641 392.219 668.591 393.538 664.435 393.538 664.435L391.885 665.264" stroke="#ED7D31" stroke-width="1.66667" stroke-linecap="round" stroke-linejoin="round" stroke-miterlimit="10" fill="none" fill-rule="evenodd"/><path d="M362.2 649.426C363.714 647.633 365.443 646 366.744 644.046 367.133 643.46 366.895 642.63 367.155 641.977 367.453 641.231 367.949 640.578 368.394 639.909 370.922 636.11 371.132 636.377 374.59 632.045 375.451 630.968 376.243 629.838 377.069 628.735 380.65 625.423 383.881 621.688 387.812 618.8 388.309 618.435 389.057 619.165 389.467 619.625 391.301 621.684 392.78 624.033 394.436 626.238 397.911 633.172 394.395 625.768 397.337 633.265 398.104 635.22 399.824 639.053 399.824 639.053 399.824 639.88 399.75 640.711 399.826 641.534 399.89 642.234 400.318 642.903 400.241 643.602 400.174 644.214 399.61 644.672 399.416 645.257 399.194 645.924 399.141 646.635 399.004 647.325 397.902 648.153 396.988 649.324 395.698 649.809 394.666 650.197 393.49 649.884 392.39 649.812 390.842 649.71 387.557 649.09 386.185 648.577 385.03 648.145 383.993 647.446 382.875 646.926 381.923 646.483 380.872 646.24 379.979 645.688 374.997 642.61 374.96 641.902 370.875 639.079 370.214 638.622 369.401 638.381 368.806 637.84 366.352 635.613 364.115 633.158 361.769 630.816" stroke="#ED7D31" stroke-width="1.66667" stroke-linecap="round" stroke-linejoin="round" stroke-miterlimit="10" fill="none" fill-rule="evenodd"/><path d="M465.877 648.139C465.313 649.442 464.533 650.671 464.187 652.047 463.046 656.577 463.431 657.433 462.987 660.893 462.842 662.021 462.539 663.132 462.49 664.267 462.455 665.094 462.79 665.911 462.735 666.737 462.678 667.607 462.215 668.418 462.157 669.288 461.635 677.164 463.732 665.062 461.906 675.131 461.75 675.988 461.455 676.819 461.328 677.682 460.522 683.159 461.552 680.362 459.965 684.882 459.556 686.045 458.645 688.337 458.645 688.337 458.124 688.666 457.682 689.46 457.081 689.324 456.479 689.188 456.155 688.373 456.094 687.759 455.955 686.36 456.449 684.967 456.509 683.562 456.629 680.766 456.458 680.7 457.213 678.09 459.06 671.703 469.031 662.744 470.105 661.434" stroke="#FFC000" stroke-width="1.66667" stroke-linecap="round" stroke-linejoin="round" stroke-miterlimit="10" fill="none" fill-rule="evenodd"/><path d="M409.669 645.429C407.042 657.024 410.423 642.593 407.853 652.258 406.817 656.158 407.17 656.389 405.749 660.363 405.271 661.699 404.565 662.945 404.058 664.271 403.464 665.827 403.099 667.468 402.45 669.002 401.749 670.657 400.787 672.19 400.019 673.815 399.412 675.098 398.953 676.448 398.328 677.723 397.454 679.508 396.376 681.191 395.526 682.988L394.496 685.168C393.329 685.977 392.34 688.05 390.996 687.594 389.665 687.141 390.204 684.895 389.765 683.56 389.41 682.48 388.727 681.48 388.615 680.349 388.506 679.252 388.61 678.112 388.288 677.057 387.982 676.053 387.155 675.275 386.768 674.299 385.289 670.567 386.577 672.378 386.196 668.537 385.479 661.316 385.295 673.147 385.706 663.599 385.926 663.023 385.819 662.156 386.366 661.871 388.727 660.644 389.6 661.966 391.757 661.752 392.727 661.655 393.626 661.151 394.596 661.054 403.168 660.204 392.526 663.269 406.572 660.281 407.793 660.022 409.041 659.867 410.235 659.502 411.068 659.248 411.766 658.598 412.622 658.434 413.312 658.302 414.021 658.572 414.721 658.641L418.754 657.41 420.771 656.794" stroke="#FFC000" stroke-width="1.66667" stroke-linecap="round" stroke-linejoin="round" stroke-miterlimit="10" fill="none" fill-rule="evenodd"/><path d="M434.299 697.991C432.201 696.938 430.21 695.639 428.005 694.832 427.345 694.59 426.594 695.016 425.898 694.915 425.103 694.8 424.352 694.471 423.597 694.195 419.313 692.627 419.523 692.36 414.502 690.011 413.254 689.426 411.97 688.921 410.703 688.376 406.646 685.669 402.258 683.401 398.53 680.255 398.059 679.858 398.594 678.959 398.946 678.453 400.519 676.189 402.457 674.201 404.212 672.075 410.141 667.074 403.765 672.224 410.366 667.61 412.087 666.407 415.411 663.838 415.411 663.838 416.215 663.644 417.04 663.522 417.823 663.255 418.488 663.029 419.038 662.456 419.736 662.368 420.347 662.29 420.924 662.731 421.538 662.783 422.238 662.843 422.943 662.727 423.645 662.7 424.708 663.577 426.06 664.192 426.834 665.333 427.453 666.245 427.424 667.462 427.611 668.549 427.874 670.077 428.04 673.416 427.862 674.87 427.712 676.094 427.276 677.266 427.031 678.474 426.823 679.503 426.833 680.582 426.505 681.58 424.678 687.144 423.999 687.345 422.21 691.977 421.921 692.727 421.876 693.574 421.49 694.279 419.899 697.186 418.035 699.935 416.307 702.764" stroke="#FFC000" stroke-width="1.66667" stroke-linecap="round" stroke-linejoin="round" stroke-miterlimit="10" fill="none" fill-rule="evenodd"/><path d="M360.99 659.13C360.977 657.607 361.014 656.084 360.952 654.562 360.919 653.736 360.672 652.919 360.707 652.093 360.953 646.391 361.666 651.056 361.248 644.975 361.021 641.674 360.594 638.39 360.267 635.098L359.941 631.805C359.709 629.467 359.597 627.106 358.835 624.85 358.638 624.266 358.177 623.807 357.848 623.286 356.902 623.518 355.919 623.635 355.008 623.983 354.433 624.203 354.007 624.718 353.444 624.97 352.802 625.257 352.069 625.298 351.427 625.585 350.469 626.014 349.607 626.634 348.669 627.106 347.89 627.498 347.077 627.818 346.281 628.174 340.83 632.645 340.41 632.594 335.695 642.939 333.533 647.681 335.054 648.003 336.882 650.717 337.571 651.74 338.855 653.846 338.855 653.846 339.733 654.313 340.508 655.082 341.488 655.247 342.181 655.364 342.805 654.701 343.505 654.632 344.204 654.562 344.904 654.77 345.603 654.839 346.447 654.374 348.915 653.084 349.926 652.332 350.723 651.739 351.463 651.071 352.232 650.441 353.934 648.055 355.821 645.791 357.34 643.284 358.219 641.833 358.918 639.038 359.237 637.278 359.255 637.178 359.98 632.581 359.941 631.805 359.827 629.603 359.931 627.33 359.287 625.221 357.836 620.468 359.603 626.388 357.974 620.364 357.791 619.686 357.542 619.026 357.358 618.347 355.729 612.323 357.496 618.244 356.045 613.491L357.365 610.035" stroke="#FFC000" stroke-width="1.66667" stroke-linecap="round" stroke-linejoin="round" stroke-miterlimit="10" fill="none" fill-rule="evenodd"/><path d="M379.122 641.722C378.515 643.005 377.694 644.207 377.301 645.571 376.009 650.06 376.365 650.929 375.804 654.372 375.621 655.494 375.281 656.594 375.194 657.727 375.131 658.552 375.438 659.38 375.356 660.203 375.269 661.071 374.779 661.866 374.692 662.733 373.904 670.587 376.408 658.563 374.244 668.565 374.059 669.417 373.736 670.237 373.58 671.094 372.59 676.542 373.713 673.781 371.975 678.245 371.527 679.394 370.54 681.654 370.54 681.654 370.007 681.965 369.539 682.743 368.943 682.587 368.347 682.431 368.05 681.605 368.01 680.99 367.918 679.587 368.458 678.211 368.566 676.81 368.78 674.019 368.611 673.947 369.453 671.364 371.515 665.042 381.783 656.426 382.9 655.152" stroke="#70AD47" stroke-width="1.66667" stroke-linecap="round" stroke-linejoin="round" stroke-miterlimit="10" fill="none" fill-rule="evenodd"/><path d="M437.652 660.684C436.533 660.481 435.43 660.161 434.296 660.074 432.569 659.942 428.462 660.832 427.308 660.945 424.564 661.213 419.054 661.484 419.054 661.484 415.799 663.386 419.336 661.639 414.156 662.633 413.04 662.847 412.006 663.378 410.909 663.674 409.967 663.927 409.001 664.074 408.047 664.275 404.159 666.547 405.867 665.439 402.871 667.514 402.246 668.522 401.233 669.375 400.996 670.537 400.873 671.141 401.466 671.728 401.929 672.134 406.328 675.994 410.979 679.556 415.503 683.266L419.846 686.298C422.017 687.794 424.459 689.487 426.772 690.819 427.468 691.221 428.185 691.589 428.916 691.923 430.037 692.435 432.325 693.358 432.325 693.358 432.932 692.075 433.846 690.896 434.146 689.509 434.295 688.822 433.759 688.157 433.599 687.473 432.97 684.793 433.053 685.456 432.944 683.785" stroke="#70AD47" stroke-width="1.66667" stroke-linecap="round" stroke-linejoin="round" stroke-miterlimit="10" fill="none" fill-rule="evenodd"/><path d="M411.408 616.248C410.012 618.135 408.391 619.875 407.219 621.909 406.868 622.518 407.159 623.331 406.941 623.999 406.692 624.764 406.239 625.447 405.838 626.144 403.56 630.096 403.333 629.844 400.16 634.389 399.37 635.519 398.653 636.697 397.899 637.852 394.538 641.387 391.553 645.322 387.816 648.456 387.344 648.853 386.55 648.172 386.112 647.739 384.15 645.802 382.523 643.553 380.728 641.459 376.815 634.763 380.799 641.926 377.382 634.633 376.491 632.731 374.528 629.017 374.528 629.017 374.474 628.191 374.495 627.358 374.367 626.541 374.258 625.846 373.787 625.206 373.819 624.504 373.847 623.888 374.38 623.396 374.537 622.8 374.715 622.12 374.722 621.406 374.815 620.709 375.861 619.812 376.698 618.585 377.954 618.018 378.96 617.564 380.153 617.801 381.256 617.802 382.807 617.804 386.125 618.212 387.527 618.636 388.707 618.993 389.787 619.624 390.936 620.071 391.914 620.452 392.979 620.627 393.906 621.121 399.076 623.872 399.157 624.576 403.416 627.131 404.105 627.544 404.931 627.733 405.56 628.234 408.152 630.299 410.542 632.606 413.033 634.791" stroke="#70AD47" stroke-width="1.66667" stroke-linecap="round" stroke-linejoin="round" stroke-miterlimit="10" fill="none" fill-rule="evenodd"/><path d="M413.245 698.18C413.934 696.939 414.83 695.792 415.31 694.456 416.888 690.059 416.588 689.17 417.37 685.769 417.624 684.661 418.034 683.586 418.194 682.46 418.31 681.641 418.056 680.795 418.192 679.979 418.334 679.119 418.874 678.357 419.016 677.497 420.307 669.709 417.036 681.548 419.838 671.706 420.077 670.868 420.452 670.07 420.663 669.224 422.001 663.852 420.703 666.535 422.724 662.192 423.245 661.074 424.376 658.882 424.376 658.882 424.927 658.606 425.444 657.859 426.029 658.053 426.614 658.248 426.857 659.09 426.858 659.707 426.859 661.113 426.232 662.451 426.034 663.843 425.641 666.614 425.806 666.696 424.799 669.22 422.335 675.396 411.535 683.336 410.338 684.535" stroke="#ED7D31" stroke-width="1.66667" stroke-linecap="round" stroke-linejoin="round" stroke-miterlimit="10" fill="none" fill-rule="evenodd"/><text fill="#FFFFFF" font-family="Calibri,Calibri_MSFontService,sans-serif" font-weight="400" font-size="24" transform="translate(334.521 598)">Unbound RNA</text><path d="M425.5 247.5 521.886 247.5" stroke="#4472C4" stroke-linecap="round" stroke-linejoin="round" stroke-miterlimit="10" fill="none" fill-rule="evenodd"/><path d="M425.5 286.5 521.886 286.5" stroke="#4472C4" stroke-linecap="round" stroke-linejoin="round" stroke-miterlimit="10" fill="none" fill-rule="evenodd"/><path d="M425.5 291.5 521.886 291.5" stroke="#4472C4" stroke-linecap="round" stroke-linejoin="round" stroke-miterlimit="10" fill="none" fill-rule="evenodd"/><path d="M425.5 340.5 521.886 340.5" stroke="#4472C4" stroke-linecap="round" stroke-linejoin="round" stroke-miterlimit="10" fill="none" fill-rule="evenodd"/><path d="M425.5 390.5 521.886 390.5" stroke="#4472C4" stroke-linecap="round" stroke-linejoin="round" stroke-miterlimit="10" fill="none" fill-rule="evenodd"/><path d="M0 0 15.4216 0.000104987" stroke="#4472C4" stroke-linecap="round" stroke-linejoin="round" stroke-miterlimit="10" fill="none" fill-rule="evenodd" transform="matrix(-1 0 0 1 439.922 336.5)"/><path d="M0 0 15.4216 0.000104987" stroke="#4472C4" stroke-linecap="round" stroke-linejoin="round" stroke-miterlimit="10" fill="none" fill-rule="evenodd" transform="matrix(-1 0 0 1 521.922 345.5)"/><path d="M0 0 15.4216 0.000104987" stroke="#4472C4" stroke-linecap="round" stroke-linejoin="round" stroke-miterlimit="10" fill="none" fill-rule="evenodd" transform="matrix(-1 0 0 1 521.922 395.5)"/><path d="M0.666667-2.63101e-06 0.666745 19.9357C0.666747 20.3039 0.368271 20.6024 8.13078e-05 20.6024-0.368109 20.6024-0.666587 20.3039-0.666588 19.9358L-0.666667 2.63101e-06C-0.666668-0.368187-0.368192-0.666665-2.63101e-06-0.666667 0.368187-0.666668 0.666665-0.368192 0.666667-2.63101e-06ZM4.00007 18.6024 0.000104987 26.6024-3.99993 18.6024Z" transform="matrix(1 0 0 -1 469.5 281.102)"/><path d="M0.666667-2.63101e-06 0.666745 19.9357C0.666747 20.3039 0.368271 20.6024 8.13078e-05 20.6024-0.368109 20.6024-0.666587 20.3039-0.666588 19.9358L-0.666667 2.63101e-06C-0.666668-0.368187-0.368192-0.666665-2.63101e-06-0.666667 0.368187-0.666668 0.666665-0.368192 0.666667-2.63101e-06ZM4.00007 18.6024 0.000104987 26.6024-3.99993 18.6024Z" transform="matrix(1 0 0 -1 469.5 328.102)"/><path d="M0.666667-2.63101e-06 0.666745 19.9357C0.666747 20.3039 0.368271 20.6024 8.13078e-05 20.6024-0.368109 20.6024-0.666587 20.3039-0.666588 19.9358L-0.666667 2.63101e-06C-0.666668-0.368187-0.368192-0.666665-2.63101e-06-0.666667 0.368187-0.666668 0.666665-0.368192 0.666667-2.63101e-06ZM4.00007 18.6024 0.000104987 26.6024-3.99993 18.6024Z" transform="matrix(1 0 0 -1 470.5 380.102)"/><text font-family="Calibri,Calibri_MSFontService,sans-serif" font-weight="400" font-size="13" transform="translate(525.303 251)">RNA<tspan x="0" y="41">DNA</tspan><tspan x="0" y="95">DNA</tspan><tspan x="0" y="144">RNA</tspan></text><path d="M434.5 334C434.5 330.41 440.768 327.5 448.5 327.5 456.232 327.5 462.5 330.41 462.5 334 462.5 337.59 456.232 340.5 448.5 340.5 440.768 340.5 434.5 337.59 434.5 334Z" stroke="#70AD47" stroke-width="1.33333" stroke-miterlimit="8" fill="#81BB59" fill-rule="evenodd"/><text fill="#FFFFFF" font-family="Calibri,Calibri_MSFontService,sans-serif" font-weight="400" font-size="8" transform="translate(442.316 336)">Taq</text><path d="M482.5 348C482.5 344.41 488.992 341.5 497 341.5 505.008 341.5 511.5 344.41 511.5 348 511.5 351.59 505.008 354.5 497 354.5 488.992 354.5 482.5 351.59 482.5 348Z" stroke="#70AD47" stroke-width="1.33333" stroke-miterlimit="8" fill="#81BB59" fill-rule="evenodd"/><text fill="#FFFFFF" font-family="Calibri,Calibri_MSFontService,sans-serif" font-weight="400" font-size="8" transform="translate(490.702 350)">Taq</text><path d="M483.5 397C483.5 393.41 489.768 390.5 497.5 390.5 505.232 390.5 511.5 393.41 511.5 397 511.5 400.59 505.232 403.5 497.5 403.5 489.768 403.5 483.5 400.59 483.5 397Z" stroke="#70AD47" stroke-width="1.33333" stroke-miterlimit="8" fill="#81BB59" fill-rule="evenodd"/><text fill="#FFFFFF" font-family="Calibri,Calibri_MSFontService,sans-serif" font-weight="400" font-size="8" transform="translate(492.921 399)">RT<tspan fill="#000000" font-weight="700" font-size="48" x="149.816" y="12">SELEX</tspan></text><path d="M0.0998752-1.9975 7.59987-1.6225 15.04-0.541363 22.2513 1.31385 29.1224 3.80843 35.6641 6.87786 41.8467 10.6007 47.6202 14.8247 52.9659 19.6411 57.8335 24.819 62.1603 30.5471 65.8945 36.6453 69.0494 43.127 71.6212 49.9189 73.4382 57.0066 74.0691 61.7862C74.2104 62.8817 73.4368 63.8842 72.3413 64.0255 71.2458 64.1667 70.2432 63.3931 70.102 62.2976L69.5618 57.9934 67.8788 51.3311 65.4506 44.873 62.4805 38.7297 58.9647 32.9529 54.9165 27.556 50.2841 22.6089 45.2548 18.0503 39.7783 14.0243 33.9609 10.4971 27.7526 7.56657 21.2487 5.18615 14.46 3.41636 7.40012 2.3725-0.0998752 1.9975C-1.20307 1.94234-2.05266 1.00332-1.9975-0.0998752-1.94234-1.20307-1.00332-2.05266 0.0998752-1.9975ZM77.8775 59.5016 73 72 65.9278 60.5989Z" fill="#595959" transform="matrix(6.12323e-17 1 1 -6.12323e-17 322 203)"/><path d="M0.0998752-1.9975 7.59987-1.6225 15.04-0.541363 22.2187 1.1807 29.1068 3.61532 35.6495 6.62106 41.8202 10.2099 47.6085 14.3786 52.9356 18.9892 57.825 24.1225 62.1402 29.6458 65.8793 35.5584 69.0388 41.8556 71.6143 48.4635 73.4348 55.3687 74.0253 59.7883C74.1676 60.8836 73.3951 61.887 72.2997 62.0293 71.2043 62.1716 70.201 61.3991 70.0587 60.3037L69.5651 56.3813 67.8857 49.9115 65.4611 43.6444 62.4956 37.6916 58.9848 32.1041 54.925 26.8775 50.3144 22.0108 45.2665 17.6214 39.8048 13.6651 33.9755 10.2539 27.7682 7.38468 21.2813 5.0693 14.46 3.41636 7.40012 2.3725-0.0998752 1.9975C-1.20307 1.94234-2.05266 1.00332-1.9975-0.0998752-1.94234-1.20307-1.00332-2.05266 0.0998752-1.9975ZM77.8228 57.4804 73 70 65.878 58.63Z" fill="#595959" transform="matrix(-1 0 0 1 395 342)"/><text font-family="Calibri,Calibri_MSFontService,sans-serif" font-weight="400" font-size="19" transform="translate(1037.2 484)">or</text><path d="M402.5 286C402.5 285.172 403.172 284.5 404 284.5L424 284.5C424.828 284.5 425.5 285.172 425.5 286L425.5 292C425.5 292.828 424.828 293.5 424 293.5L404 293.5C403.172 293.5 402.5 292.828 402.5 292Z" stroke="#2F528F" stroke-width="1.33333" stroke-miterlimit="8" fill="#2E72B0" fill-rule="evenodd"/><path d="M399.5 277.5C399.5 274.186 405.992 271.5 414 271.5 422.008 271.5 428.5 274.186 428.5 277.5 428.5 280.814 422.008 283.5 414 283.5 405.992 283.5 399.5 280.814 399.5 277.5Z" stroke="#70AD47" stroke-width="1.33333" stroke-miterlimit="8" fill="#81BB59" fill-rule="evenodd"/><text fill="#FFFFFF" font-family="Calibri,Calibri_MSFontService,sans-serif" font-weight="400" font-size="8" transform="translate(409.81 279)">T7</text><path d="M402.5 334.333C402.5 333.873 402.873 333.5 403.333 333.5L424.667 333.5C425.127 333.5 425.5 333.873 425.5 334.333L425.5 337.667C425.5 338.127 425.127 338.5 424.667 338.5L403.333 338.5C402.873 338.5 402.5 338.127 402.5 337.667Z" stroke="#2F528F" stroke-width="1.33333" stroke-miterlimit="8" fill="#2E72B0" fill-rule="evenodd"/><path d="M871.022 154.5 1018.98 154.5C1024.24 154.5 1028.5 158.763 1028.5 164.022L1028.5 180.5 861.5 180.5 861.5 164.022C861.5 158.763 865.763 154.5 871.022 154.5Z" stroke="#828282" stroke-width="1.33333" stroke-miterlimit="8" fill="#828282" fill-rule="evenodd"/><text fill="#FFFFFF" font-family="Calibri,Calibri_MSFontService,sans-serif" font-weight="400" font-size="24" transform="translate(901.165 175)">RNA<tspan x="48.3333" y="0">Pool</tspan></text><path d="M382.278 171.5 563.722 171.5C570.227 171.5 575.5 176.773 575.5 183.278L575.5 224.5 370.5 224.5 370.5 183.278C370.5 176.773 375.773 171.5 382.278 171.5Z" stroke="#828282" stroke-width="1.33333" stroke-miterlimit="8" fill="#828282" fill-rule="evenodd"/><text fill="#FFFFFF" font-family="Calibri,Calibri_MSFontService,sans-serif" font-weight="400" font-size="24" transform="translate(423.046 191)">Enzymatic <tspan x="-15.5067" y="26">Amplification</tspan></text><path d="M687.724 191.315 725.756 211.238 703.471 244.686Z" stroke="#FFFFFF" stroke-width="1.33333" stroke-miterlimit="8" fill="#FFFFFF" fill-rule="evenodd"/><path d="M686.656 191.515 724.688 211.438 702.403 244.886Z" fill="url(#fill4)" fill-rule="evenodd"/><path d="M873.911 532.458 831.001 533.889 833.885 493.801Z" stroke="#FFFFFF" stroke-width="1.33333" stroke-miterlimit="8" fill="#FFFFFF" fill-rule="evenodd"/><path d="M874.916 531.808 832.006 533.24 834.891 493.151Z" fill="url(#fill5)" fill-rule="evenodd"/><path d="M465.172 561.296 469.538 518.585 508.872 526.847Z" stroke="#FFFFFF" stroke-width="1.33333" stroke-miterlimit="8" fill="#FFFFFF" fill-rule="evenodd"/><path d="M465.778 562.22 470.144 519.509 509.478 527.771Z" fill="url(#fill6)" fill-rule="evenodd"/></g></svg>