<svg width="537" height="413" xmlns="http://www.w3.org/2000/svg" xmlns:xlink="http://www.w3.org/1999/xlink" overflow="hidden"><defs><clipPath id="clip0"><rect x="692" y="208" width="537" height="413"/></clipPath><clipPath id="clip1"><rect x="693" y="208" width="535" height="412"/></clipPath><clipPath id="clip2"><rect x="693" y="208" width="535" height="412"/></clipPath><clipPath id="clip3"><rect x="693" y="208" width="535" height="412"/></clipPath><clipPath id="clip4"><rect x="693" y="208" width="535" height="412"/></clipPath><clipPath id="clip5"><rect x="693" y="208" width="535" height="412"/></clipPath><clipPath id="clip6"><rect x="693" y="208" width="535" height="412"/></clipPath><clipPath id="clip7"><rect x="693" y="208" width="535" height="412"/></clipPath><clipPath id="clip8"><rect x="693" y="208" width="535" height="412"/></clipPath><clipPath id="clip9"><rect x="693" y="208" width="535" height="412"/></clipPath><clipPath id="clip10"><rect x="693" y="208" width="535" height="412"/></clipPath><clipPath id="clip11"><rect x="693" y="208" width="535" height="412"/></clipPath><clipPath id="clip12"><rect x="693" y="208" width="535" height="412"/></clipPath><clipPath id="clip13"><rect x="693" y="208" width="535" height="412"/></clipPath><clipPath id="clip14"><rect x="693" y="208" width="535" height="412"/></clipPath><clipPath id="clip15"><rect x="693" y="208" width="535" height="412"/></clipPath><clipPath id="clip16"><rect x="693" y="208" width="535" height="412"/></clipPath><clipPath id="clip17"><rect x="693" y="208" width="535" height="412"/></clipPath><clipPath id="clip18"><rect x="693" y="208" width="535" height="412"/></clipPath><clipPath id="clip19"><rect x="693" y="208" width="535" height="412"/></clipPath><clipPath id="clip20"><rect x="693" y="208" width="535" height="412"/></clipPath></defs><g clip-path="url(#clip0)" transform="translate(-692 -208)"><g clip-path="url(#clip1)"><path d="M0 0 0.000104987 321" stroke="#7C7C7C" stroke-width="1.33333" stroke-linecap="round" stroke-linejoin="round" stroke-miterlimit="10" fill="none" fill-rule="evenodd" transform="matrix(1 0 0 -1 773.5 545.5)"/></g><g clip-path="url(#clip2)"><path d="M769.5 545.5 773.5 545.5M769.5 520.5 773.5 520.5M769.5 506.5 773.5 506.5M769.5 496.5 773.5 496.5M769.5 489.5 773.5 489.5M769.5 482.5 773.5 482.5M769.5 477.5 773.5 477.5M769.5 472.5 773.5 472.5M769.5 468.5 773.5 468.5M769.5 464.5 773.5 464.5M769.5 440.5 773.5 440.5M769.5 426.5 773.5 426.5M769.5 416.5 773.5 416.5M769.5 408.5 773.5 408.5M769.5 402.5 773.5 402.5M769.5 397.5 773.5 397.5M769.5 392.5 773.5 392.5M769.5 388.5 773.5 388.5M769.5 384.5 773.5 384.5M769.5 360.5 773.5 360.5M769.5 346.5 773.5 346.5M769.5 336.5 773.5 336.5M769.5 328.5 773.5 328.5M769.5 322.5 773.5 322.5M769.5 316.5 773.5 316.5M769.5 312.5 773.5 312.5M769.5 308.5 773.5 308.5M769.5 304.5 773.5 304.5M769.5 280.5 773.5 280.5M769.5 266.5 773.5 266.5M769.5 256.5 773.5 256.5M769.5 248.5 773.5 248.5M769.5 242.5 773.5 242.5M769.5 236.5 773.5 236.5M769.5 232.5 773.5 232.5M769.5 227.5 773.5 227.5M769.5 224.5 773.5 224.5M768.5 545.5 773.5 545.5M768.5 464.5 773.5 464.5M768.5 384.5 773.5 384.5M768.5 304.5 773.5 304.5M768.5 224.5 773.5 224.5" stroke="#7C7C7C" stroke-width="1.33333" stroke-linecap="round" stroke-linejoin="round" stroke-miterlimit="10" fill="none"/></g><g clip-path="url(#clip3)"><path d="M773.5 545.5 1206.5 545.5" stroke="#767171" stroke-width="1.33333" stroke-linecap="round" stroke-linejoin="round" stroke-miterlimit="10" fill="none" fill-rule="evenodd"/></g><g clip-path="url(#clip4)"><path d="M773.5 545.5 773.5 550.5M917.5 545.5 917.5 550.5M1062.5 545.5 1062.5 550.5M1206.5 545.5 1206.5 550.5" stroke="#767171" stroke-width="1.33333" stroke-linecap="round" stroke-linejoin="round" stroke-miterlimit="10" fill="none"/></g><g clip-path="url(#clip5)"><path d="M854.5 455.587C854.5 460.374 850.62 464.254 845.833 464.254 841.047 464.254 837.167 460.374 837.167 455.587 837.167 450.801 841.047 446.921 845.833 446.921 850.62 446.921 854.5 450.801 854.5 455.587Z" stroke="#2E72B0" stroke-linejoin="round" stroke-miterlimit="10" fill="#2E72B0"/><path d="M998.667 336.254C998.667 341.04 994.786 344.921 990 344.921 985.214 344.921 981.333 341.04 981.333 336.254 981.333 331.467 985.214 327.587 990 327.587 994.786 327.587 998.667 331.467 998.667 336.254Z" stroke="#2E72B0" stroke-linejoin="round" stroke-miterlimit="10" fill="#2E72B0"/><path d="M1142.83 249.754C1142.83 254.54 1138.95 258.42 1134.17 258.42 1129.38 258.42 1125.5 254.54 1125.5 249.754 1125.5 244.967 1129.38 241.087 1134.17 241.087 1138.95 241.087 1142.83 244.967 1142.83 249.754Z" stroke="#2E72B0" stroke-linejoin="round" stroke-miterlimit="10" fill="#2E72B0"/></g><g clip-path="url(#clip6)"><path d="M854.5 470.921C854.5 475.707 850.62 479.587 845.833 479.587 841.047 479.587 837.167 475.707 837.167 470.921 837.167 466.134 841.047 462.254 845.833 462.254 850.62 462.254 854.5 466.134 854.5 470.921Z" stroke="#FF9F4F" stroke-linejoin="round" stroke-miterlimit="10" fill="#FF9F4F"/><path d="M998.667 306.921C998.667 311.707 994.786 315.587 990 315.587 985.214 315.587 981.333 311.707 981.333 306.921 981.333 302.134 985.214 298.254 990 298.254 994.786 298.254 998.667 302.134 998.667 306.921Z" stroke="#FF9F4F" stroke-linejoin="round" stroke-miterlimit="10" fill="#FF9F4F"/><path d="M1142.83 231.921C1142.83 236.707 1138.95 240.587 1134.17 240.587 1129.38 240.587 1125.5 236.707 1125.5 231.921 1125.5 227.134 1129.38 223.254 1134.17 223.254 1138.95 223.254 1142.83 227.134 1142.83 231.921Z" stroke="#FF9F4F" stroke-linejoin="round" stroke-miterlimit="10" fill="#FF9F4F"/></g><g clip-path="url(#clip7)"><text fill="#595959" font-family="Calibri,Calibri_MSFontService,sans-serif" font-weight="400" font-size="16" transform="translate(730.489 549)">0.01</text></g><g clip-path="url(#clip8)"><text fill="#595959" font-family="Calibri,Calibri_MSFontService,sans-serif" font-weight="400" font-size="16" transform="translate(738.596 469)">0.1</text></g><g clip-path="url(#clip9)"><text fill="#595959" font-family="Calibri,Calibri_MSFontService,sans-serif" font-weight="400" font-size="16" transform="translate(750.743 389)">1</text></g><g clip-path="url(#clip10)"><text fill="#595959" font-family="Calibri,Calibri_MSFontService,sans-serif" font-weight="400" font-size="16" transform="translate(742.636 309)">10</text></g><g clip-path="url(#clip11)"><text fill="#595959" font-family="Calibri,Calibri_MSFontService,sans-serif" font-weight="400" font-size="16" transform="translate(734.529 229)">100</text></g><g clip-path="url(#clip12)"><text fill="#595959" font-family="Calibri,Calibri_MSFontService,sans-serif" font-weight="400" font-size="27" transform="matrix(6.12323e-17 -1 1 6.12323e-17 730.858 468)">Half</text></g><g clip-path="url(#clip13)"><text fill="#595959" font-family="Calibri,Calibri_MSFontService,sans-serif" font-weight="400" font-size="27" transform="matrix(6.12323e-17 -1 1 6.12323e-17 730.858 425)">-</text></g><g clip-path="url(#clip14)"><text fill="#595959" font-family="Calibri,Calibri_MSFontService,sans-serif" font-weight="400" font-size="27" transform="matrix(6.12323e-17 -1 1 6.12323e-17 730.858 417)">life (</text></g><g clip-path="url(#clip15)"><text fill="#595959" font-family="Calibri,Calibri_MSFontService,sans-serif" font-weight="400" font-size="27" transform="matrix(6.12323e-17 -1 1 6.12323e-17 730.858 370)">hrs</text></g><g clip-path="url(#clip16)"><text fill="#595959" font-family="Calibri,Calibri_MSFontService,sans-serif" font-weight="400" font-size="27" transform="matrix(6.12323e-17 -1 1 6.12323e-17 730.858 336)">)</text></g><g clip-path="url(#clip17)"><path d="M828.5 261.5C828.5 265.366 825.59 268.5 822 268.5 818.41 268.5 815.5 265.366 815.5 261.5 815.5 257.634 818.41 254.5 822 254.5 825.59 254.5 828.5 257.634 828.5 261.5Z" stroke="#2E72B0" stroke-linejoin="round" stroke-miterlimit="10" fill="#2E72B0"/></g><g clip-path="url(#clip18)"><text fill="#595959" font-family="Calibri,Calibri_MSFontService,sans-serif" font-weight="400" font-size="24" transform="translate(834.596 268)">Rodent</text></g><g clip-path="url(#clip19)"><path d="M828.5 294C828.5 297.59 825.59 300.5 822 300.5 818.41 300.5 815.5 297.59 815.5 294 815.5 290.41 818.41 287.5 822 287.5 825.59 287.5 828.5 290.41 828.5 294Z" stroke="#FF9F4F" stroke-linejoin="round" stroke-miterlimit="10" fill="#FF9F4F"/></g><g clip-path="url(#clip20)"><text fill="#595959" font-family="Calibri,Calibri_MSFontService,sans-serif" font-weight="400" font-size="24" transform="translate(834.596 301)">Primate</text></g><text font-family="Calibri,Calibri_MSFontService,sans-serif" font-weight="400" font-size="21" transform="translate(829.506 583)">DNA<tspan x="119.752" y="0">RNA/</tspan>OMe<tspan x="286.182" y="0">OMe</tspan></text><path d="M872.023 482.034 905.464 447.843 922.22 431.15 938.977 414.83 955.738 399.133 972.565 384.183 989.457 370.043 1006.35 356.963 1023.38 345.009 1040.4 334.119 1057.48 324.045 1074.63 314.722 1091.77 306.028 1108.9 297.71 1135.96 285.243 1136.51 286.454 1109.47 298.918 1109.48 298.912 1092.35 307.225 1092.36 307.22 1075.24 315.907 1075.26 315.898 1058.13 325.211 1058.15 325.199 1041.09 335.262 1041.11 335.249 1024.11 346.124 1024.13 346.108 1007.13 358.046 1007.16 358.027 990.283 371.09 990.303 371.074 973.428 385.199 973.443 385.186 956.63 400.123 956.643 400.112 939.893 415.799 939.903 415.79 923.153 432.103 923.158 432.097 906.408 448.785 906.414 448.779 872.977 482.966ZM1136.23 285.848 1128.6 282.026 1143.5 282.5 1134.18 294.135Z" fill="#3B3838"/></g></svg>