<svg width="336" height="335" xmlns="http://www.w3.org/2000/svg" xmlns:xlink="http://www.w3.org/1999/xlink" overflow="hidden"><defs><clipPath id="clip0"><rect x="552" y="-1" width="336" height="335"/></clipPath><clipPath id="clip1"><rect x="570" y="19" width="299" height="299"/></clipPath><clipPath id="clip2"><rect x="570" y="19" width="299" height="299"/></clipPath><clipPath id="clip3"><rect x="570" y="19" width="299" height="299"/></clipPath></defs><g clip-path="url(#clip0)" transform="translate(-552 1)"><path d="M639.296 212.535C634.337 207.962 634.023 200.235 638.597 195.275L654.135 178.425C658.708 173.466 666.435 173.153 671.395 177.726L671.395 177.726C676.354 182.299 676.667 190.027 672.094 194.986L656.556 211.836C651.983 216.795 644.255 217.109 639.296 212.535Z" fill="#9EC4E6" fill-rule="evenodd"/><path d="M661.129 225.03C656.17 220.457 655.857 212.729 660.43 207.77L675.968 190.92C680.541 185.96 688.269 185.647 693.228 190.22L693.228 190.22C698.187 194.794 698.5 202.521 693.927 207.48L678.389 224.331C673.816 229.29 666.089 229.603 661.129 225.03Z" fill="#9EC4E6" fill-rule="evenodd"/><path d="M682.716 236.552C678.232 232.417 677.949 225.431 682.084 220.947L696.132 205.712C700.267 201.228 707.254 200.945 711.738 205.08L711.738 205.08C716.221 209.214 716.505 216.201 712.37 220.685L698.321 235.92C694.187 240.404 687.2 240.687 682.716 236.552Z" fill="#9EC4E6" fill-rule="evenodd"/><path d="M703.05 245.016C699.706 241.931 699.494 236.719 702.579 233.374L716.588 218.182C719.672 214.837 724.884 214.626 728.229 217.711L728.229 217.711C731.574 220.795 731.785 226.007 728.701 229.352L714.692 244.544C711.607 247.889 706.395 248.1 703.05 245.016Z" fill="#9EC4E6" fill-rule="evenodd"/><path d="M688.031 163.257C681.818 157.746 681.249 148.243 686.759 142.03L710.355 115.426C715.865 109.213 725.369 108.643 731.582 114.154L731.582 114.154C737.794 119.664 738.364 129.167 732.854 135.38L709.258 161.985C703.747 168.197 694.244 168.767 688.031 163.257Z" fill="#9EC4E6" fill-rule="evenodd"/><path d="M724.881 114.59C728.768 109.953 735.677 109.345 740.313 113.232L773.823 141.32C778.46 145.207 779.068 152.116 775.181 156.752L775.181 156.752C771.295 161.389 764.386 161.997 759.749 158.111L726.24 130.022C721.603 126.136 720.995 119.226 724.881 114.59Z" fill="#9EC4E6" fill-rule="evenodd"/><path d="M766.782 117.512 817.082 159.674 793.571 187.724 743.271 145.561Z" fill="#9EC4E6" fill-rule="evenodd"/><path d="M741.676 112.546 770.363 117.958 767.022 135.671 738.334 130.259Z" fill="#9EC4E6" fill-rule="evenodd"/><path d="M765.576 124.241 791.727 111.265 799.74 127.413 773.589 140.389Z" fill="#9EC4E6" fill-rule="evenodd"/><rect x="759" y="117" width="29" height="18" fill="#9EC4E6"/><path d="M797.833 122.659 819.371 160.003 803.756 169.009 782.218 131.664Z" fill="#9EC4E6" fill-rule="evenodd"/><path d="M583.951 148.587C581.801 147.329 581.078 144.566 582.336 142.416L615.173 86.2958C616.431 84.1458 619.194 83.4227 621.344 84.6807L648.813 100.754C650.963 102.012 651.686 104.774 650.428 106.924L617.591 163.044C616.333 165.194 613.57 165.918 611.42 164.66Z" fill="#9EC4E6" fill-rule="evenodd"/><g clip-path="url(#clip1)"><g clip-path="url(#clip2)"><g clip-path="url(#clip3)"><path d="M859.968 142.649 824.773 84.0948 821.658 78.8 816.364 82.226 792.693 96.8646C789.89 98.4219 787.709 101.225 786.775 104.34 786.152 106.52 786.152 109.011 787.086 111.192 780.546 113.372 774.005 114.618 767.153 114.618 757.809 114.306 748.466 112.749 739.433 109.946 735.073 108.7 730.401 107.766 725.729 106.831L725.106 106.831 725.106 106.831C724.795 106.831 724.483 106.831 724.483 106.831L723.86 106.831 723.237 106.831C722.615 106.831 722.303 106.831 721.68 106.831L721.68 106.831C716.385 106.831 711.091 109.011 707.665 113.06L705.173 115.864C701.124 114.306 696.764 113.372 692.403 113.372 691.469 113.372 690.846 113.372 689.911 113.372 688.043 113.372 686.485 113.683 684.617 113.683 680.568 113.995 676.519 114.306 672.47 114.306 665.618 114.618 658.766 113.06 652.536 110.257 652.848 108.389 652.848 106.52 652.536 104.34 651.602 101.225 649.422 98.4219 646.619 96.8646L623.259 82.226 617.965 78.8 614.85 84.0948 579.032 142.649 575.918 147.944 581.213 151.058 605.195 165.697C609.555 168.5 614.85 168.189 618.899 165.074L639.144 188.745 639.455 189.368 640.078 189.679 640.078 189.679 635.718 194.663C630.111 201.203 630.734 210.858 636.964 216.465L636.964 216.465 636.964 216.465C639.767 218.956 643.193 220.202 646.93 220.202 647.553 220.202 648.176 220.202 648.799 220.202 650.979 219.891 652.848 219.268 654.717 218.022 655.028 221.759 656.897 225.497 659.7 227.989L659.7 227.989 659.7 227.989C662.503 230.48 665.929 231.726 669.667 231.726 669.978 231.726 670.601 231.726 670.912 231.726 672.47 231.726 674.027 231.415 675.584 230.792 675.896 234.218 677.453 237.644 680.256 239.824L680.256 239.824 680.256 239.824C682.748 242.004 685.862 243.25 688.977 243.25 689.6 243.25 689.911 243.25 690.534 243.25 692.715 243.25 694.583 242.316 696.452 241.381 697.075 243.561 698.321 245.742 700.19 247.299 702.681 249.479 705.796 250.725 709.222 250.414L709.845 250.414 710.468 250.414C712.336 250.102 714.205 249.168 715.763 248.233L716.074 248.545 720.434 251.971 720.746 252.282 721.057 252.594C723.86 254.462 727.286 255.397 730.401 255.397 731.024 255.397 731.647 255.397 732.27 255.397 740.056 254.774 746.285 249.168 748.466 241.693 755.318 240.447 760.924 235.152 762.793 228.3 769.956 226.743 775.562 221.448 777.12 214.596 777.431 214.596 778.054 214.596 778.366 214.596 788.332 213.661 795.807 204.941 795.184 194.974 795.184 194.351 795.184 193.417 795.184 192.794L797.676 189.679 819.167 164.762C823.216 168.189 828.822 168.189 833.494 165.385L857.476 150.747 862.771 147.632 859.968 142.649ZM608.309 160.402 584.327 145.764 619.833 87.2094 643.504 101.848C645.996 103.094 647.242 106.208 646.307 108.7L644.439 111.815 617.342 156.665 615.473 159.468C614.539 160.402 612.981 161.025 611.424 161.025 610.49 161.336 609.244 161.025 608.309 160.402ZM648.176 213.973C647.865 213.973 647.553 213.973 647.242 213.973 642.258 213.973 638.209 209.613 638.209 204.629 638.209 202.449 639.144 200.269 640.39 198.711L656.897 180.024C658.766 178.155 661.257 176.909 664.06 176.909 666.241 176.909 668.421 177.844 669.978 179.09 673.716 182.516 674.339 188.433 670.912 192.171L654.405 210.858C652.848 212.727 650.668 213.661 648.176 213.973ZM671.224 225.808C670.912 225.808 670.601 225.808 670.29 225.808 665.306 225.808 661.257 221.448 661.257 216.465 661.257 214.284 662.192 212.104 663.438 210.547L677.765 194.04C679.633 192.171 682.125 190.925 684.928 190.925 687.108 190.925 689.289 191.859 690.846 193.105 694.583 196.531 695.206 202.449 691.78 206.186L677.453 222.694C675.896 224.562 673.716 225.808 671.224 225.808L671.224 225.808ZM690.846 237.332C690.534 237.332 690.223 237.332 689.911 237.332 688.043 237.332 686.485 236.709 684.928 235.464 681.814 232.66 681.502 227.677 684.305 224.562L698.632 208.055C700.19 206.498 702.37 205.564 704.55 205.564 706.419 205.564 708.287 206.186 709.533 207.432 712.648 210.235 712.959 215.219 710.156 218.333L695.829 234.841C694.583 236.398 692.715 237.332 690.846 237.332L690.846 237.332ZM709.845 244.807C708.287 244.807 706.419 244.496 705.173 243.25 702.681 241.07 702.37 237.021 704.55 234.529L716.697 220.514C717.943 219.268 719.5 218.333 721.369 218.333 722.926 218.333 724.172 218.956 725.418 219.891 727.909 222.071 728.221 226.12 726.041 228.611L713.894 242.627C712.959 243.873 711.402 244.496 709.845 244.807L709.845 244.807ZM778.366 208.367C778.054 208.367 777.431 208.367 777.12 208.367 775.251 208.367 773.382 207.744 771.825 207.121 771.825 207.744 772.136 208.367 772.136 208.99 772.759 215.842 767.776 221.759 760.924 222.382 760.924 222.382 760.924 222.382 760.924 222.382 759.99 222.382 758.744 222.382 757.809 222.071L757.809 222.382C758.432 229.234 753.449 235.152 746.597 235.775 746.597 235.775 746.597 235.775 746.597 235.775 745.662 235.775 744.417 235.775 743.482 235.464L743.482 235.775C744.105 242.627 739.122 248.545 732.27 249.168 732.27 249.168 732.27 249.168 732.27 249.168 731.958 249.168 731.647 249.168 731.335 249.168 729.155 249.168 726.975 248.545 724.795 247.299L720.746 244.184 730.713 232.66C735.073 227.366 734.45 219.579 729.467 215.219 727.286 213.35 724.483 212.104 721.369 212.104 720.434 212.104 719.189 212.104 718.254 212.416 717.943 208.678 716.385 205.252 713.582 202.76 711.091 200.58 707.665 199.334 704.239 199.334L704.239 199.334C702.681 199.334 701.435 199.646 699.878 199.957 699.878 195.597 698.009 191.548 694.583 188.433 691.78 185.942 688.354 184.384 684.617 184.696L684.617 184.696C682.748 184.696 680.879 185.007 679.01 185.63 678.699 181.27 676.83 177.221 673.716 174.418 670.912 171.926 667.486 170.369 663.749 170.68L663.749 170.68C659.389 170.68 655.028 172.549 651.914 175.975L643.816 185.319 643.504 185.007 622.325 160.402 649.422 115.552C656.274 118.978 664.06 120.535 671.847 120.224 678.076 120.224 684.305 119.601 689.911 118.978 690.534 118.978 691.157 118.978 691.78 118.978 694.583 118.978 697.386 119.29 699.878 120.224L682.748 140.469C679.322 144.206 677.765 149.19 678.076 154.173 678.388 159.156 680.879 163.517 684.617 166.943L684.617 166.943 684.617 166.943C688.043 169.746 692.403 171.303 696.764 171.303 697.386 171.303 697.698 171.303 698.321 171.303 703.304 170.992 707.976 168.5 711.091 164.762L732.27 140.469 732.27 140.469 735.696 143.583 785.841 186.565C788.021 188.433 789.267 191.548 789.267 194.351 789.267 194.663 789.267 195.597 789.267 195.597 789.89 202.137 784.906 207.744 778.366 208.367 778.366 208.367 778.366 208.367 778.366 208.367ZM793.627 185.63C792.693 184.073 791.447 182.827 790.201 181.581L731.958 131.436 706.419 160.714C704.239 163.205 701.435 164.762 698.009 165.074 697.698 165.074 697.386 165.074 697.075 165.074 693.96 165.074 691.157 163.828 688.666 161.959 683.371 157.599 682.748 150.124 687.108 144.829 687.108 144.829 687.42 144.518 687.42 144.518L712.025 116.486C714.517 113.683 717.943 112.438 721.369 112.438 721.68 112.438 721.992 112.438 722.615 112.438 723.237 112.438 723.549 112.749 724.172 112.749 738.499 115.552 751.58 120.535 766.842 120.535 774.628 120.535 782.415 119.29 789.578 116.486L807.643 145.764 816.052 159.779 793.627 185.63ZM830.691 160.402C829.756 161.025 828.51 161.336 827.576 161.336 826.019 161.336 824.461 160.714 823.216 159.468L821.347 156.353 812.938 142.649 793.316 110.257C791.447 107.454 792.381 104.028 794.873 102.159 795.184 102.159 795.184 101.848 795.496 101.848L819.478 87.2094 854.673 145.764 830.691 160.402Z" fill="#2E72B0"/></g></g></g></g></svg>