<svg width="335" height="335" xmlns="http://www.w3.org/2000/svg" xmlns:xlink="http://www.w3.org/1999/xlink" overflow="hidden"><defs><clipPath id="clip0"><rect x="66" y="204" width="335" height="335"/></clipPath></defs><g clip-path="url(#clip0)" transform="translate(-66 -204)"><path d="M137 363C137 356.925 141.925 352 148 352 154.075 352 159 356.925 159 363 159 369.075 154.075 374 148 374 141.925 374 137 369.075 137 363Z" fill="#FF9F4F" fill-rule="evenodd"/><path d="M308 363C308 356.925 313.149 352 319.5 352 325.851 352 331 356.925 331 363 331 369.075 325.851 374 319.5 374 313.149 374 308 369.075 308 363Z" fill="#FF9F4F" fill-rule="evenodd"/><path d="M143 328.5C143 322.149 147.925 317 154 317 160.075 317 165 322.149 165 328.5 165 334.851 160.075 340 154 340 147.925 340 143 334.851 143 328.5Z" fill="#FF9F4F" fill-rule="evenodd"/><path d="M302 328.5C302 322.149 306.925 317 313 317 319.075 317 324 322.149 324 328.5 324 334.851 319.075 340 313 340 306.925 340 302 334.851 302 328.5Z" fill="#FF9F4F" fill-rule="evenodd"/><path d="M143 397.5C143 391.149 147.925 386 154 386 160.075 386 165 391.149 165 397.5 165 403.851 160.075 409 154 409 147.925 409 143 403.851 143 397.5Z" fill="#FF9F4F" fill-rule="evenodd"/><path d="M302 397.5C302 391.149 306.925 386 313 386 319.075 386 324 391.149 324 397.5 324 403.851 319.075 409 313 409 306.925 409 302 403.851 302 397.5Z" fill="#FF9F4F" fill-rule="evenodd"/><path d="M170 424C170 417.925 174.925 413 181 413 187.075 413 192 417.925 192 424 192 430.075 187.075 435 181 435 174.925 435 170 430.075 170 424Z" fill="#FF9F4F" fill-rule="evenodd"/><path d="M275 424C275 417.925 279.925 413 286 413 292.075 413 297 417.925 297 424 297 430.075 292.075 435 286 435 279.925 435 275 430.075 275 424Z" fill="#FF9F4F" fill-rule="evenodd"/><path d="M161 298C161 291.925 165.925 287 172 287 178.075 287 183 291.925 183 298 183 304.075 178.075 309 172 309 165.925 309 161 304.075 161 298Z" fill="#FF9F4F" fill-rule="evenodd"/><path d="M285 298C285 291.925 290.149 287 296.5 287 302.851 287 308 291.925 308 298 308 304.075 302.851 309 296.5 309 290.149 309 285 304.075 285 298Z" fill="#FF9F4F" fill-rule="evenodd"/><path d="M190 276C190 269.925 194.925 265 201 265 207.075 265 212 269.925 212 276 212 282.075 207.075 287 201 287 194.925 287 190 282.075 190 276Z" fill="#FF9F4F" fill-rule="evenodd"/><path d="M256 276C256 269.925 260.925 265 267 265 273.075 265 278 269.925 278 276 278 282.075 273.075 287 267 287 260.925 287 256 282.075 256 276Z" fill="#FF9F4F" fill-rule="evenodd"/><path d="M223 269C223 262.925 227.925 258 234 258 240.075 258 245 262.925 245 269 245 275.075 240.075 280 234 280 227.925 280 223 275.075 223 269Z" fill="#FF9F4F" fill-rule="evenodd"/><path d="M203 439C203 432.925 208.149 428 214.5 428 220.851 428 226 432.925 226 439 226 445.075 220.851 450 214.5 450 208.149 450 203 445.075 203 439Z" fill="#2E72B0" fill-rule="evenodd"/><path d="M241 439C241 432.925 246.149 428 252.5 428 258.851 428 264 432.925 264 439 264 445.075 258.851 450 252.5 450 246.149 450 241 445.075 241 439Z" fill="#2E72B0" fill-rule="evenodd"/><path d="M203 476C203 469.925 208.149 465 214.5 465 220.851 465 226 469.925 226 476 226 482.075 220.851 487 214.5 487 208.149 487 203 482.075 203 476Z" fill="#2E72B0" fill-rule="evenodd"/><path d="M241 476C241 469.925 245.925 465 252 465 258.075 465 263 469.925 263 476 263 482.075 258.075 487 252 487 245.925 487 241 482.075 241 476Z" fill="#2E72B0" fill-rule="evenodd"/><path d="M203 514C203 507.925 208.149 503 214.5 503 220.851 503 226 507.925 226 514 226 520.075 220.851 525 214.5 525 208.149 525 203 520.075 203 514Z" fill="#2E72B0" fill-rule="evenodd"/><path d="M241 514C241 507.925 245.925 503 252 503 258.075 503 263 507.925 263 514 263 520.075 258.075 525 252 525 245.925 525 241 520.075 241 514Z" fill="#2E72B0" fill-rule="evenodd"/><path d="M214 453 214 461.098" stroke="#9EC4E6" stroke-width="4" stroke-linecap="round" stroke-miterlimit="8" fill="none" fill-rule="evenodd"/><path d="M251 453 251 461.098" stroke="#9EC4E6" stroke-width="4" stroke-linecap="round" stroke-miterlimit="8" fill="none" fill-rule="evenodd"/><path d="M214 491 214 499.098" stroke="#9EC4E6" stroke-width="4" stroke-linecap="round" stroke-miterlimit="8" fill="none" fill-rule="evenodd"/><path d="M251 491 251 499.098" stroke="#9EC4E6" stroke-width="4" stroke-linecap="round" stroke-miterlimit="8" fill="none" fill-rule="evenodd"/><path d="M237.098 514 229 514" stroke="#9EC4E6" stroke-width="4" stroke-linecap="round" stroke-miterlimit="8" fill="none" fill-rule="evenodd"/><path d="M237.098 475 229 475" stroke="#9EC4E6" stroke-width="4" stroke-linecap="round" stroke-miterlimit="8" fill="none" fill-rule="evenodd"/><path d="M237.098 439 229 439" stroke="#9EC4E6" stroke-width="4" stroke-linecap="round" stroke-miterlimit="8" fill="none" fill-rule="evenodd"/><path d="M0 0 7.27034 3.31412" stroke="#9EC4E6" stroke-width="4" stroke-linecap="round" stroke-miterlimit="8" fill="none" fill-rule="evenodd" transform="matrix(-1 -8.74228e-08 -8.74228e-08 1 273.27 429)"/><path d="M194 431 201.27 434.314" stroke="#9EC4E6" stroke-width="4" stroke-linecap="round" stroke-miterlimit="8" fill="none" fill-rule="evenodd"/><path d="M89 362C89 360.343 90.3431 359 92 359L121 359C122.657 359 124 360.343 124 362L124 362C124 363.657 122.657 365 121 365L92 365C90.3431 365 89 363.657 89 362Z" fill="#FF9F4F" fill-rule="evenodd"/><path d="M343 362C343 360.343 344.343 359 346 359L375 359C376.657 359 378 360.343 378 362L378 362C378 363.657 376.657 365 375 365L346 365C344.343 365 343 363.657 343 362Z" fill="#FF9F4F" fill-rule="evenodd"/><path d="M318.501 291.525C317.409 290.433 317.409 288.663 318.501 287.571L339.372 266.7C340.464 265.608 342.234 265.608 343.326 266.7L343.326 266.7C344.418 267.792 344.418 269.562 343.326 270.654L322.455 291.525C321.363 292.617 319.593 292.617 318.501 291.525Z" fill="#FF9F4F" fill-rule="evenodd"/><path d="M123.466 266.867C124.557 265.776 126.328 265.776 127.42 266.867L148.29 287.738C149.382 288.83 149.382 290.6 148.29 291.692L148.29 291.692C147.198 292.784 145.428 292.784 144.336 291.692L123.466 270.822C122.374 269.73 122.374 267.959 123.466 266.867Z" fill="#FF9F4F" fill-rule="evenodd"/><path d="M233 213C234.657 213 236 214.343 236 216L236 245C236 246.657 234.657 248 233 248L233 248C231.343 248 230 246.657 230 245L230 216C230 214.343 231.343 213 233 213Z" fill="#FF9F4F" fill-rule="evenodd"/><path d="M113.143 319.203C113.543 317.712 115.076 316.827 116.567 317.226L127.857 320.251C129.349 320.651 130.234 322.184 129.834 323.676L129.834 323.676C129.434 325.167 127.901 326.052 126.41 325.653L115.12 322.628C113.628 322.228 112.743 320.695 113.143 319.203Z" fill="#FF9F4F" fill-rule="evenodd"/><path d="M0 2.79591C-5.49994e-16 1.25177 1.25177 0 2.79591 0L14.4841 0C16.0282 -5.49994e-16 17.28 1.25177 17.28 2.79591L17.28 2.79591C17.28 4.34004 16.0282 5.59181 14.4841 5.59181L2.79591 5.59181C1.25177 5.59181 0 4.34004 0 2.79591Z" fill="#FF9F4F" fill-rule="evenodd" transform="matrix(-0.965926 0.258819 0.258819 0.965926 350.668 316.419)"/><path d="M0 2.79591C-5.49994e-16 1.25177 1.25177 0 2.79591 0L14.4841 0C16.0282 -5.49994e-16 17.28 1.25177 17.28 2.79591L17.28 2.79591C17.28 4.34004 16.0282 5.59181 14.4841 5.59181L2.79591 5.59181C1.25177 5.59181 0 4.34004 0 2.79591Z" fill="#FF9F4F" fill-rule="evenodd" transform="matrix(-0.5 0.866025 0.866025 0.5 287.363 242.576)"/><path d="M176.119 243.533C177.456 242.761 179.166 243.219 179.938 244.556L185.782 254.679C186.554 256.016 186.096 257.726 184.759 258.498L184.759 258.498C183.422 259.27 181.712 258.812 180.94 257.475L175.096 247.352C174.324 246.015 174.782 244.305 176.119 243.533Z" fill="#FF9F4F" fill-rule="evenodd"/><path d="M214 355 214 423.666" stroke="#9EC4E6" stroke-width="4" stroke-linecap="round" stroke-miterlimit="8" fill="none" fill-rule="evenodd"/><path d="M203.022 366C196.947 366.013 192.012 360.875 192 354.523 191.988 348.172 196.902 343.013 202.978 343 209.053 342.987 213.988 348.125 214 354.477 214 354.484 214 354.492 214 354.5" stroke="#9EC4E6" stroke-width="4" stroke-linecap="round" stroke-miterlimit="8" fill="none" fill-rule="evenodd"/><path d="M251 355 251 423.667" stroke="#9EC4E6" stroke-width="4" stroke-linecap="round" stroke-miterlimit="8" fill="none" fill-rule="evenodd"/><path d="M11.5225 23C5.1712 23.0124 0.0124221 17.8737 1.05459e-05 11.5225-0.012401 5.17121 5.12625 0.01243 11.4775 1.84062e-05 17.8288-0.0123932 22.9876 5.12626 23 11.4775 23 11.485 23 11.4925 23 11.5" stroke="#9EC4E6" stroke-width="4" stroke-linecap="round" stroke-miterlimit="8" fill="none" fill-rule="evenodd" transform="matrix(-1 -8.74228e-08 -8.74228e-08 1 274 343)"/><path d="M0 0 59.4849 0.000104987" stroke="#9EC4E6" stroke-width="4" stroke-linecap="round" stroke-miterlimit="8" fill="none" fill-rule="evenodd" transform="matrix(1 0 0 -1 203 366)"/></g></svg>