<svg width="375" height="336" xmlns="http://www.w3.org/2000/svg" xmlns:xlink="http://www.w3.org/1999/xlink" overflow="hidden"><defs><clipPath id="clip0"><rect x="883" y="-3" width="375" height="336"/></clipPath><clipPath id="clip1"><path d="M1038.44 188.24 1177 108.24 1257 246.804 1118.44 326.804Z" fill-rule="evenodd" clip-rule="evenodd"/></clipPath><clipPath id="clip2"><path d="M1038.44 188.24 1177 108.24 1257 246.804 1118.44 326.804Z" fill-rule="evenodd" clip-rule="evenodd"/></clipPath><clipPath id="clip3"><path d="M1038.44 188.24 1177 108.24 1257 246.804 1118.44 326.804Z" fill-rule="evenodd" clip-rule="evenodd"/></clipPath><clipPath id="clip4"><path d="M1102.15 188.24 963.587 108.24 883.587 246.804 1022.15 326.804Z" fill-rule="evenodd" clip-rule="evenodd"/></clipPath><clipPath id="clip5"><path d="M1102.15 188.24 963.587 108.24 883.587 246.804 1022.15 326.804Z" fill-rule="evenodd" clip-rule="evenodd"/></clipPath><clipPath id="clip6"><path d="M1102.15 188.24 963.587 108.24 883.587 246.804 1022.15 326.804Z" fill-rule="evenodd" clip-rule="evenodd"/></clipPath></defs><g clip-path="url(#clip0)" transform="translate(-883 3)"><g clip-path="url(#clip1)"><g clip-path="url(#clip2)"><g clip-path="url(#clip3)"><path d="M1124.02 213.137 1158.66 193.137C1161.05 191.756 1164.11 192.575 1165.49 194.967 1166.87 197.358 1166.05 200.416 1163.66 201.797L1137.68 216.797C1136.88 217.257 1136.61 218.277 1137.07 219.074 1137.53 219.871 1138.55 220.144 1139.34 219.684L1165.33 204.684C1169.31 202.383 1170.68 197.286 1168.38 193.3 1166.07 189.315 1160.98 187.949 1156.99 190.25L1122.35 210.25C1119.76 211.774 1117.61 213.944 1116.11 216.549L1086.59 259.762C1086.04 260.498 1086.19 261.543 1086.93 262.096 1087.66 262.648 1088.71 262.5 1089.26 261.764 1089.29 261.723 1089.32 261.681 1089.34 261.638L1118.93 218.323C1120.14 216.177 1121.9 214.388 1124.02 213.137Z" stroke="#2E72B0" stroke-width="3" fill="#2E72B0"/><path d="M1189.21 156.054C1187.87 156.792 1186.77 157.915 1186.07 159.279L1169.55 187.674C1169.09 188.47 1169.36 189.49 1170.16 189.953 1170.95 190.417 1171.97 190.147 1172.44 189.352L1189.01 160.849C1189.43 160.039 1190.08 159.374 1190.88 158.941 1193.27 157.56 1196.33 158.38 1197.71 160.771 1198.39 162.085 1198.54 163.609 1198.14 165.032L1175.26 216.822C1174.84 217.83 1174.09 218.673 1173.15 219.225L1146.15 234.811C1131.39 243.334 1122 254.777 1118.24 268.824 1117.99 269.709 1118.5 270.632 1119.38 270.886 1120.27 271.139 1121.19 270.628 1121.45 269.743 1121.45 269.724 1121.46 269.706 1121.46 269.687 1124.98 256.529 1133.85 245.768 1147.82 237.703L1174.82 222.12C1176.37 221.216 1177.59 219.841 1178.3 218.194L1201.25 166.248 1201.34 166.006C1202.03 163.699 1201.76 161.213 1200.61 159.099 1198.3 155.111 1193.2 153.748 1189.21 156.054Z" stroke="#2E72B0" stroke-width="3" fill="#2E72B0"/></g></g></g><g clip-path="url(#clip4)"><g clip-path="url(#clip5)"><g clip-path="url(#clip6)"><path d="M61.6667 64.3517 101.667 64.3517C104.428 64.3517 106.667 66.5902 106.667 69.3517 106.667 72.1132 104.428 74.3517 101.667 74.3517L71.6667 74.3517C70.7462 74.3517 70 75.0978 70 76.0183 70 76.9388 70.7462 77.685 71.6667 77.685L101.667 77.685C106.269 77.685 110 73.954 110 69.3517 110 64.7493 106.269 61.0183 101.667 61.0183L61.6667 61.0183C58.6607 61.0425 55.7123 61.8465 53.11 63.3517L5.94333 86.0183C5.0967 86.3795 4.7032 87.3587 5.06442 88.2053 5.42565 89.052 6.40482 89.4455 7.25145 89.0843 7.29805 89.0643 7.34373 89.0423 7.38833 89.0183L54.6667 66.2983C56.7885 65.0457 59.2028 64.3742 61.6667 64.3517Z" stroke="#2E72B0" stroke-width="3" fill="#2E72B0" transform="matrix(-0.866025 -0.5 -0.5 0.866025 1102.15 188.24)"/><path d="M146.667 47.5133C145.133 47.48 143.624 47.9053 142.333 48.735L113.833 65.0683C113.034 65.5258 112.757 66.5443 113.215 67.3433 113.672 68.1423 114.691 68.4192 115.49 67.9617L144.098 51.5667C144.862 51.0727 145.757 50.8217 146.667 50.8467 149.428 50.8467 151.667 53.0852 151.667 55.8467 151.6 57.3248 150.97 58.7215 149.907 59.75L104.205 93.1667C103.33 93.8252 102.267 94.1842 101.172 94.19L70 94.19C52.9533 94.19 39.0967 99.4033 28.82 109.69 28.1578 110.329 28.1395 111.385 28.779 112.047 29.4185 112.709 30.4737 112.727 31.1357 112.088 31.1497 112.074 31.1633 112.06 31.1767 112.047 40.8067 102.413 53.87 97.53 70 97.53L101.167 97.53C102.962 97.523 104.708 96.9433 106.152 95.875L152 62.3633 152.195 62.1967C153.943 60.541 154.958 58.2568 155.017 55.85 155.012 51.2425 151.274 47.5105 146.667 47.5133Z" stroke="#2E72B0" stroke-width="3" fill="#2E72B0" transform="matrix(-0.866025 -0.5 -0.5 0.866025 1102.15 188.24)"/></g></g></g><path d="M0 20C0 8.95434 8.73048 0 19.5 0 30.2695 0 39 8.95434 39 20 39 31.0457 30.2695 40 19.5 40 8.73048 40 0 31.0457 0 20Z" stroke="#2E72B0" stroke-width="6" stroke-miterlimit="8" fill="none" fill-rule="evenodd" transform="matrix(-1 -8.74228e-08 -8.74228e-08 1 1087 102)"/><path d="M1026 181.193C1026.25 165.453 1045.03 152.832 1067.95 153.002 1090.69 153.17 1109 165.88 1109 181.5" stroke="#2E72B0" stroke-width="6" stroke-linecap="round" stroke-miterlimit="8" fill="none" fill-rule="evenodd"/><path d="M0 17C0 7.61119 7.38733 0 16.5 0 25.6127 0 33 7.61119 33 17 33 26.3888 25.6127 34 16.5 34 7.38733 34 0 26.3888 0 17Z" stroke="#9EC4E6" stroke-width="6" stroke-miterlimit="8" fill="none" fill-rule="evenodd" transform="matrix(-1 -8.74228e-08 -8.74228e-08 1 1038 108)"/><path d="M987.002 174.244C987.209 161.266 1002.82 150.86 1021.88 151.001 1025.54 151.029 1029.18 151.454 1032.65 152.261" stroke="#9EC4E6" stroke-width="6" stroke-linecap="round" stroke-miterlimit="8" fill="none" fill-rule="evenodd"/><path d="M1097 124.5C1097 115.387 1104.39 108 1113.5 108 1122.61 108 1130 115.387 1130 124.5 1130 133.613 1122.61 141 1113.5 141 1104.39 141 1097 133.613 1097 124.5Z" stroke="#9EC4E6" stroke-width="6" stroke-miterlimit="8" fill="none" fill-rule="evenodd"/><path d="M0.0020374 23.2443C0.209317 10.2664 15.8226-0.139808 34.8753 0.00138198 38.5416 0.0285512 42.1781 0.453641 45.6479 1.26065" stroke="#9EC4E6" stroke-width="6" stroke-linecap="round" stroke-miterlimit="8" fill="none" fill-rule="evenodd" transform="matrix(-1 -8.74228e-08 -8.74228e-08 1 1148 151)"/><path d="M1039 61C1039 45.536 1051.54 33 1067 33 1082.46 33 1095 45.536 1095 61 1095 76.464 1082.46 89 1067 89 1051.54 89 1039 76.464 1039 61Z" fill="#2E72B0" fill-rule="evenodd"/><path d="M1051 61.5C1051 59.0147 1053.01 57 1055.5 57L1079.5 57C1081.99 57 1084 59.0147 1084 61.5L1084 61.5C1084 63.9853 1081.99 66 1079.5 66L1055.5 66C1053.01 66 1051 63.9853 1051 61.5Z" fill="#FFFFFF" fill-rule="evenodd"/><path d="M1067.5 78C1065.01 78 1063 75.9853 1063 73.5L1063 49.5C1063 47.0147 1065.01 45 1067.5 45L1067.5 45C1069.99 45 1072 47.0147 1072 49.5L1072 73.5C1072 75.9853 1069.99 78 1067.5 78Z" fill="#FFFFFF" fill-rule="evenodd"/></g></svg>